#N canvas 0 54 1920 1026 10;
#X declare -path libs/abs;
#X declare -path libs/abs;
#X declare -path libs/glsl;
#X declare -path libs/abs;
#X declare -path libs/abs;
#X declare -path libs/abs;
#X declare -path libs/abs;
#X declare -path libs/rj;
#X declare -path libs/abs;
#X msg 23 28 create;
#X obj 42 145 qcam uno, f 13;
#X obj 22 61 qwin 640 480;
#X obj 182 144 qimage uno;
#X msg 183 107 open;
#X obj 35 303 qrepetition uno;
#X msg 156 295 repetition \$1;
#X floatatom 155 264 5 0 0 0 - - -, f 5;
#X msg 250 293 autoX \$1;
#X obj 248 271 tgl 15 0 empty empty empty 17 7 0 10 -262144 -1 -1 0
1;
#X obj 311 269 tgl 15 0 empty empty empty 17 7 0 10 -262144 -1 -1 0
1;
#X msg 312 291 autoY \$1;
#X obj 371 270 tgl 15 0 empty empty empty 17 7 0 10 -262144 -1 -1 0
1;
#X msg 372 293 autoZ \$1;
#X msg 438 294 speed \$1;
#X obj 437 214 vsl 15 64 0 1 0 0 empty empty empty 0 -9 0 10 -262144
-1 -1 0 1;
#X obj 39 418 qfx-blur uno;
#X msg 135 404 active \$1;
#X obj 135 375 tgl 15 0 empty empty empty 17 7 0 10 -262144 -1 -1 0
1;
#X obj 37 559 qfx-led unof;
#X msg 109 530 active \$1;
#X obj 109 501 tgl 15 0 empty empty empty 17 7 0 10 -262144 -1 -1 0
1;
#X obj 182 455 vsl 15 64 0 1 0 0 empty empty empty 0 -9 0 10 -262144
-1 -1 0 1;
#X msg 183 529 distance \$1;
#X obj 262 496 tgl 15 0 empty empty empty 17 7 0 10 -262144 -1 -1 0
1;
#X obj 317 454 vsl 15 64 0 1 0 0 empty empty empty 0 -9 0 10 -262144
-1 -1 0 1;
#X msg 262 525 auto \$1;
#X msg 318 528 speed \$1;
#X msg 601 1239 fullscreen;
#X obj 265 1039 vsl 15 64 0 1 0 0 empty empty empty 0 -9 0 10 -262144
-1 -1 0 1;
#X msg 372 1107 alpha \$1;
#X obj 371 1033 vsl 15 64 0 1 0 0 empty empty empty 0 -9 0 10 -262144
-1 -1 0 1;
#X obj 37 1192 qscreen uno;
#X msg 266 1109 size \$1;
#X obj 491 1030 vsl 15 64 0 1 0 0 empty empty empty 0 -9 0 10 -262144
-1 -1 0 1;
#X msg 492 1104 translateX \$1;
#X obj 676 1029 vsl 15 64 0 1 0 0 empty empty empty 0 -9 0 10 -262144
-1 -1 0 1;
#X msg 677 1103 translateY \$1;
#X obj 268 1163 vsl 15 64 0 1 0 0 empty empty empty 0 -9 0 10 -262144
-1 -1 0 1;
#X obj 453 1162 vsl 15 64 0 1 0 0 empty empty empty 0 -9 0 10 -262144
-1 -1 0 1;
#X msg 269 1237 rotateX \$1;
#X msg 454 1236 rotateY \$1;
#X msg 208 628 active \$1;
#X obj 208 598 tgl 15 0 empty empty empty 17 7 0 10 -262144 -1 -1 0
1;
#X obj 341 562 vsl 15 64 0 1 0 0 empty empty empty 0 -9 0 10 -262144
-1 -1 0 1;
#X msg 342 636 radius \$1;
#X msg 210 756 active \$1;
#X obj 210 726 tgl 15 0 empty empty empty 17 7 0 10 -262144 -1 -1 0
1;
#X obj 341 678 vsl 15 64 0 1 0 0 empty empty empty 0 -9 0 10 -262144
-1 -1 0 1;
#X msg 342 751 scale \$1;
#X obj 37 808 qfx-pixelate uno;
#X obj 37 682 qfx-lightunnel uno;
#X msg 230 901 active \$1;
#X obj 230 873 tgl 15 0 empty empty empty 17 7 0 10 -262144 -1 -1 0
1;
#X obj 35 944 qfx-laplace uno;
#X obj 366 802 vsl 15 64 0 1 0 0 empty empty empty 0 -9 0 10 -262144
-1 -1 0 1;
#X obj 395 800 vsl 15 64 0 1 0 0 empty empty empty 0 -9 0 10 -262144
-1 -1 0 1;
#X obj 425 800 vsl 15 64 0 1 0 0 empty empty empty 0 -9 0 10 -262144
-1 -1 0 1;
#X obj 364 944 pack f f f;
#X obj 425 872 t b f;
#X obj 397 907 t b f;
#X msg 364 979 color \$1 \$2 \$3;
#X obj 924 274 qaudio, f 20;
#X obj 899 374 vsl 15 128 0 1 0 0 empty empty empty 0 -9 0 10 -262144
-1 -1 0 1;
#X obj 976 371 vsl 15 128 0 1 0 0 empty empty empty 0 -9 0 10 -262144
-1 -1 0 1;
#X obj 1052 368 vsl 15 128 0 1 0 0 empty empty empty 0 -9 0 10 -262144
-1 -1 0 1;
#X obj 1118 399 bng 15 250 50 0 empty empty empty 17 7 0 10 -262144
-1 -1;
#X obj 318 156 qtext uno;
#X msg 314 104 font;
#X obj 378 44 vsl 15 64 0 1 0 0 empty empty empty 0 -9 0 10 -262144
-1 -1 1600 1;
#X msg 379 118 size \$1;
#X obj 473 -20 vsl 15 64 0 1 0 0 empty empty empty 0 -9 0 10 -262144
-1 -1 6300 1;
#X obj 502 -22 vsl 15 64 0 1 0 0 empty empty empty 0 -9 0 10 -262144
-1 -1 2600 1;
#X obj 532 -22 vsl 15 64 0 1 0 0 empty empty empty 0 -9 0 10 -262144
-1 -1 0 1;
#X obj 471 122 pack f f f;
#X obj 532 50 t b f;
#X obj 504 85 t b f;
#X msg 471 157 color \$1 \$2 \$3;
#X msg 632 128 read;
#X msg 678 130 text ciao ciao;
#X connect 0 0 2 0;
#X connect 1 0 19 0;
#X connect 4 0 3 0;
#X connect 6 0 5 1;
#X connect 7 0 6 0;
#X connect 8 0 5 1;
#X connect 9 0 8 0;
#X connect 10 0 11 0;
#X connect 11 0 5 1;
#X connect 12 0 13 0;
#X connect 13 0 5 1;
#X connect 14 0 5 1;
#X connect 15 0 14 0;
#X connect 17 0 16 1;
#X connect 18 0 17 0;
#X connect 19 0 51 0;
#X connect 20 0 19 1;
#X connect 21 0 20 0;
#X connect 22 0 23 0;
#X connect 23 0 19 1;
#X connect 24 0 26 0;
#X connect 25 0 27 0;
#X connect 26 0 19 1;
#X connect 27 0 19 1;
#X connect 28 0 32 1;
#X connect 29 0 33 0;
#X connect 30 0 32 1;
#X connect 31 0 30 0;
#X connect 33 0 32 1;
#X connect 34 0 35 0;
#X connect 35 0 32 1;
#X connect 36 0 37 0;
#X connect 37 0 32 1;
#X connect 38 0 40 0;
#X connect 39 0 41 0;
#X connect 40 0 32 1;
#X connect 41 0 32 1;
#X connect 42 0 51 1;
#X connect 43 0 42 0;
#X connect 44 0 45 0;
#X connect 45 0 51 1;
#X connect 46 0 50 1;
#X connect 47 0 46 0;
#X connect 48 0 49 0;
#X connect 49 0 50 1;
#X connect 50 0 54 0;
#X connect 51 0 50 0;
#X connect 52 0 54 1;
#X connect 53 0 52 0;
#X connect 55 0 58 0;
#X connect 56 0 60 0;
#X connect 57 0 59 0;
#X connect 58 0 61 0;
#X connect 59 0 55 0;
#X connect 59 1 58 2;
#X connect 60 0 55 0;
#X connect 60 1 58 1;
#X connect 61 0 54 1;
#X connect 62 0 63 0;
#X connect 62 1 64 0;
#X connect 62 2 65 0;
#X connect 62 3 66 0;
#X connect 67 0 32 0;
#X connect 68 0 67 0;
#X connect 69 0 70 0;
#X connect 70 0 67 0;
#X connect 71 0 74 0;
#X connect 72 0 76 0;
#X connect 73 0 75 0;
#X connect 74 0 77 0;
#X connect 75 0 71 0;
#X connect 75 1 74 2;
#X connect 76 0 71 0;
#X connect 76 1 74 1;
#X connect 77 0 67 0;
#X connect 78 0 67 0;
#X connect 79 0 67 0;
