#N canvas 0 107 1905 998 10;
#X declare -path libs/abs;
#X declare -path libs/abs;
#X declare -path libs/glsl;
#X declare -path libs/abs;
#X declare -path libs/abs;
#X declare -path libs/abs;
#X declare -path libs/abs;
#X declare -path libs/rj;
#X declare -path libs/abs;
#X declare -path libs/abs;
#X declare -path libs/abs;
#X declare -path libs/abs;
#X declare -path libs/abs;
#X declare -path libs/abs;
#X declare -path libs/abs;
#X declare -path libs/abs;
#X declare -path libs/abs;
#X declare -path libs/abs;
#X msg 23 -140 create;
#X obj 39 -21 qcam uno, f 13;
#X obj 22 -107 qwin 640 480;
#X obj 182 -24 qimage uno;
#X msg 183 -61 open;
#X obj 35 135 qrepetition uno;
#X msg 156 127 repetition \$1;
#X floatatom 155 96 5 0 0 0 - - -, f 5;
#X msg 250 125 autoX \$1;
#X obj 248 103 tgl 15 0 empty empty empty 17 7 0 10 -262144 -1 -1 0
1;
#X obj 311 101 tgl 15 0 empty empty empty 17 7 0 10 -262144 -1 -1 0
1;
#X msg 312 123 autoY \$1;
#X obj 371 102 tgl 15 0 empty empty empty 17 7 0 10 -262144 -1 -1 0
1;
#X msg 372 125 autoZ \$1;
#X msg 438 126 speed \$1;
#X obj 437 46 vsl 15 64 0 1 0 0 empty empty empty 0 -9 0 10 -262144
-1 -1 0 1;
#X obj 39 418 qfx-blur uno;
#X msg 135 404 active \$1;
#X obj 135 375 tgl 15 0 empty empty empty 17 7 0 10 -262144 -1 -1 0
1;
#X obj 37 559 qfx-led unof;
#X msg 109 530 active \$1;
#X obj 109 501 tgl 15 0 empty empty empty 17 7 0 10 -262144 -1 -1 0
1;
#X obj 182 455 vsl 15 64 0 1 0 0 empty empty empty 0 -9 0 10 -262144
-1 -1 0 1;
#X msg 183 529 distance \$1;
#X obj 262 496 tgl 15 0 empty empty empty 17 7 0 10 -262144 -1 -1 0
1;
#X obj 317 454 vsl 15 64 0 1 0 0 empty empty empty 0 -9 0 10 -262144
-1 -1 0 1;
#X msg 262 525 auto \$1;
#X msg 318 528 speed \$1;
#X msg 601 1239 fullscreen;
#X obj 265 1039 vsl 15 64 0 1 0 0 empty empty empty 0 -9 0 10 -262144
-1 -1 0 1;
#X msg 372 1107 alpha \$1;
#X obj 371 1033 vsl 15 64 0 1 0 0 empty empty empty 0 -9 0 10 -262144
-1 -1 0 1;
#X obj 37 1159 qscreen uno;
#X msg 266 1109 size \$1;
#X obj 491 1030 vsl 15 64 0 1 0 0 empty empty empty 0 -9 0 10 -262144
-1 -1 0 1;
#X msg 492 1104 translateX \$1;
#X obj 676 1029 vsl 15 64 0 1 0 0 empty empty empty 0 -9 0 10 -262144
-1 -1 0 1;
#X msg 677 1103 translateY \$1;
#X obj 268 1163 vsl 15 64 0 1 0 0 empty empty empty 0 -9 0 10 -262144
-1 -1 0 1;
#X obj 453 1162 vsl 15 64 0 1 0 0 empty empty empty 0 -9 0 10 -262144
-1 -1 0 1;
#X msg 269 1237 rotateX \$1;
#X msg 454 1236 rotateY \$1;
#X msg 208 628 active \$1;
#X obj 208 598 tgl 15 0 empty empty empty 17 7 0 10 -262144 -1 -1 0
1;
#X obj 341 562 vsl 15 64 0 1 0 0 empty empty empty 0 -9 0 10 -262144
-1 -1 0 1;
#X msg 342 636 radius \$1;
#X msg 210 756 active \$1;
#X obj 210 726 tgl 15 0 empty empty empty 17 7 0 10 -262144 -1 -1 0
1;
#X obj 341 678 vsl 15 64 0 1 0 0 empty empty empty 0 -9 0 10 -262144
-1 -1 0 1;
#X msg 342 751 scale \$1;
#X obj 37 808 qfx-pixelate uno;
#X obj 37 682 qfx-lightunnel uno;
#X msg 230 901 active \$1;
#X obj 230 873 tgl 15 0 empty empty empty 17 7 0 10 -262144 -1 -1 0
1;
#X obj 35 944 qfx-laplace uno;
#X obj 366 802 vsl 15 64 0 1 0 0 empty empty empty 0 -9 0 10 -262144
-1 -1 0 1;
#X obj 395 800 vsl 15 64 0 1 0 0 empty empty empty 0 -9 0 10 -262144
-1 -1 0 1;
#X obj 425 800 vsl 15 64 0 1 0 0 empty empty empty 0 -9 0 10 -262144
-1 -1 0 1;
#X obj 364 944 pack f f f;
#X obj 425 872 t b f;
#X obj 397 907 t b f;
#X msg 364 979 color \$1 \$2 \$3;
#X obj 871 -124 qaudio, f 20;
#X obj 991 -47 bng 15 250 50 0 empty empty empty 17 7 0 10 -262144
-1 -1;
#X obj 318 -12 qtext uno;
#X msg 314 -64 font;
#X obj 378 -124 vsl 15 64 0 1 0 0 empty empty empty 0 -9 0 10 -262144
-1 -1 0 1;
#X msg 379 -50 size \$1;
#X obj 473 -188 vsl 15 64 0 1 0 0 empty empty empty 0 -9 0 10 -262144
-1 -1 0 1;
#X obj 502 -190 vsl 15 64 0 1 0 0 empty empty empty 0 -9 0 10 -262144
-1 -1 0 1;
#X obj 532 -190 vsl 15 64 0 1 0 0 empty empty empty 0 -9 0 10 -262144
-1 -1 0 1;
#X obj 471 -46 pack f f f;
#X obj 532 -118 t b f;
#X obj 504 -83 t b f;
#X msg 471 -11 color \$1 \$2 \$3;
#X msg 632 -40 read;
#X msg 678 -38 text ciao ciao;
#X msg 159 247 record \$1;
#X obj 159 229 tgl 15 0 empty empty empty 17 7 0 10 -262144 -1 -1 0
1;
#X obj 228 229 tgl 15 0 empty empty empty 17 7 0 10 -262144 -1 -1 0
1;
#X msg 228 247 play \$1;
#X msg 298 247 playtype normal;
#X msg 292 271 playtype palindrome;
#X msg 422 272 playtype random;
#X obj 541 211 vsl 15 64 0 1 0 0 empty empty empty 0 -9 0 10 -262144
-1 -1 0 1;
#X msg 403 249 playtype rewind;
#X msg 541 284 randomVelocity \$1;
#X obj 871 -95 vsl 15 64 0 1 0 0 empty empty empty 0 -9 0 10 -262144
-1 -1 0 1;
#X obj 910 -97 vsl 15 64 0 1 0 0 empty empty empty 0 -9 0 10 -262144
-1 -1 0 1;
#X obj 949 -97 vsl 15 64 0 1 0 0 empty empty empty 0 -9 0 10 -262144
-1 -1 0 1;
#X obj 29 287 qvideobuffer un;
#X obj 429 529 qfx-cartoon;
#X msg 489 503 active \$1;
#X obj 489 479 tgl 15 0 empty empty empty 17 7 0 10 -262144 -1 -1 0
1;
#X obj 541 532 qfx-primaries uno;
#X msg 639 507 active \$1;
#X obj 639 483 tgl 15 0 empty empty empty 17 7 0 10 -262144 -1 -1 0
1;
#X obj 701 539 qfx-nois0r;
#X msg 765 517 active \$1;
#X obj 765 493 tgl 15 0 empty empty empty 17 7 0 10 -262144 -1 -1 0
1;
#X obj 851 538 qfx-partik0l;
#X msg 941 516 active \$1;
#X obj 941 492 tgl 15 0 empty empty empty 17 7 0 10 -262144 -1 -1 0
1;
#X obj 1019 444 vsl 15 64 0 1 0 0 empty empty empty 0 -9 0 10 -262144
-1 -1 0 1;
#X msg 1020 518 distance \$1;
#X obj 1089 548 qfx-nervous;
#X msg 1154 525 active \$1;
#X obj 1154 501 tgl 15 0 empty empty empty 17 7 0 10 -262144 -1 -1
0 1;
#X obj 1203 557 qfx-distort0r;
#X msg 1363 529 active \$1;
#X obj 1441 457 vsl 15 64 0 1 0 0 empty empty empty 0 -9 0 10 -262144
-1 -1 0 1;
#X obj 1552 459 vsl 15 64 0 1 0 0 empty empty empty 0 -9 0 10 -262144
-1 -1 0 1;
#X msg 1442 531 amplitude \$1;
#X msg 1553 533 frequency 41;
#X obj 1591 581 qfx-delay jjj;
#X msg 1708 540 active \$1;
#X obj 1787 471 vsl 15 64 0 1 0 0 empty empty empty 0 -9 0 10 -262144
-1 -1 0 1;
#X msg 1788 545 delay \$1;
#X obj 1805 592 qfx-invert u;
#X msg 1873 566 active \$1;
#X obj 1873 542 tgl 15 0 empty empty empty 17 7 0 10 -262144 -1 -1
0 1;
#X connect 0 0 2 0;
#X connect 4 0 3 0;
#X connect 6 0 5 1;
#X connect 7 0 6 0;
#X connect 8 0 5 1;
#X connect 9 0 8 0;
#X connect 10 0 11 0;
#X connect 11 0 5 1;
#X connect 12 0 13 0;
#X connect 13 0 5 1;
#X connect 14 0 5 1;
#X connect 15 0 14 0;
#X connect 17 0 16 1;
#X connect 18 0 17 0;
#X connect 19 0 51 0;
#X connect 20 0 19 1;
#X connect 21 0 20 0;
#X connect 22 0 23 0;
#X connect 23 0 19 1;
#X connect 24 0 26 0;
#X connect 25 0 27 0;
#X connect 26 0 19 1;
#X connect 27 0 19 1;
#X connect 28 0 32 1;
#X connect 29 0 33 0;
#X connect 30 0 32 1;
#X connect 31 0 30 0;
#X connect 33 0 32 1;
#X connect 34 0 35 0;
#X connect 35 0 32 1;
#X connect 36 0 37 0;
#X connect 37 0 32 1;
#X connect 38 0 40 0;
#X connect 39 0 41 0;
#X connect 40 0 32 1;
#X connect 41 0 32 1;
#X connect 42 0 51 1;
#X connect 43 0 42 0;
#X connect 44 0 45 0;
#X connect 45 0 51 1;
#X connect 46 0 50 1;
#X connect 47 0 46 0;
#X connect 48 0 49 0;
#X connect 49 0 50 1;
#X connect 50 0 54 0;
#X connect 51 0 50 0;
#X connect 52 0 54 1;
#X connect 53 0 52 0;
#X connect 55 0 58 0;
#X connect 56 0 60 0;
#X connect 57 0 59 0;
#X connect 58 0 61 0;
#X connect 59 0 55 0;
#X connect 59 1 58 2;
#X connect 60 0 55 0;
#X connect 60 1 58 1;
#X connect 61 0 54 1;
#X connect 62 0 87 0;
#X connect 62 1 88 0;
#X connect 62 2 89 0;
#X connect 62 3 63 0;
#X connect 65 0 64 0;
#X connect 66 0 67 0;
#X connect 67 0 64 0;
#X connect 68 0 71 0;
#X connect 69 0 73 0;
#X connect 70 0 72 0;
#X connect 71 0 74 0;
#X connect 72 0 68 0;
#X connect 72 1 71 2;
#X connect 73 0 68 0;
#X connect 73 1 71 1;
#X connect 74 0 64 0;
#X connect 75 0 64 0;
#X connect 76 0 64 0;
#X connect 77 0 90 1;
#X connect 78 0 77 0;
#X connect 79 0 80 0;
#X connect 80 0 90 1;
#X connect 81 0 90 1;
#X connect 82 0 90 1;
#X connect 83 0 90 1;
#X connect 84 0 86 0;
#X connect 85 0 90 1;
#X connect 86 0 90 1;
#X connect 90 0 32 0;
#X connect 92 0 91 1;
#X connect 93 0 92 0;
#X connect 95 0 94 1;
#X connect 96 0 95 0;
#X connect 98 0 97 1;
#X connect 99 0 98 0;
#X connect 101 0 100 1;
#X connect 102 0 101 0;
#X connect 103 0 104 0;
#X connect 104 0 100 1;
#X connect 106 0 105 1;
#X connect 107 0 106 0;
#X connect 109 0 108 1;
#X connect 110 0 112 0;
#X connect 111 0 113 0;
#X connect 112 0 108 1;
#X connect 113 0 108 1;
#X connect 115 0 114 1;
#X connect 116 0 117 0;
#X connect 117 0 114 1;
#X connect 119 0 118 1;
#X connect 120 0 119 0;
