#N canvas 738 297 1149 732 10;
#X declare -path libs/rj;
#X obj 262 89 adc~;
#X obj 206 373 env~ 8192;
#X obj 208 326 hip~ 115;
#X obj 476 -68 declare -path libs/rj;
#X obj 207 418 / 100;
#X obj 211 451 vsl 15 128 0 1 0 0 empty empty empty 0 -9 0 10 -262144
-1 -1 5456 1;
#X obj 206 299 lop~ 240;
#X obj 206 346 *~ 0.1;
#X obj 283 371 env~ 8192;
#X obj 284 416 / 100;
#X obj 288 448 vsl 15 128 0 1 0 0 empty empty empty 0 -9 0 10 -262144
-1 -1 3366 1;
#X obj 283 344 *~ 0.1;
#X obj 283 297 lop~ 315;
#X obj 285 325 hip~ 2500;
#X obj 359 367 env~ 8192;
#X obj 360 412 / 100;
#X obj 364 445 vsl 15 128 0 1 0 0 empty empty empty 0 -9 0 10 -262144
-1 -1 2850 1;
#X obj 359 340 *~ 0.1;
#X obj 361 321 hip~ 2500;
#X obj 359 293 lop~ 10000;
#X obj 476 -39 namecanvas \$1;
#X obj 547 189 inlet;
#X obj 283 393 - 35;
#X obj 545 210 route clearBass clearMiddle clearHigh;
#X obj 560 646 bng 20 250 50 0 empty empty empty 0 -6 0 10 -262144
-1 -1;
#X obj 535 603 fiddle~ 1024 1 20 3;
#X obj 536 566 *~ 5;
#X obj 215 696 outlet;
#X obj 557 677 outlet;
#X obj 291 695 outlet;
#X obj 372 695 outlet;
#X obj 359 389 - 44;
#X obj 206 392 - 40;
#X obj 258 125 *~ 10;
#X connect 0 0 33 0;
#X connect 0 1 33 0;
#X connect 1 0 32 0;
#X connect 2 0 7 0;
#X connect 2 0 26 0;
#X connect 4 0 5 0;
#X connect 5 0 27 0;
#X connect 6 0 2 0;
#X connect 7 0 1 0;
#X connect 8 0 22 0;
#X connect 9 0 10 0;
#X connect 10 0 29 0;
#X connect 11 0 8 0;
#X connect 12 0 13 0;
#X connect 13 0 11 0;
#X connect 14 0 31 0;
#X connect 15 0 16 0;
#X connect 16 0 30 0;
#X connect 17 0 14 0;
#X connect 18 0 17 0;
#X connect 19 0 18 0;
#X connect 21 0 23 0;
#X connect 22 0 9 0;
#X connect 23 0 32 1;
#X connect 23 1 22 1;
#X connect 23 2 31 1;
#X connect 24 0 28 0;
#X connect 25 1 24 0;
#X connect 26 0 25 0;
#X connect 31 0 15 0;
#X connect 32 0 4 0;
#X connect 33 0 6 0;
#X connect 33 0 19 0;
#X connect 33 0 12 0;
