#N canvas 0 87 607 535 10;
#X obj 152 195 inlet;
#X obj 152 217 outlet;
#X obj 281 197 inlet;
#X obj 60 109 namecanvas \$1;
#X obj 281 219 route r g b;
#X obj 302 278 s /q/screen/\$1/color/g;
#X obj 322 301 s /q/screen/\$1/color/b;
#X obj 282 255 s /q/screen/\$1/color/r;
#X connect 0 0 1 0;
#X connect 2 0 4 0;
#X connect 4 0 7 0;
#X connect 4 1 5 0;
#X connect 4 2 6 0;
