#N canvas 0 107 958 558 10;
#X declare -path libs/abs;
#X obj 189 123 inlet;
#X obj 196 270 expr 1-$f1;
#X obj 175 362 outlet;
#X obj 427 64 declare -path libs/abs;
#X obj 427 83 namecanvas \$1;
#X obj 432 179 inlet;
#X obj 154 292 spigot 1;
#X obj 229 296 spigot 0;
#X obj 204 324 pix_contrast;
#X obj 45 232 r /q/qfx/colorcorrection/\$1/active;
#X obj 492 229 min 1;
#X obj 492 251 max 0;
#X msg 532 253 load 0 1;
#X obj 492 295 s /q/qfx/colorcorrection/\$1/contrast;
#X obj 248 181 once;
#X obj 226 155 t a b;
#X obj 248 203 t b b;
#X obj 429 203 route active contrast saturation;
#X obj 241 361 r /q/qfx/colorcorrection/\$1/contrast;
#X obj 492 273 myscale 1 4;
#X obj 557 327 min 1;
#X obj 557 349 max 0;
#X msg 597 351 load 0 1;
#X obj 557 371 myscale 1 4;
#X obj 556 391 s /q/qfx/colorcorrection/\$1/saturation;
#X obj 270 401 r /q/qfx/colorcorrection/\$1/saturation;
#X connect 0 0 6 0;
#X connect 0 0 15 0;
#X connect 1 0 6 1;
#X connect 5 0 17 0;
#X connect 6 0 2 0;
#X connect 7 0 8 0;
#X connect 8 0 2 0;
#X connect 9 0 1 0;
#X connect 9 0 7 1;
#X connect 10 0 11 0;
#X connect 11 0 19 0;
#X connect 12 0 19 0;
#X connect 14 0 16 0;
#X connect 15 0 7 0;
#X connect 15 1 14 0;
#X connect 16 0 22 0;
#X connect 16 1 12 0;
#X connect 17 0 1 0;
#X connect 17 0 7 1;
#X connect 17 1 10 0;
#X connect 17 2 20 0;
#X connect 18 0 8 1;
#X connect 19 0 13 0;
#X connect 20 0 21 0;
#X connect 21 0 23 0;
#X connect 22 0 23 0;
#X connect 23 0 24 0;
#X connect 25 0 8 2;
