#N canvas 0 157 958 558 10;
#X obj 189 123 inlet;
#X obj 196 270 expr 1-$f1;
#X obj 154 499 outlet;
#X obj 427 83 namecanvas \$1;
#X obj 518 179 inlet;
#X obj 154 292 spigot 1;
#X obj 229 296 spigot 0;
#X obj 204 337 pix_contrast;
#X obj 45 232 r /q/qfx/colorcorrection/\$1/active;
#X obj 578 229 min 1;
#X obj 578 251 max 0;
#X msg 618 253 load 0 1;
#X obj 578 295 s /q/qfx/colorcorrection/\$1/contrast;
#X obj 248 181 once;
#X obj 226 155 t a b;
#X obj 248 203 t b b;
#X obj 643 327 min 1;
#X obj 643 349 max 0;
#X obj 642 391 s /q/qfx/colorcorrection/\$1/saturation;
#X obj 274 316 r /q/qfx/colorcorrection/\$1/saturation;
#X obj 250 371 r /q/qfx/colorcorrection/\$1/contrast;
#X obj 196 453 pix_frei0r /usr/lib/frei0r-1/brightness.so;
#X obj 445 429 r /q/qfx/colorcorrection/\$1/brightness;
#X obj 515 203 route active contrast saturation brightness;
#X obj 712 440 min 1;
#X obj 712 462 max 0;
#X obj 578 273 myscale 0 4;
#X obj 712 507 s /q/qfx/colorcorrection/\$1/brightness;
#X obj 202 408 pix_frei0r /usr/lib/frei0r-1/contrast0r.so;
#X connect 0 0 5 0;
#X connect 0 0 14 0;
#X connect 1 0 5 1;
#X connect 4 0 23 0;
#X connect 5 0 2 0;
#X connect 6 0 7 0;
#X connect 7 0 28 0;
#X connect 8 0 1 0;
#X connect 8 0 6 1;
#X connect 9 0 10 0;
#X connect 10 0 26 0;
#X connect 11 0 26 0;
#X connect 13 0 15 0;
#X connect 14 0 6 0;
#X connect 14 1 13 0;
#X connect 15 1 11 0;
#X connect 16 0 17 0;
#X connect 17 0 18 0;
#X connect 19 0 7 2;
#X connect 20 0 28 1;
#X connect 21 0 2 0;
#X connect 22 0 21 1;
#X connect 23 0 1 0;
#X connect 23 0 6 1;
#X connect 23 1 9 0;
#X connect 23 2 16 0;
#X connect 23 3 24 0;
#X connect 24 0 25 0;
#X connect 25 0 27 0;
#X connect 26 0 12 0;
#X connect 28 0 21 0;
