#N canvas 122 222 1143 567 10;
#X obj 306 178 gemhead 20;
#X obj 339 418 gemhead;
#X obj 339 443 pix_texture;
#X obj 306 243 color 1 0 0;
#X obj 341 491 outlet;
#X obj 650 519 triangle;
#X obj 717 520 circle;
#X obj 516 522 square;
#X obj 561 521 rectangle 2 1;
#X floatatom 598 223 5 0 0 0 - - -;
#X floatatom 751 436 5 0 0 0 - - -;
#X obj 769 519 trapezoid 1 2;
#X obj 560 402 gate 5;
#X obj 588 477 t f f;
#X obj 639 491 / 1.3333;
#X msg 773 188 draw fill;
#X msg 775 212 draw line;
#X msg 777 233 draw point;
#X obj 306 220 translateXYZ 0 0 -1.1;
#X obj 592 96 loadbang;
#X obj 587 128 initbang;
#X msg 590 162 0.2;
#X obj 836 39 inlet;
#X msg 556 292 1;
#X obj 836 60 route form size color draw;
#X obj 836 105 min 5;
#X obj 836 81 max 1;
#X obj 937 87 max 1;
#X obj 937 111 min 3;
#X msg 247 417 rectangle 1;
#X msg 879 177 load 0 1;
#X obj 877 153 loadbang;
#X obj 873 131 initbang;
#X obj 745 128 sel 1 2 3;
#X obj 878 201 libs/abs/myscale 0 5;
#X text 522 39 form;
#X text 523 52 size;
#X text 522 66 color;
#X text 523 82 draw;
#X obj 307 197 libs/abs/ev_buf \$1;
#N canvas 246 497 392 196 init 0;
#X obj 81 -236 loadbang;
#X obj 81 -212 list append \$1;
#X msg 81 -188 \; /q/qforms/\$1/form 1 \; /q/qforms/\$1/color 1 0 0
\; /q/qforms/\$1/size 0.5 \; /q/qforms/\$1/draw 1 \;;
#X connect 0 0 1 0;
#X connect 1 0 2 0;
#X restore 248 113 pd init;
#N canvas 144 97 633 305 osc 0;
#X obj 178 55 libs/kollabs/osc_bi q /q/qforms/\$1/form;
#X obj 178 78 libs/kollabs/osc_bi q /q/qforms/\$1/size;
#X obj 180 103 libs/kollabs/osc_bi q /q/qforms/\$1/color;
#X obj 180 126 libs/kollabs/osc_bi q /q/qforms/\$1/draw;
#X restore 248 89 pd osc;
#X obj 510 327 r /q/qforms/\$1/form;
#X obj 969 154 r /q/qforms/\$1/size;
#X obj 377 160 r /q/qforms/\$1/color;
#X obj 688 64 r /q/qforms/\$1/draw;
#X connect 0 0 39 0;
#X connect 1 0 2 0;
#X connect 2 0 4 0;
#X connect 3 0 12 1;
#X connect 9 0 7 1;
#X connect 9 0 5 1;
#X connect 9 0 6 1;
#X connect 9 0 10 0;
#X connect 9 0 13 0;
#X connect 10 0 11 1;
#X connect 12 0 7 0;
#X connect 12 1 8 0;
#X connect 12 2 5 0;
#X connect 12 3 6 0;
#X connect 12 4 11 0;
#X connect 13 0 8 1;
#X connect 13 1 14 0;
#X connect 14 0 8 2;
#X connect 15 0 7 0;
#X connect 15 0 8 0;
#X connect 15 0 5 0;
#X connect 15 0 6 0;
#X connect 15 0 11 0;
#X connect 16 0 7 0;
#X connect 16 0 8 0;
#X connect 16 0 5 0;
#X connect 16 0 6 0;
#X connect 16 0 11 0;
#X connect 17 0 7 0;
#X connect 17 0 8 0;
#X connect 17 0 5 0;
#X connect 17 0 11 0;
#X connect 17 0 6 0;
#X connect 18 0 3 0;
#X connect 19 0 21 0;
#X connect 19 0 23 0;
#X connect 20 0 21 0;
#X connect 20 0 23 0;
#X connect 21 0 9 0;
#X connect 22 0 24 0;
#X connect 23 0 12 0;
#X connect 24 0 26 0;
#X connect 24 1 34 0;
#X connect 24 2 3 1;
#X connect 24 3 27 0;
#X connect 25 0 12 0;
#X connect 26 0 25 0;
#X connect 27 0 28 0;
#X connect 28 0 33 0;
#X connect 29 0 2 0;
#X connect 30 0 34 0;
#X connect 31 0 30 0;
#X connect 32 0 30 0;
#X connect 33 0 15 0;
#X connect 33 1 16 0;
#X connect 33 2 17 0;
#X connect 34 0 9 0;
#X connect 39 0 18 0;
#X connect 39 1 2 1;
#X connect 42 0 12 0;
#X connect 43 0 34 0;
#X connect 44 0 3 1;
#X connect 45 0 33 0;
