#N canvas 413 215 450 384 10;
#X obj 104 101 hsl 110 12 0 1 0 0 empty frei0r-\$2 \$1 4 6 0 7 -262144
-1 -1 0 1;
#X obj 243 216 cnv 15 100 60 empty empty empty 20 12 0 14 -233017 -66577
0;
#X obj 106 227 pack;
#X obj 70 181 int \$2;
#X obj 124 148 float;
#X obj 69 151 t b b;
#X msg 92 274 #\$1 \$2;
#X obj 92 306 s effectslider;
#X connect 0 0 4 1;
#X connect 0 0 5 0;
#X connect 2 0 6 0;
#X connect 3 0 2 0;
#X connect 4 0 2 1;
#X connect 5 0 3 0;
#X connect 5 1 4 0;
#X connect 6 0 7 0;
#X coords 0 -1 1 1 117 14 2 100 100;
