#N canvas 28 124 1037 614 10;
#X obj 231 41 inlet;
#X obj 198 252 outlet;
#X obj 120 -3 tgl 15 0 empty empty empty 17 7 0 10 -262144 -1 -1 0
1;
#X obj 198 112 gate 2;
#X obj 202 79 + 1;
#X obj 231 211 pix_frei0r;
#X obj 141 -119 loadbang;
#X msg 141 -87 0;
#X obj 231 151 pix_rgba;
#X obj 426 -32 msgfile;
#X obj 21 -23 bng 16 250 50 0 empty empty empty 17 7 0 10 -262144 -1
-1;
#X msg 426 -63 rewind;
#X obj 426 25 symbol;
#X obj 56 -2 bng 15 250 50 0 empty empty empty 17 7 0 10 -262144 -1
-1;
#X text 342 1 activate;
#X symbolatom 426 -5 10 0 0 0 - - -;
#X obj 547 160 msgfile;
#X obj 323 -142 loadbang;
#X obj 322 -118 t b b;
#X text 491 -165 next;
#X msg 598 105 flush;
#X obj 307 308 cnv 15 30 30 empty test frei0r 20 12 0 12 -233017 -66577
0;
#X obj 317 176 r effectslider;
#X obj 638 193 + 1;
#X obj 616 170 t b;
#X floatatom 622 223 5 0 0 0 - - -;
#X obj 589 193 int;
#X msg 661 133 0;
#X obj 680 351 gate 2;
#X obj 728 194 loadbang;
#X msg 729 221 1;
#X obj 728 43 bng 15 250 50 0 empty empty empty 17 7 0 10 -262144 -1
-1;
#X msg 826 139 2;
#X obj 708 89 t b b b;
#X obj 415 54 symbol null;
#X obj 379 85 select symbol;
#X obj 352 19 t b b;
#X obj 621 43 bng 15 250 50 0 empty empty empty 17 7 0 10 -262144 -1
-1;
#X obj 655 -1 gate 2;
#X obj 702 -45 + 1;
#X obj 667 -23 t b;
#X obj 655 -45 int 1;
#X msg 762 -93 0;
#X msg 763 -70 1;
#X obj 655 -97 t b;
#X obj 512 106 symbol;
#X obj 612 72 t b b b;
#X obj 728 15 spigot;
#X msg 779 15 1;
#X text 809 13 only add first time;
#X text 745 41 remove old;
#X text 641 42 add new;
#X obj 609 260 * 17;
#X obj 655 -70 metro 800;
#X obj 604 290 pack s f f;
#X symbolatom 38 -23 16 0 0 0 - #0-efname -;
#X obj 496 -22 s \$0-efname;
#X msg 387 225 \; test gop_size 30;
#X msg 792 389 find \$1 \$3 \, cut \, editmode 0 \, vis 0;
#X msg 172 344 \$2;
#X obj 65 376 + 50;
#X msg 105 377 donecanvasdialog 0 0 2 0 -1 1 1 130 \$1 13 -30 \, dirty
0;
#X text 24 -3 load;
#X text 79 -3 active;
#X obj 663 226 + 1;
#X obj 809 -136 inlet;
#N canvas 198 177 450 300 setrange 0;
#X obj 72 5 inlet;
#X obj 116 156 s;
#X msg 153 78 symbol frei0r-\$1;
#X obj 72 41 unpack f f;
#X obj 81 99 float;
#X obj 171 114 t b;
#X connect 0 0 3 0;
#X connect 2 0 1 1;
#X connect 2 0 5 0;
#X connect 3 0 2 0;
#X connect 3 1 4 1;
#X connect 4 0 1 0;
#X connect 5 0 4 0;
#X restore 850 -62 pd setrange;
#X msg 543 -121 where;
#X msg 544 -87 goto \$1;
#X obj 473 -163 bng 15 250 50 0 empty empty empty 17 7 0 10 -262144
-1 -1;
#X obj 473 -145 bng 15 250 50 0 empty empty empty 17 7 0 10 -262144
-1 -1;
#X text 492 -146 prev;
#X obj 553 -67 t b;
#X obj 586 -110 - 2;
#X obj 809 -102 route status range prev next load;
#X msg 318 151 load libs/frei0r/\$1;
#X msg 323 -94 read libs/frei0r/effects.txt;
#X msg 482 131 read libs/frei0r/\$1.txt;
#X msg 577 388 obj 20 \$2 qfrei0r-slide-gui \$1 \$3;
#X obj 577 418 s pd-qfrei0r-gui.pd;
#X connect 0 0 3 1;
#X connect 2 0 4 0;
#X connect 3 0 1 0;
#X connect 3 1 8 0;
#X connect 4 0 3 0;
#X connect 5 0 1 0;
#X connect 6 0 7 0;
#X connect 7 0 2 0;
#X connect 8 0 5 0;
#X connect 9 0 15 0;
#X connect 9 0 56 0;
#X connect 9 1 11 0;
#X connect 9 1 73 0;
#X connect 10 0 9 0;
#X connect 11 0 9 0;
#X connect 12 0 34 1;
#X connect 12 0 35 0;
#X connect 13 0 36 0;
#X connect 15 0 12 1;
#X connect 16 0 24 0;
#X connect 16 0 54 0;
#X connect 17 0 18 0;
#X connect 18 0 11 0;
#X connect 18 1 76 0;
#X connect 20 0 16 0;
#X connect 22 0 5 0;
#X connect 23 0 26 1;
#X connect 24 0 26 0;
#X connect 25 0 64 0;
#X connect 26 0 23 0;
#X connect 26 0 25 0;
#X connect 27 0 26 1;
#X connect 28 0 78 0;
#X connect 28 0 59 0;
#X connect 28 1 58 0;
#X connect 29 0 30 0;
#X connect 30 0 28 0;
#X connect 31 0 33 0;
#X connect 32 0 28 0;
#X connect 33 0 20 0;
#X connect 33 1 27 0;
#X connect 33 2 32 0;
#X connect 34 0 35 1;
#X connect 35 1 75 0;
#X connect 35 1 45 1;
#X connect 35 1 44 0;
#X connect 36 0 12 0;
#X connect 36 1 34 0;
#X connect 37 0 46 0;
#X connect 38 0 47 0;
#X connect 38 1 42 0;
#X connect 38 1 43 0;
#X connect 38 1 37 0;
#X connect 39 0 41 1;
#X connect 40 0 38 1;
#X connect 41 0 39 0;
#X connect 41 0 38 0;
#X connect 41 0 40 0;
#X connect 42 0 53 0;
#X connect 43 0 41 1;
#X connect 44 0 53 0;
#X connect 45 0 77 0;
#X connect 46 0 20 0;
#X connect 46 1 27 0;
#X connect 46 1 30 0;
#X connect 46 2 45 0;
#X connect 46 2 48 0;
#X connect 47 0 31 0;
#X connect 48 0 47 1;
#X connect 52 0 54 1;
#X connect 53 0 41 0;
#X connect 54 0 28 1;
#X connect 57 0 79 0;
#X connect 58 0 79 0;
#X connect 59 0 60 0;
#X connect 60 0 61 0;
#X connect 61 0 79 0;
#X connect 64 0 52 0;
#X connect 64 0 54 2;
#X connect 65 0 74 0;
#X connect 67 0 9 0;
#X connect 68 0 9 0;
#X connect 68 0 72 0;
#X connect 69 0 9 0;
#X connect 70 0 67 0;
#X connect 72 0 9 0;
#X connect 73 0 68 0;
#X connect 74 0 2 0;
#X connect 74 1 66 0;
#X connect 74 2 70 0;
#X connect 74 3 69 0;
#X connect 74 4 13 0;
#X connect 75 0 5 0;
#X connect 76 0 9 0;
#X connect 77 0 16 0;
#X connect 78 0 79 0;
#X coords 0 -1 1 1 130 84 2 13 -30;
