#N canvas 0 122 863 529 10;
#X declare -path libs/abs;
#X obj 188 197 inlet;
#X obj 196 270 expr 1-$f1;
#X obj 175 362 outlet;
#X obj 427 64 declare -path libs/abs;
#X obj 427 83 namecanvas \$1;
#X obj 432 179 inlet;
#X obj 154 292 spigot 1;
#X obj 229 296 spigot 0;
#X obj 45 232 r /q/qfx/delay/\$1/active;
#X obj 433 207 route active delay;
#X obj 493 227 min 1;
#X obj 493 249 max 0;
#X msg 632 293 load 0 1;
#X obj 629 271 once;
#X obj 236 210 t b;
#X obj 358 390 r /q/qfx/delay/\$1/delay;
#X obj 359 413 min 1;
#X obj 359 435 max 0;
#X obj 172 327 pix_delay 5000;
#X obj 493 271 myscale 0 100;
#X connect 0 0 6 0;
#X connect 0 0 7 0;
#X connect 0 0 14 0;
#X connect 1 0 6 1;
#X connect 5 0 9 0;
#X connect 6 0 2 0;
#X connect 7 0 18 0;
#X connect 8 0 1 0;
#X connect 8 0 7 1;
#X connect 9 0 1 0;
#X connect 9 0 7 1;
#X connect 9 1 10 0;
#X connect 10 0 11 0;
#X connect 11 0 19 0;
#X connect 12 0 19 0;
#X connect 13 0 12 0;
#X connect 14 0 13 0;
#X connect 15 0 16 0;
#X connect 16 0 17 0;
#X connect 17 0 18 1;
#X connect 18 0 2 0;
#X connect 19 0 18 1;
