#N canvas 70 546 857 300 10;
#X declare -path libs/abs;
#X msg 168 260 1 0.3 0.4 0.5;
#X floatatom 268 228 5 0 0 0 - - -, f 5;
#X obj 86 1 inlet;
#X obj 87 342 outlet;
#X msg 159 239 0.7 0.9 0.2 0.5;
#X msg 152 219 0.4 1 0.2 0.9 0.3;
#X obj 268 161 i;
#X obj 297 161 + 1;
#X obj 268 113 tgl 15 0 empty vLap2 empty 17 7 0 10 -262144 -1 -1 0
1;
#X obj 268 134 metro 50;
#X obj 181 107 vsl 17 51 0 1 0 0 empty R1 empty 0 -9 0 10 -258113 -1
-1 0 1;
#X obj 204 108 vsl 17 51 0 1 0 0 empty G1 empty 0 -9 0 10 -4034 -1
-1 0 1;
#X obj 227 108 vsl 17 51 0 1 0 0 empty B1 empty 0 -9 0 10 -4032 -1
-1 0 1;
#X obj 172 177 bng 15 250 50 0 empty empty empty 17 7 0 10 -262144
-1 -1;
#X obj 87 320 libs/glsl/qfx laplace;
#X msg 367 286 width \$1;
#X obj 144 200 pack 0 0 0 1;
#X obj 390 151 inlet;
#X msg 324 318 offset \$1 \$2 \$3 1;
#N canvas 175 404 392 312 init 0;
#X obj 90 69 loadbang;
#X obj 90 93 list append \$1;
#X obj 86 42 inlet;
#X msg 90 119 \; /q/qfx/laplace/\$1/auto 1 \; /q/qfx/laplace/\$1/width
10 \; /q/qfx/laplace/\$1/color 1 0 0 \; /q/qfx/laplace/\$1/active 1
\;;
#X connect 0 0 1 0;
#X connect 1 0 3 0;
#X connect 2 0 1 0;
#X restore 258 58 pd init;
#X obj 368 239 r /q/qfx/laplace/\$1/width;
#X obj 326 262 r /q/qfx/laplace/\$1/color;
#X obj 268 91 r /q/qfx/laplace/\$1/auto;
#X obj 268 181 mod 100;
#X obj 465 203 * 100;
#X obj 27 274 spigot 0;
#X obj 101 278 spigot 1;
#X obj 69 252 expr 1-$f1;
#X obj 390 174 route color auto width active;
#X obj -56 231 r /q/qfx/laplace/\$1/active;
#X obj 727 286 namecanvas \$1;
#X obj 186 37 once;
#X obj 720 239 declare -path libs/abs;
#X obj 109 28 t b;
#X obj 186 61 t b b b b;
#X connect 0 0 18 0;
#X connect 1 0 15 0;
#X connect 2 0 26 0;
#X connect 2 0 25 0;
#X connect 2 0 33 0;
#X connect 4 0 18 0;
#X connect 5 0 18 0;
#X connect 6 0 7 0;
#X connect 6 0 23 0;
#X connect 7 0 6 1;
#X connect 8 0 9 0;
#X connect 9 0 6 0;
#X connect 10 0 16 0;
#X connect 11 0 13 0;
#X connect 11 0 16 1;
#X connect 12 0 13 0;
#X connect 12 0 16 2;
#X connect 13 0 16 0;
#X connect 14 0 3 0;
#X connect 15 0 14 1;
#X connect 16 0 18 0;
#X connect 17 0 28 0;
#X connect 18 0 14 1;
#X connect 20 0 15 0;
#X connect 21 0 18 0;
#X connect 22 0 8 0;
#X connect 23 0 1 0;
#X connect 24 0 15 0;
#X connect 25 0 3 0;
#X connect 26 0 14 0;
#X connect 27 0 25 1;
#X connect 28 0 18 0;
#X connect 28 1 8 0;
#X connect 28 2 24 0;
#X connect 28 3 27 0;
#X connect 28 3 26 1;
#X connect 29 0 27 0;
#X connect 29 0 26 1;
#X connect 31 0 34 0;
#X connect 33 0 31 0;
#X connect 34 0 10 0;
#X connect 34 1 11 0;
#X connect 34 2 12 0;
#X connect 34 3 19 0;
