#N canvas 0 97 1029 499 10;
#X declare -path libs/abs;
#X obj 188 197 inlet;
#X obj 196 270 expr 1-$f1;
#X obj 175 362 outlet;
#X obj 427 64 declare -path libs/abs;
#X obj 427 83 namecanvas \$1;
#X obj 432 179 inlet;
#X obj 154 292 spigot 1;
#X obj 229 296 spigot 0;
#X obj 433 205 route active amplitude frequency;
#X obj 495 261 max 0;
#X obj 496 236 min 1;
#X obj 557 263 max 0;
#X obj 558 238 min 1;
#X obj 171 325 pix_frei0r /usr/lib/frei0r-1/distort0r.so;
#X obj 45 232 r /q/qfx/distort0r/\$1/active;
#X obj 466 367 r /q/qfx/distort0r/\$1/frequency;
#X obj 465 418 max 0;
#X obj 466 393 min 1;
#X obj 513 440 max 0;
#X obj 514 415 min 1;
#X obj 514 389 r /q/qfx/distort0r/\$1/amplitude;
#X connect 0 0 6 0;
#X connect 0 0 7 0;
#X connect 1 0 6 1;
#X connect 5 0 8 0;
#X connect 6 0 2 0;
#X connect 7 0 13 0;
#X connect 8 0 1 0;
#X connect 8 0 7 1;
#X connect 8 1 10 0;
#X connect 8 2 12 0;
#X connect 9 0 13 1;
#X connect 10 0 9 0;
#X connect 11 0 13 2;
#X connect 12 0 11 0;
#X connect 13 0 2 0;
#X connect 14 0 1 0;
#X connect 14 0 7 1;
#X connect 15 0 17 0;
#X connect 16 0 13 2;
#X connect 17 0 16 0;
#X connect 18 0 13 2;
#X connect 19 0 18 0;
#X connect 20 0 19 0;
