#N canvas 276 234 975 412 10;
#X obj -17 234 outlet;
#X msg 421 230 dotdistance \$1;
#X obj 421 209 * 0.1;
#N canvas 12 367 1174 402 dotDist_presets 1;
#X obj -118 440 line;
#X obj -118 461 outlet;
#X obj -124 157 inlet;
#X msg -68 295 1;
#X obj -180 320 inlet;
#X msg -180 382 \$1;
#X obj -180 358 value;
#X obj -122 215 t b b;
#X obj -66 216 t b b;
#X obj 0 217 t b b;
#X obj 62 218 t b b;
#X obj 120 220 t b b;
#X obj 173 222 t b b;
#X obj 234 223 t b b;
#X obj 296 223 t b b;
#X obj 346 226 t b b;
#X obj 404 228 t b b;
#X obj 462 231 t b b;
#X obj 507 231 t b b;
#X obj 561 231 t b b;
#X obj 609 232 t b b;
#X obj 260 175 sel 0 1 2 3 4 5 6 7 8 9 10 11 12 13;
#X msg 0 298 8;
#X msg 56 301 16;
#X msg 117 301 32;
#X msg 170 302 64;
#X msg 231 302 128;
#X msg 292 302 256;
#X msg 339 302 512;
#X msg 400 302 1024;
#X msg 461 302 2048;
#X msg 507 302 4096;
#X msg 559 305 8192;
#X msg 605 305 16384;
#X msg -121 295 0.5;
#X msg 110 144 4;
#X msg 141 144 8;
#X obj 139 117 del;
#X obj 109 94 t b b b;
#X obj 178 118 del;
#X obj 189 92 * 1.3;
#X obj 395 117 del;
#X obj 365 94 t b b b;
#X obj 434 118 del;
#X obj 445 92 * 1.3;
#X msg 397 144 10;
#X msg 366 144 2;
#X obj 652 117 del;
#X obj 622 94 t b b b;
#X obj 691 118 del;
#X obj 702 92 * 1.3;
#X msg 623 144 2;
#X msg 654 144 5;
#X obj 322 -13 inlet;
#X obj 320 5 metro 700;
#X obj 314 51 sel 1 2 3;
#N canvas 0 82 450 300 counter 0;
#X obj 266 138 + 1;
#X obj 265 200 sel 3;
#X msg 266 224 1;
#X obj 223 107 bng 15 250 50 0 empty empty empty 17 7 0 10 -262144
-1 -1;
#X obj 229 86 inlet;
#X obj 227 138 f 1;
#X obj 221 187 outlet;
#X floatatom 209 166 5 0 0 0 - - -, f 5;
#X connect 0 0 5 1;
#X connect 1 0 2 0;
#X connect 2 0 5 1;
#X connect 3 0 5 0;
#X connect 4 0 3 0;
#X connect 5 0 0 0;
#X connect 5 0 1 0;
#X connect 5 0 7 0;
#X connect 7 0 6 0;
#X restore 316 27 pd counter;
#X connect 0 0 1 0;
#X connect 2 0 21 0;
#X connect 3 0 0 0;
#X connect 4 0 6 0;
#X connect 5 0 0 1;
#X connect 6 0 5 0;
#X connect 6 0 37 1;
#X connect 6 0 40 0;
#X connect 6 0 41 1;
#X connect 6 0 44 0;
#X connect 6 0 47 1;
#X connect 6 0 50 0;
#X connect 7 0 34 0;
#X connect 7 1 6 0;
#X connect 8 0 3 0;
#X connect 8 1 6 0;
#X connect 9 0 22 0;
#X connect 9 1 6 0;
#X connect 10 0 23 0;
#X connect 10 1 6 0;
#X connect 11 0 24 0;
#X connect 11 1 6 0;
#X connect 12 0 25 0;
#X connect 12 1 6 0;
#X connect 13 0 26 0;
#X connect 13 1 6 0;
#X connect 14 0 27 0;
#X connect 14 1 6 0;
#X connect 15 0 28 0;
#X connect 15 1 6 0;
#X connect 16 0 29 0;
#X connect 16 1 6 0;
#X connect 17 0 30 0;
#X connect 17 1 6 0;
#X connect 18 0 31 0;
#X connect 18 1 6 0;
#X connect 19 0 32 0;
#X connect 19 1 6 0;
#X connect 20 0 33 0;
#X connect 20 1 6 0;
#X connect 21 0 7 0;
#X connect 21 1 8 0;
#X connect 21 2 9 0;
#X connect 21 3 10 0;
#X connect 21 4 11 0;
#X connect 21 5 12 0;
#X connect 21 6 13 0;
#X connect 21 7 14 0;
#X connect 21 8 15 0;
#X connect 21 9 16 0;
#X connect 21 10 17 0;
#X connect 21 11 18 0;
#X connect 21 12 19 0;
#X connect 21 13 20 0;
#X connect 22 0 0 0;
#X connect 23 0 0 0;
#X connect 24 0 0 0;
#X connect 25 0 0 0;
#X connect 26 0 0 0;
#X connect 27 0 0 0;
#X connect 28 0 0 0;
#X connect 29 0 0 0;
#X connect 30 0 0 0;
#X connect 31 0 0 0;
#X connect 32 0 0 0;
#X connect 33 0 0 0;
#X connect 34 0 0 0;
#X connect 35 0 21 0;
#X connect 36 0 21 0;
#X connect 37 0 36 0;
#X connect 38 0 35 0;
#X connect 38 1 37 0;
#X connect 38 2 39 0;
#X connect 39 0 35 0;
#X connect 40 0 39 1;
#X connect 41 0 45 0;
#X connect 42 0 46 0;
#X connect 42 1 41 0;
#X connect 42 2 43 0;
#X connect 43 0 46 0;
#X connect 44 0 43 1;
#X connect 45 0 21 0;
#X connect 46 0 21 0;
#X connect 47 0 52 0;
#X connect 48 0 51 0;
#X connect 48 1 47 0;
#X connect 48 2 49 0;
#X connect 49 0 51 0;
#X connect 50 0 49 1;
#X connect 51 0 21 0;
#X connect 52 0 21 0;
#X connect 53 0 54 0;
#X connect 54 0 56 0;
#X connect 55 0 38 0;
#X connect 55 1 42 0;
#X connect 55 2 48 0;
#X connect 56 0 55 0;
#X restore 420 103 pd dotDist_presets;
#X obj 420 45 vsl 15 51 500 6000 0 0 empty moveSpeed empty 0 -9 0 10
-262144 -1 -1 0 1;
#X obj -18 108 libs/glsl/qfx led;
#X obj 526 84 + 1;
#X obj 336 -103 inlet;
#X obj -62 -35 inlet;
#X obj -96 60 spigot 0;
#X obj -22 64 spigot 1;
#X obj -54 38 expr 1-$f1;
#X obj -179 17 r /q/qfx/led/\$1/active;
#X obj 461 23 libs/abs/myscale 500 6000;
#X msg 470 2 load 0 1;
#X obj 470 -19 loadbang;
#X obj 470 -41 initbang;
#X obj 471 -62 r /q/qfx/led/\$1/speed;
#X obj 565 46 r /q/qfx/led/\$1/preset;
#X obj 576 86 tgl 15 0 empty empty empty 17 7 0 10 -262144 -1 -1 0
1;
#X obj 338 -81 route distance active speed preset auto;
#X obj 625 102 r /q/qfx/led/\$1/auto;
#N canvas 329 465 392 196 init 0;
#X obj 81 -236 loadbang;
#X obj 81 -212 list append \$1;
#X msg 81 -188 \; /q/qfx/led/\$1/distance 0.1 \; /q/qfx/led/\$1/active
1 \; /q/qfx/led/\$1/preset 1 \; /q/qfx/led/\$1/speed 0.5 \; /q/qfx/led/\$1/auto
0 \;;
#X connect 0 0 1 0;
#X connect 1 0 2 0;
#X restore 100 -33 pd init;
#N canvas 148 87 633 305 osc 0;
#X obj 178 55 libs/kollabs/osc_bi q /q/qfx/led/\$1/distance;
#X obj 178 76 libs/kollabs/osc_bi q /q/qfx/led/\$1/active;
#X obj 178 98 libs/kollabs/osc_bi q /q/qfx/led/\$1/speed;
#X obj 178 119 libs/kollabs/osc_bi q /q/qfx/led/\$1/preset;
#X obj 182 138 libs/kollabs/osc_bi q /q/qfx/led/\$1/auto;
#X restore 100 -57 pd osc;
#X obj 336 156 * 100;
#X obj 335 83 max 0.1;
#X connect 1 0 5 1;
#X connect 2 0 1 0;
#X connect 3 0 2 0;
#X connect 4 0 3 0;
#X connect 5 0 0 0;
#X connect 6 0 3 1;
#X connect 7 0 20 0;
#X connect 8 0 9 0;
#X connect 8 0 10 0;
#X connect 9 0 0 0;
#X connect 10 0 5 0;
#X connect 11 0 9 1;
#X connect 12 0 11 0;
#X connect 12 0 10 1;
#X connect 13 0 3 0;
#X connect 14 0 13 0;
#X connect 15 0 14 0;
#X connect 17 0 4 0;
#X connect 19 0 3 2;
#X connect 20 0 25 0;
#X connect 20 1 11 0;
#X connect 20 1 10 1;
#X connect 20 2 13 0;
#X connect 20 3 6 0;
#X connect 20 4 3 2;
#X connect 21 0 3 2;
#X connect 24 0 1 0;
#X connect 25 0 24 0;
