#N canvas 421 367 929 332 10;
#X obj 291 265 outlet;
#X obj 279 108 inlet;
#X obj 427 165 * 0.001;
#X msg 425 186 blur \$1;
#X msg 373 132 gain 1;
#X msg 432 133 200;
#X obj 291 224 libs/glsl/qfx bloom;
#X obj 365 84 t b b;
#X obj 365 58 metro 1000;
#X obj 365 13 initbang;
#X obj 365 35 loadbang;
#X obj 209 174 spigot 0;
#X obj 283 178 spigot 1;
#X obj 251 152 expr 1-$f1;
#X obj 619 92 route active;
#X obj 616 63 inlet;
#X obj 205 63 r /q/qfx/bloom/\$1/active;
#N canvas 190 379 392 196 init 0;
#X obj 81 -236 loadbang;
#X obj 81 -212 list append \$1;
#X msg 81 -185 \; /q/qfx/bloom/\$1/active 1 \;;
#X connect 0 0 1 0;
#X connect 1 0 2 0;
#X restore 707 97 pd init;
#N canvas 148 87 633 305 osc 0;
#X obj 176 93 libs/kollabs/osc_bi q /q/qfx/bloom/\$1/active;
#X restore 707 73 pd osc;
#X connect 1 0 11 0;
#X connect 1 0 12 0;
#X connect 2 0 3 0;
#X connect 3 0 6 1;
#X connect 4 0 6 1;
#X connect 5 0 2 0;
#X connect 6 0 0 0;
#X connect 7 0 5 0;
#X connect 7 1 4 0;
#X connect 8 0 7 0;
#X connect 10 0 8 0;
#X connect 11 0 0 0;
#X connect 12 0 6 0;
#X connect 13 0 11 1;
#X connect 14 0 13 0;
#X connect 14 0 12 1;
#X connect 15 0 14 0;
#X connect 16 0 13 0;
#X connect 16 0 12 1;
