#N canvas 0 102 706 500 10;
#X declare -path libs/abs;
#X obj 188 197 inlet;
#X obj 196 270 expr 1-$f1;
#X obj 175 362 outlet;
#X obj 427 64 declare -path libs/abs;
#X obj 427 83 namecanvas \$1;
#X obj 432 179 inlet;
#X obj 171 325 pix_frei0r /usr/lib/frei0r-1/partik0l.so;
#X obj 45 232 r /q/qfx/partik0l/\$1/active;
#X obj 433 205 route active distance;
#X obj 493 227 min 1;
#X obj 493 249 max 0.001;
#X obj 154 292 spigot 1;
#X obj 229 296 spigot 0;
#X obj 480 316 r /q/qfx/partik0l/\$1/distance;
#X obj 479 342 min 1;
#X obj 479 364 max 0.001;
#X connect 0 0 11 0;
#X connect 0 0 12 0;
#X connect 1 0 11 1;
#X connect 5 0 8 0;
#X connect 6 0 2 0;
#X connect 7 0 1 0;
#X connect 7 0 12 1;
#X connect 8 0 1 0;
#X connect 8 0 12 1;
#X connect 8 1 9 0;
#X connect 9 0 10 0;
#X connect 10 0 6 2;
#X connect 11 0 2 0;
#X connect 12 0 6 0;
#X connect 13 0 14 0;
#X connect 14 0 15 0;
#X connect 15 0 6 2;
