#N canvas 95 237 450 300 10;
#X floatatom 237 195 5 0 0 0 - - -, f 5;
#X msg 236 238 width \$1;
#X obj 237 216 * 0.1;
#X floatatom 213 120 5 0 0 0 - - -, f 5;
#X obj 213 141 * 0.1;
#X msg 212 163 height \$1;
#X obj 116 149 inlet;
#X obj 117 285 outlet;
#X obj 218 85 r Vsob1;
#X obj 292 166 r Vsob2;
#X obj 117 255 libs/glsl/qfx sobel;
#X connect 0 0 2 0;
#X connect 1 0 10 1;
#X connect 2 0 1 0;
#X connect 3 0 4 0;
#X connect 4 0 5 0;
#X connect 5 0 10 1;
#X connect 6 0 10 0;
#X connect 8 0 3 0;
#X connect 9 0 0 0;
#X connect 10 0 7 0;
