#N canvas 4 81 450 300 10;
#X obj 106 48 gemhead;
#X msg 200 105 swap \$1;
#X obj 198 83 tgl 15 0 empty empty empty 17 7 0 10 -262144 -1 -1 0
1;
#X obj 106 140 a_shad threshhold;
#N canvas 0 22 450 300 a_var2 0;
#X obj 50 1 inlet;
#X obj 100 1 inlet;
#X obj 150 1 inlet;
#X obj 200 1 inlet;
#X obj 50 50 * 0.1;
#X obj 100 50 * 0.1;
#X obj 150 50 * 0.1;
#X obj 200 50 * 0.1;
#X obj 50 100 t b a;
#X obj 100 100 t b a;
#X obj 150 100 t b a;
#X obj 200 100 t b a;
#X obj 100 150 symbol thresh;
#X obj 100 200 pack s 0 0 0 0 0 0 0;
#X obj 100 250 a_modVar;
#X obj 100 300 outlet;
#X connect 0 0 4 0;
#X connect 1 0 5 0;
#X connect 2 0 6 0;
#X connect 3 0 7 0;
#X connect 4 0 8 0;
#X connect 5 0 9 0;
#X connect 6 0 10 0;
#X connect 7 0 11 0;
#X connect 8 0 12 0;
#X connect 8 1 13 1;
#X connect 9 0 12 0;
#X connect 9 1 13 2;
#X connect 10 0 12 0;
#X connect 10 1 13 3;
#X connect 11 0 12 0;
#X connect 11 1 13 4;
#X connect 12 0 13 0;
#X connect 13 0 14 0;
#X connect 14 0 15 0;
#X restore 258 106 pd a_var2 thresh;
#X floatatom 243 76 5 0 0 0 - - -;
#X floatatom 287 76 5 0 0 0 - - -;
#X floatatom 323 76 5 0 0 0 - - -;
#X floatatom 367 76 5 0 0 0 - - -;
#X obj 106 25 inlet;
#X obj 106 169 outlet;
#X obj 242 42 r Vthr1;
#X obj 292 42 r Vthr2;
#X obj 342 42 r Vthr3;
#X obj 174 41 r Vthrswap;
#X connect 0 0 3 0;
#X connect 1 0 3 1;
#X connect 2 0 1 0;
#X connect 3 0 10 0;
#X connect 4 0 3 1;
#X connect 5 0 4 0;
#X connect 6 0 4 1;
#X connect 7 0 4 2;
#X connect 8 0 4 3;
#X connect 9 0 0 0;
#X connect 11 0 5 0;
#X connect 12 0 6 0;
#X connect 13 0 7 0;
#X connect 14 0 2 0;
