#N canvas 0 107 972 661 10;
#X declare -path libs/abs;
#X obj 188 197 inlet;
#X obj 196 270 expr 1-$f1;
#X obj 175 362 outlet;
#X obj 427 64 declare -path libs/abs;
#X obj 427 83 namecanvas \$1;
#X obj 429 204 route active;
#X obj 432 179 inlet;
#X obj 171 324 pix_frei0r /usr/lib/frei0r-1/primaries.so;
#X obj 45 232 r /q/qfx/primaries/\$1/active;
#X obj 154 292 spigot 1;
#X obj 228 296 spigot 0;
#X connect 0 0 9 0;
#X connect 0 0 10 0;
#X connect 1 0 9 1;
#X connect 5 0 1 0;
#X connect 5 0 10 1;
#X connect 6 0 5 0;
#X connect 7 0 2 0;
#X connect 8 0 1 0;
#X connect 8 0 10 1;
#X connect 9 0 2 0;
#X connect 10 0 7 0;
