#N canvas 0 499 450 300 10;
#X declare -path libs/abs;
#X obj 100 181 outlet;
#X obj 105 22 inlet;
#X obj 100 146 libs/glsl/qfx pixelate;
#X msg 283 19 load 0 1;
#X obj 283 -2 loadbang;
#N canvas 178 399 392 196 init 0;
#X obj 90 80 loadbang;
#X obj 90 104 list append \$1;
#X obj 195 35 inlet;
#X obj 195 79 once;
#X obj 195 55 t b;
#X msg 90 129 \; /q/qfx/pixelate/\$1/scale 1 \; /q/qfx/pixelate/\$1/active
0 \;;
#X connect 0 0 1 0;
#X connect 1 0 5 0;
#X connect 2 0 4 0;
#X connect 3 0 1 0;
#X connect 4 0 3 0;
#X restore 90 -42 pd init;
#X obj 284 96 r /q/qfx/pixelate/\$1/scale;
#X msg 229 124 scale \$1;
#X obj 229 -92 inlet;
#X obj 71 117 spigot 0;
#X obj 145 121 spigot 1;
#X obj 113 95 expr 1-$f1;
#X obj -12 74 r /q/qfx/pixelate/\$1/active;
#X obj 229 -72 route scale active;
#X msg 235 75 5;
#X obj 57 -66 declare -path libs/abs;
#X obj 283 41 myscale 1 380;
#X obj 108 -9 namecanvas \$1;
#X obj 361 -7 once;
#X connect 1 0 9 0;
#X connect 1 0 10 0;
#X connect 1 0 5 0;
#X connect 1 0 18 0;
#X connect 2 0 0 0;
#X connect 3 0 16 0;
#X connect 4 0 3 0;
#X connect 6 0 16 0;
#X connect 7 0 2 1;
#X connect 8 0 13 0;
#X connect 9 0 0 0;
#X connect 10 0 2 0;
#X connect 11 0 9 1;
#X connect 12 0 11 0;
#X connect 12 0 10 1;
#X connect 13 0 16 0;
#X connect 13 1 10 1;
#X connect 13 1 11 0;
#X connect 14 0 7 0;
#X connect 16 0 7 0;
#X connect 18 0 3 0;
