#N canvas 1 469 647 300 10;
#X msg 337 224 radius \$1;
#X obj 427 34 route radius active;
#X obj 178 117 inlet;
#X obj 144 212 spigot 0;
#X obj 218 216 spigot 1;
#X obj 186 190 expr 1-$f1;
#X obj 161 244 libs/glsl/qfx lighttunnel;
#X obj 165 282 outlet;
#X obj 61 169 r /q/qfx/lightunnel/\$1/active;
#X obj 428 11 inlet;
#X msg 425 116 load 0 1;
#X obj 425 75 initbang;
#X obj 425 95 loadbang;
#X obj 426 55 r /q/qfx/lightunnel/\$1/radius;
#N canvas 191 380 392 196 init 0;
#X obj 81 -236 loadbang;
#X obj 81 -212 list append \$1;
#X msg 81 -187 \; /q/qfx/lightunnel/\$1/radius 0.5 \; /q/qfx/lightunnel/\$1/active
1 \;;
#X connect 0 0 1 0;
#X connect 1 0 2 0;
#X restore 255 52 pd init;
#N canvas 149 88 633 305 osc 0;
#X obj 178 55 libs/kollabs/osc_bi q /q/qfx/lighttunnel/\$1/radius;
#X obj 178 76 libs/kollabs/osc_bi q /q/qfx/lightunnel/\$1/active;
#X restore 255 28 pd osc;
#X obj 425 139 libs/abs/myscale 1300 700;
#X connect 0 0 6 1;
#X connect 1 0 16 0;
#X connect 1 1 5 0;
#X connect 1 1 4 1;
#X connect 2 0 3 0;
#X connect 2 0 4 0;
#X connect 3 0 7 0;
#X connect 4 0 6 0;
#X connect 5 0 3 1;
#X connect 6 0 7 0;
#X connect 8 0 5 0;
#X connect 8 0 4 1;
#X connect 9 0 1 0;
#X connect 10 0 16 0;
#X connect 12 0 10 0;
#X connect 13 0 16 0;
#X connect 16 0 0 0;
