#N canvas 4 81 450 300 10;
#X obj 117 120 gemhead;
#X floatatom 237 116 5 0 0 0 - - -;
#X floatatom 298 115 5 0 0 0 - - -;
#X obj 117 154 a_shad stretch;
#N canvas 0 22 450 300 a_var2 0;
#X obj 50 1 inlet;
#X obj 100 1 inlet;
#X obj 50 100 t b a;
#X obj 100 100 t b a;
#X obj 100 150 symbol width;
#X obj 100 200 pack s 0 0 0 0 0 0 0;
#X obj 100 250 a_modVar;
#X obj 100 300 outlet;
#X obj 100 50 * 1;
#X obj 50 50 * 1;
#X connect 0 0 9 0;
#X connect 1 0 8 0;
#X connect 2 0 4 0;
#X connect 2 1 5 1;
#X connect 3 0 4 0;
#X connect 3 1 5 2;
#X connect 4 0 5 0;
#X connect 5 0 6 0;
#X connect 6 0 7 0;
#X connect 8 0 3 0;
#X connect 9 0 2 0;
#X restore 237 137 pd a_var2 width;
#N canvas 0 22 450 300 a_var3 0;
#X obj 50 1 inlet;
#X obj 100 1 inlet;
#X obj 50 100 t b a;
#X obj 100 100 t b a;
#X obj 100 150 symbol origin;
#X obj 100 200 pack s 0 0 0 0 0 0 0;
#X obj 100 250 a_modVar;
#X obj 100 300 outlet;
#X obj 100 50 * 1;
#X obj 50 50 * 1;
#X connect 0 0 9 0;
#X connect 1 0 8 0;
#X connect 2 0 4 0;
#X connect 2 1 5 1;
#X connect 3 0 4 0;
#X connect 3 1 5 2;
#X connect 4 0 5 0;
#X connect 5 0 6 0;
#X connect 6 0 7 0;
#X connect 8 0 3 0;
#X connect 9 0 2 0;
#X restore 339 138 pd a_var3 origin;
#X floatatom 343 106 5 0 0 0 - - -;
#X floatatom 387 106 5 0 0 0 - - -;
#X obj 117 93 inlet;
#X obj 117 194 outlet;
#X msg 260 22 600;
#X obj 288 45 line;
#X msg 309 22 500;
#X msg 223 21 40;
#X msg 389 26 600;
#X obj 417 49 line;
#X msg 438 26 500;
#X msg 352 25 40;
#X msg 199 54 600;
#X obj 227 77 line;
#X msg 248 54 500;
#X msg 162 53 40;
#X connect 0 0 3 0;
#X connect 1 0 4 0;
#X connect 2 0 4 1;
#X connect 3 0 9 0;
#X connect 4 0 3 1;
#X connect 5 0 3 1;
#X connect 6 0 5 0;
#X connect 7 0 5 1;
#X connect 8 0 0 0;
#X connect 10 0 11 0;
#X connect 11 0 2 0;
#X connect 12 0 11 1;
#X connect 13 0 11 0;
#X connect 14 0 15 0;
#X connect 15 0 7 0;
#X connect 16 0 15 1;
#X connect 17 0 15 0;
#X connect 18 0 19 0;
#X connect 19 0 1 0;
#X connect 20 0 19 1;
#X connect 21 0 19 0;
