#N canvas 0 92 715 470 10;
#X declare -path libs/abs;
#X obj 188 197 inlet;
#X obj 196 270 expr 1-$f1;
#X obj 175 362 outlet;
#X obj 427 64 declare -path libs/abs;
#X obj 427 83 namecanvas \$1;
#X obj 432 179 inlet;
#X obj 154 292 spigot 1;
#X obj 229 296 spigot 0;
#X obj 171 325 pix_frei0r /usr/lib/frei0r-1/nervous.so;
#X obj 433 205 route active;
#X obj 45 232 r /q/qfx/nervous/\$1/active;
#X connect 0 0 6 0;
#X connect 0 0 7 0;
#X connect 1 0 6 1;
#X connect 5 0 9 0;
#X connect 6 0 2 0;
#X connect 7 0 8 0;
#X connect 8 0 2 0;
#X connect 9 0 1 0;
#X connect 9 0 7 1;
#X connect 10 0 1 0;
#X connect 10 0 7 1;
