#N canvas 659 470 647 300 10;
#X declare -path libs/abs;
#X msg 337 224 radius \$1;
#X obj 427 34 route radius active;
#X obj 178 117 inlet;
#X obj 144 212 spigot 0;
#X obj 218 216 spigot 1;
#X obj 186 190 expr 1-$f1;
#X obj 161 244 libs/glsl/qfx lighttunnel;
#X obj 165 282 outlet;
#X obj 61 169 r /q/qfx/lightunnel/\$1/active;
#X obj 428 11 inlet;
#X msg 425 116 load 0 1;
#X obj 425 95 loadbang;
#X obj 426 55 r /q/qfx/lightunnel/\$1/radius;
#N canvas 166 206 392 196 init 0;
#X obj 81 58 loadbang;
#X obj 81 82 list append \$1;
#X obj 86 26 inlet;
#X msg 81 107 \; /q/qfx/lightunnel/\$1/radius 0 \; /q/qfx/lightunnel/\$1/active
1 \;;
#X connect 0 0 1 0;
#X connect 1 0 3 0;
#X connect 2 0 1 0;
#X restore 261 127 pd init;
#X obj 255 27 declare -path libs/abs;
#X obj 425 139 myscale 1300 700;
#X obj 255 46 namecanvas \$1;
#X obj 256 80 t b;
#X obj 256 102 once;
#X connect 0 0 6 1;
#X connect 1 0 15 0;
#X connect 1 1 5 0;
#X connect 1 1 4 1;
#X connect 2 0 3 0;
#X connect 2 0 4 0;
#X connect 2 0 17 0;
#X connect 3 0 7 0;
#X connect 4 0 6 0;
#X connect 5 0 3 1;
#X connect 6 0 7 0;
#X connect 8 0 5 0;
#X connect 8 0 4 1;
#X connect 9 0 1 0;
#X connect 10 0 15 0;
#X connect 11 0 10 0;
#X connect 12 0 15 0;
#X connect 15 0 0 0;
#X connect 17 0 18 0;
#X connect 18 0 13 0;
