#N canvas 5 82 450 300 10;
#X obj 85 113 outlet;
#X obj 85 -38 inlet;
#X obj 86 82 libs/glsl/qfx blur;
#X obj 191 54 route blur;
#X obj 191 26 inlet;
#X connect 1 0 2 0;
#X connect 2 0 0 0;
#X connect 3 0 2 1;
#X connect 4 0 3 0;
