#N canvas 667 335 1247 598 10;
#X msg 260 266 1 0.3 0.4 0.5;
#X floatatom 360 234 5 0 0 0 - - -, f 5;
#X obj 178 7 inlet;
#X obj 179 348 outlet;
#X msg 251 245 0.7 0.9 0.2 0.5;
#X msg 244 225 0.4 1 0.2 0.9 0.3;
#X obj 360 167 i;
#X obj 389 167 + 1;
#X obj 360 119 tgl 15 0 empty vLap2 empty 17 7 0 10 -262144 -1 -1 1
1;
#X obj 360 140 metro 50;
#X obj 273 113 vsl 17 51 0 1 0 0 empty R1 empty 0 -9 0 10 -258113 -1
-1 0 1;
#X obj 296 114 vsl 17 51 0 1 0 0 empty G1 empty 0 -9 0 10 -4034 -1
-1 0 1;
#X obj 319 114 vsl 17 51 0 1 0 0 empty B1 empty 0 -9 0 10 -4032 -1
-1 0 1;
#X obj 264 183 bng 15 250 50 0 empty empty empty 17 7 0 10 -262144
-1 -1;
#X obj 179 326 libs/glsl/qfx laplace;
#X msg 459 292 width \$1;
#X obj 236 206 pack 0 0 0 1;
#X obj 482 157 inlet;
#X msg 416 324 offset \$1 \$2 \$3 1;
#N canvas 172 409 392 312 init 1;
#X obj 90 69 loadbang;
#X obj 90 93 list append \$1;
#X obj 86 42 inlet;
#X msg 90 119 \; /q/qfx/laplace/\$1/auto 1 \; /q/qfx/laplace/\$1/width
10 \; /q/qfx/laplace/\$1/r 1 \; /q/qfx/laplace/\$1/g 1 \; /q/qfx/laplace/\$1/b
1 \; /q/qfx/laplace/\$1/active 1 \;;
#X connect 0 0 1 0;
#X connect 1 0 3 0;
#X connect 2 0 1 0;
#X restore 350 64 pd init;
#X obj 460 245 r /q/qfx/laplace/\$1/width;
#X obj 360 97 r /q/qfx/laplace/\$1/auto;
#X obj 360 187 mod 100;
#X obj 455 220 * 100;
#X obj 119 280 spigot 0;
#X obj 193 284 spigot 1;
#X obj 161 258 expr 1-$f1;
#X obj 36 237 r /q/qfx/laplace/\$1/active;
#X obj 819 292 namecanvas \$1;
#X obj 278 43 once;
#X obj 201 34 t b;
#X obj 278 67 t b b b b;
#X obj 535 210 s /q/qfx/laplace/\$1/active;
#X obj 483 180 route auto width active r g b;
#X obj 601 432 pack f f f;
#X obj 683 317 vsl 15 64 0 1 0 0 empty empty empty 0 -9 0 10 -262144
-1 -1 0 1;
#X obj 627 316 vsl 15 64 0 1 0 0 empty empty empty 0 -9 0 10 -262144
-1 -1 0 1;
#X obj 657 316 vsl 15 64 0 1 0 0 empty empty empty 0 -9 0 10 -262144
-1 -1 0 1;
#X obj 696 389 t b f;
#X obj 657 388 t b f;
#X obj 834 367 r /q/qfx/laplace/\$1/r;
#X obj 855 389 r /q/qfx/laplace/\$1/g;
#X obj 873 409 r /q/qfx/laplace/\$1/b;
#X connect 0 0 18 0;
#X connect 1 0 15 0;
#X connect 2 0 25 0;
#X connect 2 0 24 0;
#X connect 2 0 30 0;
#X connect 4 0 18 0;
#X connect 5 0 18 0;
#X connect 6 0 7 0;
#X connect 6 0 22 0;
#X connect 7 0 6 1;
#X connect 8 0 9 0;
#X connect 9 0 6 0;
#X connect 10 0 16 0;
#X connect 11 0 13 0;
#X connect 11 0 16 1;
#X connect 12 0 13 0;
#X connect 12 0 16 2;
#X connect 13 0 16 0;
#X connect 14 0 3 0;
#X connect 15 0 14 1;
#X connect 16 0 18 0;
#X connect 17 0 33 0;
#X connect 18 0 14 1;
#X connect 20 0 15 0;
#X connect 21 0 8 0;
#X connect 22 0 1 0;
#X connect 23 0 15 0;
#X connect 24 0 3 0;
#X connect 25 0 14 0;
#X connect 26 0 24 1;
#X connect 27 0 26 0;
#X connect 27 0 25 1;
#X connect 29 0 31 0;
#X connect 30 0 29 0;
#X connect 31 0 10 0;
#X connect 31 1 11 0;
#X connect 31 2 12 0;
#X connect 31 3 19 0;
#X connect 33 0 8 0;
#X connect 33 1 23 0;
#X connect 33 2 32 0;
#X connect 33 3 36 0;
#X connect 33 4 37 0;
#X connect 33 5 35 0;
#X connect 34 0 18 0;
#X connect 35 0 38 0;
#X connect 36 0 34 0;
#X connect 37 0 39 0;
#X connect 38 0 37 0;
#X connect 38 1 34 2;
#X connect 39 0 36 0;
#X connect 39 1 34 1;
#X connect 40 0 36 0;
#X connect 41 0 37 0;
#X connect 42 0 35 0;
