#N canvas 0 494 450 300 10;
#X obj 100 181 outlet;
#X obj 105 22 inlet;
#X obj 100 146 libs/glsl/qfx pixelate;
#X msg 283 19 load 0 1;
#X obj 283 -22 initbang;
#X obj 283 -2 loadbang;
#N canvas 190 379 392 196 init 0;
#X obj 81 -236 loadbang;
#X obj 81 -212 list append \$1;
#X msg 81 -187 \; /q/qfx/pixelate/\$1/scale 1 \; /q/qfx/pixelate/\$1/active
1 \;;
#X connect 0 0 1 0;
#X connect 1 0 2 0;
#X restore 90 -42 pd init;
#N canvas 150 89 633 305 osc 0;
#X obj 178 55 libs/kollabs/osc_bi q /q/qfx/pixelate/\$1/scale;
#X obj 178 76 libs/kollabs/osc_bi q /q/qfx/pixelate/\$1/active;
#X restore 90 -66 pd osc;
#X obj 284 96 r /q/qfx/pixelate/\$1/scale;
#X msg 229 124 scale \$1;
#X obj 229 -92 inlet;
#X obj 71 117 spigot 0;
#X obj 145 121 spigot 1;
#X obj 113 95 expr 1-$f1;
#X obj -12 74 r /q/qfx/pixelate/\$1/active;
#X obj 229 -72 route scale active;
#X obj 283 42 libs/abs/myscale 1 380;
#X msg 235 75 5;
#X connect 1 0 11 0;
#X connect 1 0 12 0;
#X connect 2 0 0 0;
#X connect 3 0 16 0;
#X connect 5 0 3 0;
#X connect 8 0 16 0;
#X connect 9 0 2 1;
#X connect 10 0 15 0;
#X connect 11 0 0 0;
#X connect 12 0 2 0;
#X connect 13 0 11 1;
#X connect 14 0 13 0;
#X connect 14 0 12 1;
#X connect 15 0 16 0;
#X connect 15 1 12 1;
#X connect 15 1 13 0;
#X connect 15 1 17 0;
#X connect 16 0 9 0;
#X connect 17 0 9 0;
