#N canvas 163 417 1023 663 10;
#X obj 704 131 openpanel;
#X obj 696 276 list trim;
#X obj 100 18 cnv 15 820 16 empty empty EXTENDED_VIEW_IMAGE_MODULE
2 8 0 14 -233017 -66577 0;
#X obj 100 39 cnv 15 360 60 empty empty creation_arguments: 5 12 0
12 -162280 -1 0;
#N canvas 183 380 392 196 init 0;
#X obj 78 55 loadbang;
#X obj 78 79 list append \$1;
#X msg 78 106 \; /q/qimage/\$1/filename <no_file_specified> \; /q/qimage/\$1/flip/horizontal
0 \; /q/qimage/\$1/flip/vertical 0 \;;
#X obj 190 31 inlet;
#X obj 190 53 once;
#X connect 0 0 1 0;
#X connect 1 0 2 0;
#X connect 3 0 4 0;
#X connect 4 0 1 0;
#X restore 515 138 pd init;
#X obj 696 254 list prepend set open;
#X obj 500 555 outlet gemlist;
#N canvas 255 476 499 288 flip_logic 0;
#X obj 93 109 t b f;
#X msg 73 201 both;
#X obj 244 237 outlet;
#X obj 194 109 t b f;
#X obj 174 131 <;
#X obj 174 153 sel 1;
#X msg 174 175 vertical;
#X obj 264 109 t b f;
#X obj 244 153 sel 1;
#X obj 244 131 >;
#X msg 244 175 horizontal;
#X obj 73 131 +;
#X obj 73 153 sel 2 0;
#X msg 92 176 none;
#X obj 73 47 r /q/qimage/\$1/flip/horizontal;
#X obj 194 73 r /q/qimage/\$1/flip/vertical;
#X connect 0 0 11 0;
#X connect 0 1 11 1;
#X connect 1 0 2 0;
#X connect 3 0 4 0;
#X connect 3 1 4 1;
#X connect 4 0 5 0;
#X connect 5 0 6 0;
#X connect 6 0 2 0;
#X connect 7 0 9 0;
#X connect 7 1 9 1;
#X connect 8 0 10 0;
#X connect 9 0 8 0;
#X connect 10 0 2 0;
#X connect 11 0 12 0;
#X connect 12 0 1 0;
#X connect 12 1 13 0;
#X connect 13 0 2 0;
#X connect 14 0 11 0;
#X connect 14 0 4 0;
#X connect 14 0 9 0;
#X connect 15 0 0 0;
#X connect 15 0 3 0;
#X connect 15 0 7 0;
#X restore 626 442 pd flip_logic;
#X text 103 61 1st: unique module ID;
#X text 103 77 2nd: save domain;
#X text 106 449 (c)2011 Peter Venus & Marian Weger \; /part of EXTENDED
VIEW toolkit/ gpl v3;
#X obj 500 388 pix_image;
#X msg 669 353 open /home/husk/Pictures/ok/talk.jpg;
#X obj 500 410 pix_separator;
#X obj 500 523 pix_flip;
#X obj 500 442 t a b;
#X obj 527 469 list prepend none;
#X text 636 471 Workaround for GEM bug.;
#X obj 527 491 list trim;
#X obj 669 230 t b a;
#X obj 522 200 route <no_file_specified>;
#X text 102 488 (c)2014 Luca Carrubb \; modified for pantaliQa-core/
gpl v3;
#X obj 291 221 route open horizontal vertical;
#X obj 291 198 inlet;
#X obj 291 244 s /q/qimage/\$1/open;
#X obj 704 109 r /q/qimage/\$1/open;
#X obj 704 154 s /q/qimage/\$1/filename;
#X obj 522 178 r /q/qimage/\$1/filename;
#X obj 500 35 gemhead;
#X text 244 134 open;
#X text 248 151 vertical;
#X text 248 164 horizontal;
#X obj 352 267 s /q/qimage/\$1/flip/horizontal;
#X obj 409 290 s /q/qimage/\$1/flip/vertical;
#X obj 122 544 namecanvas \$1;
#X obj 500 95 t a b;
#X obj 500 57 alpha 1;
#X connect 0 0 26 0;
#X connect 1 0 12 0;
#X connect 5 0 1 0;
#X connect 7 0 16 1;
#X connect 11 0 13 0;
#X connect 12 0 11 0;
#X connect 13 0 15 0;
#X connect 14 0 6 0;
#X connect 15 0 14 0;
#X connect 15 1 16 0;
#X connect 16 0 18 0;
#X connect 18 0 14 0;
#X connect 19 0 12 0;
#X connect 19 1 5 0;
#X connect 20 1 19 0;
#X connect 22 0 24 0;
#X connect 22 1 32 0;
#X connect 22 2 33 0;
#X connect 23 0 22 0;
#X connect 25 0 0 0;
#X connect 27 0 20 0;
#X connect 28 0 36 0;
#X connect 35 0 11 0;
#X connect 35 1 4 0;
#X connect 36 0 35 0;
#X coords 0 663 1 662 180 67 0;
