#N canvas 171 412 1023 663 10;
#X obj 520 174 openpanel;
#X obj 696 276 list trim;
#N canvas 177 390 392 196 init 0;
#X obj 78 55 loadbang;
#X obj 78 79 list append \$1;
#X obj 190 31 inlet;
#X obj 190 53 once;
#X msg 78 106 \; /q/qimage/\$1/flip/horizontal 0 \; /q/qimage/\$1/flip/vertical
0 \;;
#X connect 0 0 1 0;
#X connect 1 0 4 0;
#X connect 2 0 3 0;
#X connect 3 0 1 0;
#X restore 523 119 pd init;
#X obj 696 254 list prepend set open;
#X obj 500 555 outlet gemlist;
#X obj 500 388 pix_image;
#X msg 669 353 open /home/husk/Pictures/luca_5x5.jpg;
#X obj 500 410 pix_separator;
#X obj 500 523 pix_flip;
#X obj 669 230 t b a;
#X obj 522 200 route <no_file_specified>;
#X obj 291 198 inlet;
#X obj 291 244 s /q/qimage/\$1/open;
#X obj 520 152 r /q/qimage/\$1/open;
#X obj 500 35 gemhead;
#X obj 352 267 s /q/qimage/\$1/flip/horizontal;
#X obj 409 290 s /q/qimage/\$1/flip/vertical;
#X obj 122 544 namecanvas \$1;
#X obj 500 95 t a b;
#X obj 500 57 alpha 1;
#X text 102 488 (c)2014 Luca Carrubb \; modified for pantaliQa-core
;
#X obj 291 222 route open horizontal vertical load;
#X obj 592 489 r /q/qimage/\$1/flip/horizontal;
#X obj 591 512 symbol horizontal;
#X obj 545 431 r /q/qimage/\$1/flip/vertical;
#X obj 545 452 symbol vertical;
#X connect 0 0 10 0;
#X connect 1 0 6 0;
#X connect 3 0 1 0;
#X connect 5 0 7 0;
#X connect 6 0 5 0;
#X connect 7 0 8 0;
#X connect 8 0 4 0;
#X connect 9 0 6 0;
#X connect 9 1 3 0;
#X connect 10 1 9 0;
#X connect 11 0 21 0;
#X connect 13 0 0 0;
#X connect 14 0 19 0;
#X connect 18 0 5 0;
#X connect 18 1 2 0;
#X connect 19 0 18 0;
#X connect 21 0 12 0;
#X connect 21 1 15 0;
#X connect 21 2 16 0;
#X connect 21 3 10 0;
#X connect 22 0 23 0;
#X connect 23 0 8 1;
#X connect 24 0 25 0;
#X connect 25 0 8 1;
#X coords 0 663 1 662 180 67 0;
