#N canvas 24 164 472 560 10;
#X obj -2302 330 gemlist;
#X obj -2302 309 until;
#X obj -2302 428 scaleXYZ 0.9 0.9 0.9;
#X obj -2286 228 route gem_state;
#X obj -2286 207 t a a;
#X obj -2302 383 translateXYZ 0.5 0 0;
#X msg -2302 289 15;
#X floatatom -2239 339 5 0 0 0 - - -, f 5;
#X obj -2286 248 route float;
#X obj -2287 182 inlet;
#X obj -2301 455 outlet;
#X msg -2064 273 set \$1;
#X obj -2301 406 rotateXYZ 0 0 31;
#X msg -2189 16 load 0 1;
#X obj -2190 -6 loadbang;
#X msg -2189 101 load 0 1;
#X obj -2190 79 loadbang;
#X msg -2186 191 load 0 1;
#X obj -2187 169 loadbang;
#X obj -2064 209 route repetition rotX rotY rotZ;
#X obj -2063 180 inlet;
#N canvas 9 138 392 196 init 0;
#X obj 81 -236 loadbang;
#X obj 81 -212 list append \$1;
#X msg 81 -188 \; /q/repetition/\$1/repetition 5 \; /q/repetition/\$1/rotX
0.5 \; /q/repetition/\$1/rotY 0.5 \; /q/repetition/\$1/rotZ 0.5 \;
;
#X connect 0 0 1 0;
#X connect 1 0 2 0;
#X restore -2314 96 pd init;
#N canvas 144 97 633 305 osc 0;
#X obj 178 55 libs/kollabs/osc_bi q /q/repetition/\$1/repetition;
#X obj 181 74 libs/kollabs/osc_bi q /q/repetition/\$1/rotX;
#X obj 183 96 libs/kollabs/osc_bi q /q/repetition/\$1/rotY;
#X obj 183 120 libs/kollabs/osc_bi q /q/repetition/\$1/rotZ;
#X restore -2314 72 pd osc;
#X obj -2064 244 r /q/reperition/\$1/repetition;
#X obj -2190 -28 initbang;
#X obj -2189 58 initbang;
#X obj -2187 145 initbang;
#X obj -2060 60 r /q/reperition/\$1/rotX;
#X obj -2055 118 r /q/reperition/\$1/rotZ;
#X obj -2057 86 r /q/reperition/\$1/rotY;
#X obj -2191 38 libs/abs/myscale 0 360;
#X obj -2190 123 libs/abs/myscale 0 360;
#X obj -2187 212 libs/abs/myscale 0 360;
#X connect 0 0 5 0;
#X connect 1 0 0 0;
#X connect 2 0 10 0;
#X connect 3 0 8 0;
#X connect 4 0 3 0;
#X connect 4 1 0 1;
#X connect 5 0 12 0;
#X connect 6 0 1 0;
#X connect 7 0 12 2;
#X connect 8 1 6 0;
#X connect 9 0 4 0;
#X connect 11 0 6 0;
#X connect 12 0 2 0;
#X connect 13 0 30 0;
#X connect 14 0 13 0;
#X connect 15 0 31 0;
#X connect 16 0 15 0;
#X connect 17 0 32 0;
#X connect 18 0 17 0;
#X connect 19 0 11 0;
#X connect 19 1 30 0;
#X connect 19 2 31 0;
#X connect 19 3 32 0;
#X connect 20 0 19 0;
#X connect 23 0 11 0;
#X connect 27 0 30 0;
#X connect 28 0 32 0;
#X connect 29 0 31 0;
#X connect 30 0 12 1;
#X connect 31 0 12 2;
#X connect 32 0 12 3;
#X coords 0 560 1 559 230 112 0;
