#N canvas 18 174 1592 813 10;
#X obj 292 521 gemlist;
#X obj 292 500 until;
#X obj 292 619 scaleXYZ 0.9 0.9 0.9;
#X obj 308 419 route gem_state;
#X obj 308 398 t a a;
#X obj 292 574 translateXYZ 0.5 0 0;
#X msg 292 480 5;
#X floatatom 355 530 5 0 0 0 - - -, f 5;
#X obj 308 439 route float;
#X obj 309 257 inlet;
#X obj 293 646 outlet;
#X msg 559 460 set \$1;
#X obj 293 597 rotateXYZ 0 0 31;
#X msg 405 207 load 0 1;
#X obj 404 185 loadbang;
#X msg 405 292 load 0 1;
#X obj 404 270 loadbang;
#X msg 408 382 load 0 1;
#X obj 407 360 loadbang;
#X obj 560 367 inlet;
#N canvas 0 153 392 196 init 0;
#X obj 82 68 loadbang;
#X obj 82 92 list append \$1;
#X obj 195 40 inlet;
#X obj 195 62 once;
#X obj 313 60 bng 15 250 50 0 empty empty empty 17 7 0 10 -262144 -1
-1;
#X msg 82 117 \; /q/reperition/\$1/repetition 5 \; /q/reperition/\$1/rotX
0.5 \; /q/reperition/\$1/rotY 0.5 \; /q/reperition/\$1/rotZ 0.5 \;
;
#X connect 0 0 1 0;
#X connect 1 0 5 0;
#X connect 2 0 3 0;
#X connect 3 0 1 0;
#X connect 4 0 1 0;
#X restore 326 362 pd init;
#X obj 559 431 r /q/reperition/\$1/repetition;
#X obj 534 251 r /q/reperition/\$1/rotX;
#X obj 539 309 r /q/reperition/\$1/rotZ;
#X obj 537 277 r /q/reperition/\$1/rotY;
#X obj 1326 436 namecanvas \$1;
#X obj 404 314 myscale 0 360;
#X obj 407 403 myscale 0 360;
#X obj 403 229 myscale 0 360;
#N canvas 624 319 450 300 auto 0;
#X obj 119 149 line;
#X obj 119 171 sel 360;
#X msg 245 252 0;
#X obj 225 226 t b b;
#X obj 207 58 del 30;
#X obj 106 -14 inlet;
#X obj 406 65 inlet;
#X obj 86 206 outlet;
#X obj 106 8 sel 0 1;
#X obj 108 35 t b;
#X msg 108 62 stop;
#X floatatom 57 164 5 0 0 0 - - -, f 5;
#X msg 131 110 360 5626.98;
#X obj 358 87 t b a b;
#X connect 0 0 1 0;
#X connect 0 0 7 0;
#X connect 0 0 11 0;
#X connect 1 0 3 0;
#X connect 2 0 0 0;
#X connect 3 0 4 0;
#X connect 3 1 2 0;
#X connect 4 0 12 0;
#X connect 5 0 8 0;
#X connect 6 0 13 0;
#X connect 8 0 9 0;
#X connect 8 1 12 0;
#X connect 9 0 10 0;
#X connect 10 0 0 0;
#X connect 12 0 0 0;
#X connect 13 0 12 0;
#X connect 13 1 12 0;
#X connect 13 2 10 0;
#X restore 812 526 pd auto;
#N canvas 618 329 450 300 auto 0;
#X obj 119 149 line;
#X obj 119 171 sel 360;
#X msg 245 252 0;
#X obj 225 226 t b b;
#X msg 131 110 360 5626.98;
#X obj 207 58 del 30;
#X obj 106 -14 inlet;
#X obj 406 65 inlet;
#X obj 86 206 outlet;
#X obj 106 8 sel 0 1;
#X obj 108 35 t b;
#X msg 108 62 stop;
#X floatatom 57 164 5 0 0 0 - - -, f 5;
#X obj 365 87 t b a b;
#X connect 0 0 1 0;
#X connect 0 0 8 0;
#X connect 0 0 12 0;
#X connect 1 0 3 0;
#X connect 2 0 0 0;
#X connect 3 0 5 0;
#X connect 3 1 2 0;
#X connect 4 0 0 0;
#X connect 5 0 4 0;
#X connect 6 0 9 0;
#X connect 7 0 13 0;
#X connect 9 0 10 0;
#X connect 9 1 4 0;
#X connect 10 0 11 0;
#X connect 11 0 0 0;
#X connect 13 0 4 0;
#X connect 13 1 4 0;
#X connect 13 2 11 0;
#X restore 753 521 pd auto;
#N canvas 627 314 450 300 auto 0;
#X obj 119 149 line;
#X obj 119 171 sel 360;
#X msg 245 252 0;
#X obj 225 226 t b b;
#X msg 131 110 360 5626.98;
#X obj 207 58 del 30;
#X obj 106 -14 inlet;
#X obj 406 65 inlet;
#X obj 86 206 outlet;
#X obj 106 8 sel 0 1;
#X obj 108 35 t b;
#X msg 108 62 stop;
#X floatatom 57 164 5 0 0 0 - - -, f 5;
#X obj 357 85 t b a b;
#X connect 0 0 1 0;
#X connect 0 0 8 0;
#X connect 0 0 12 0;
#X connect 1 0 3 0;
#X connect 2 0 0 0;
#X connect 3 0 5 0;
#X connect 3 1 2 0;
#X connect 4 0 0 0;
#X connect 5 0 4 0;
#X connect 6 0 9 0;
#X connect 7 0 13 0;
#X connect 9 0 10 0;
#X connect 9 1 4 0;
#X connect 10 0 11 0;
#X connect 11 0 0 0;
#X connect 13 0 4 0;
#X connect 13 1 4 0;
#X connect 13 2 11 0;
#X restore 691 524 pd auto;
#X obj 559 395 route repetition rotX rotY rotZ autoX autoY autoZ speed
;
#X obj 844 425 myscale 10000 500;
#X msg 846 464 set 360 \$1;
#X obj 309 279 t a b b;
#X obj 347 329 once;
#X connect 0 0 5 0;
#X connect 1 0 0 0;
#X connect 2 0 10 0;
#X connect 3 0 8 0;
#X connect 4 0 3 0;
#X connect 4 1 0 1;
#X connect 5 0 12 0;
#X connect 6 0 1 0;
#X connect 7 0 12 2;
#X connect 8 1 6 0;
#X connect 9 0 35 0;
#X connect 11 0 6 0;
#X connect 12 0 2 0;
#X connect 13 0 28 0;
#X connect 14 0 13 0;
#X connect 15 0 26 0;
#X connect 16 0 15 0;
#X connect 17 0 27 0;
#X connect 18 0 17 0;
#X connect 19 0 32 0;
#X connect 21 0 11 0;
#X connect 22 0 28 0;
#X connect 23 0 27 0;
#X connect 24 0 26 0;
#X connect 26 0 12 2;
#X connect 27 0 12 3;
#X connect 28 0 12 1;
#X connect 29 0 12 3;
#X connect 30 0 12 2;
#X connect 31 0 12 1;
#X connect 32 0 11 0;
#X connect 32 1 28 0;
#X connect 32 2 26 0;
#X connect 32 3 27 0;
#X connect 32 4 31 0;
#X connect 32 5 30 0;
#X connect 32 6 29 0;
#X connect 32 7 33 0;
#X connect 33 0 34 0;
#X connect 34 0 29 1;
#X connect 34 0 30 1;
#X connect 34 0 31 1;
#X connect 35 0 4 0;
#X connect 35 1 20 0;
#X connect 35 2 36 0;
#X connect 36 0 13 0;
#X connect 36 0 15 0;
#X connect 36 0 17 0;
#X coords 0 813 1 812 230 112 0;
