#N canvas 711 164 1305 865 10;
#X text 690 -104 screen methods:;
#X text 735 -71 alpha;
#X obj 690 101 inlet;
#X text 733 -90 fullscreen;
#X text 734 -61 translateX;
#X text 734 -50 translateY;
#X obj 625 350 t f f;
#X obj 195 596 rectangle 2 1;
#X obj 194 319 translateXYZ 0 0 0;
#X obj 490 115 r Qwin.width;
#X obj 535 135 r Qwin.height;
#X obj 490 160 pack f f;
#X obj 195 -143 inlet;
#N canvas 0 407 450 382 fullscreen 0;
#X msg 48 87 0;
#X obj 46 58 inlet;
#X obj 48 110 t b f f b f f b;
#X obj 145 147 s /q/screen/\$1/fullscreen;
#X obj 125 168 s /q/screen/\$1/position/y;
#X obj 106 188 s /q/screen/\$1/position/x;
#X obj 72 239 s /q/screen/\$1/rotate/x;
#X obj 54 258 s /q/screen/\$1/rotate/y;
#X connect 0 0 2 0;
#X connect 1 0 0 0;
#X connect 2 1 7 0;
#X connect 2 2 6 0;
#X connect 2 4 5 0;
#X connect 2 5 4 0;
#X connect 2 6 3 0;
#X restore 689 163 pd fullscreen;
#N canvas 0 489 450 300 size 0;
#X obj 139 101 inlet;
#X obj 140 160 s /q/screen/\$1/size;
#X connect 0 0 1 0;
#X restore 802 162 pd size;
#X text 735 -79 size;
#X obj 739 341 expr if($f1 >3.8 \, 0 \, 1);
#X obj 707 360 spigot;
#X obj 690 124 route fullscreen alpha size translateX translateY;
#X obj 194 232 rotateXYZ;
#X obj 195 -1 pix_coordinate;
#X obj 980 147 route rotateX rotateY texture;
#X obj 196 -23 pix_texture;
#X msg 98 -26 rectangle 1;
#X obj 196 -48 separator;
#X obj 101 -55 loadbang;
#X text 735 -40 rotateX;
#X text 735 -30 rotateY;
#X text 734 -18 texture;
#X obj 490 185 libs/gil/gil_gemmouse 800 600;
#X obj 490 327 libs/gil/gil_mouseover_rectangle;
#X obj 490 463 libs/gil/gil_drag&drop;
#X obj 220 42 r /q/screen/\$1/rotate/x;
#X obj 235 114 r /q/screen/\$1/rotate/y;
#X obj 229 275 r /q/screen/\$1/position/x;
#X obj 265 298 r /q/screen/\$1/position/y;
#X obj 275 426 r /q/screen/\$1/alpha;
#X obj 535 263 r /q/screen/\$1/position/x;
#X obj 580 283 r /q/screen/\$1/position/y;
#X obj 739 316 r /q/screen/\$1/size;
#X obj 708 379 s /q/screen/\$1/over;
#X obj 540 418 r /q/screen/\$1/position/x;
#X obj 565 440 r /q/screen/\$1/position/y;
#X obj 565 487 s /q/screen/\$1/position/y;
#X obj 540 514 s /q/screen/\$1/position/x;
#X obj 737 201 s /q/screen/\$1/alpha;
#X obj 980 204 s /q/screen/\$1/rotate/x;
#X obj 1043 226 s /q/screen/\$1/rotate/y;
#X obj 1023 61 namecanvas \$1;
#X obj 215 357 r /q/screen/\$1/color/r;
#X obj 234 381 r /q/screen/\$1/color/g;
#X obj 254 404 r /q/screen/\$1/color/b;
#X obj 234 138 * 360;
#X obj 220 67 * 360;
#N canvas 375 430 450 300 fullscreen 1;
#X obj 50 171 r /q/screen/\$1/fullscreen;
#X obj 98 22 r Qwin.width;
#X obj 110 48 r Qwin.height;
#X obj 98 67 /;
#X msg 122 195 4;
#X obj 95 151 t f b;
#X obj 96 128 * 4;
#X obj 108 221 f;
#X obj 80 221 f;
#X obj 50 193 t b b;
#X obj 123 114 s /q/screeen/\$1/aspect_ratio;
#X obj 98 87 t f f;
#X obj 73 260 outlet;
#X obj 117 258 outlet;
#X floatatom 23 252 5 0 0 0 - - -, f 5;
#X floatatom 177 88 5 0 0 0 - - -, f 5;
#X floatatom 39 58 5 0 0 0 - - -, f 5;
#X connect 0 0 9 0;
#X connect 1 0 3 0;
#X connect 1 0 16 0;
#X connect 2 0 3 1;
#X connect 2 0 15 0;
#X connect 3 0 11 0;
#X connect 4 0 7 1;
#X connect 5 0 8 1;
#X connect 5 1 4 0;
#X connect 6 0 5 0;
#X connect 7 0 13 0;
#X connect 8 0 12 0;
#X connect 8 0 14 0;
#X connect 9 0 8 0;
#X connect 9 1 7 0;
#X connect 11 0 6 0;
#X connect 11 1 10 0;
#X restore 207 505 pd fullscreen;
#X obj 232 550 s /q/screeen/\$1/fullX;
#X obj 207 528 t f f;
#N canvas 668 364 852 373 size 0;
#X obj 137 -66 r /q/screen/\$1/size;
#X obj 137 -15 t f f;
#X obj 142 152 *;
#X obj 156 119 r /q/screeen/\$1/fullX;
#X obj 165 77 outlet;
#X obj 142 230 outlet;
#X obj 142 180 * 4;
#X obj 165 55 * 16;
#X connect 0 0 1 0;
#X connect 1 0 2 0;
#X connect 1 1 7 0;
#X connect 2 0 6 0;
#X connect 3 0 2 1;
#X connect 6 0 5 0;
#X connect 7 0 4 0;
#X restore 320 568 pd size;
#N canvas 0 97 788 576 translate_proportional 0;
#X obj 330 428 s /q/screen/\$1/position/x;
#X obj 553 427 s /q/screen/\$1/position/y;
#X obj 66 198 r /q/screen/\$1/translate/x;
#X obj 600 199 r /q/screen/\$1/translate/y;
#X obj 538 202 inlet y;
#X obj 248 196 inlet x;
#X obj 396 238 r /q/screeen/\$1/fullX;
#X obj 396 260 * 2;
#X msg 332 342 load 0 1;
#X obj 332 318 loadbang;
#X obj 333 369 libs/abs/myscale;
#X obj 395 310 expr $f1-($f1*2);
#X obj 396 282 t f f;
#X msg 557 346 load 0 1;
#X obj 557 322 loadbang;
#X obj 558 373 libs/abs/myscale;
#X msg 618 295 -8;
#X msg 648 297 8;
#X obj 630 265 t b b;
#X obj 630 241 loadbang;
#X connect 2 0 10 0;
#X connect 3 0 15 0;
#X connect 4 0 15 0;
#X connect 5 0 10 0;
#X connect 6 0 7 0;
#X connect 7 0 12 0;
#X connect 8 0 10 0;
#X connect 9 0 8 0;
#X connect 10 0 0 0;
#X connect 11 0 10 1;
#X connect 12 0 11 0;
#X connect 12 1 10 2;
#X connect 13 0 15 0;
#X connect 14 0 13 0;
#X connect 15 0 1 0;
#X connect 16 0 15 1;
#X connect 17 0 15 2;
#X connect 18 0 16 0;
#X connect 18 1 17 0;
#X connect 19 0 18 0;
#X restore 873 288 pd translate_proportional;
#X obj 194 450 colorRGB 1 1 1;
#X connect 2 0 18 0;
#X connect 6 0 31 1;
#X connect 6 1 17 0;
#X connect 8 0 59 0;
#X connect 9 0 11 0;
#X connect 10 0 11 1;
#X connect 11 0 29 0;
#X connect 12 0 24 0;
#X connect 16 0 17 1;
#X connect 17 0 40 0;
#X connect 18 0 13 0;
#X connect 18 1 45 0;
#X connect 18 2 14 0;
#X connect 18 3 58 0;
#X connect 18 4 58 1;
#X connect 18 5 21 0;
#X connect 19 0 8 0;
#X connect 20 0 19 0;
#X connect 21 0 46 0;
#X connect 21 1 47 0;
#X connect 21 2 20 1;
#X connect 22 0 20 0;
#X connect 23 0 22 0;
#X connect 24 0 22 0;
#X connect 25 0 23 0;
#X connect 29 0 30 0;
#X connect 30 0 31 0;
#X connect 30 1 6 0;
#X connect 31 2 44 0;
#X connect 31 3 43 0;
#X connect 32 0 53 0;
#X connect 33 0 52 0;
#X connect 34 0 8 1;
#X connect 35 0 8 2;
#X connect 36 0 59 4;
#X connect 37 0 30 1;
#X connect 38 0 30 2;
#X connect 39 0 16 0;
#X connect 41 0 31 2;
#X connect 42 0 31 3;
#X connect 49 0 59 1;
#X connect 50 0 59 2;
#X connect 51 0 59 3;
#X connect 52 0 19 2;
#X connect 53 0 19 1;
#X connect 54 0 56 0;
#X connect 54 1 7 2;
#X connect 56 0 7 1;
#X connect 56 1 55 0;
#X connect 57 0 7 1;
#X connect 57 1 7 2;
#X connect 59 0 7 0;
