#N canvas 83 127 795 612 10;
#X obj 31 102 hradio 15 1 0 16 empty empty empty 0 -8 0 10 -262144
-1 -1 4;
#X obj 31 39 r count;
#X obj 3 248 r B01;
#X obj 77 246 r B02;
#X obj 7 207 bng 15 250 50 0 empty empty empty 17 7 0 10 -258113 -1
-1;
#X obj 96 207 bng 15 250 50 0 empty empty empty 17 7 0 10 -4034 -1
-1;
#X obj 186 207 bng 15 250 50 0 empty empty empty 17 7 0 10 -4160 -1
-1;
#X obj 278 207 bng 15 250 50 0 empty empty empty 17 7 0 10 -257985
-1 -1;
#X obj 169 248 r B03;
#X obj 262 246 r B04;
#X floatatom 154 83 4 1 500 0 - - -;
#X floatatom 9 83 3 1 16 0 - - -;
#X obj 111 84 bng 15 250 50 0 empty empty empty 17 7 0 10 -262144 -1
-1;
#X obj 30 -39 loadbang;
#X msg 32 -10 120;
#X msg 66 -10 16;
#X obj 9 280 outlet;
#X obj 67 281 outlet;
#X obj 148 282 outlet;
#X obj 238 282 outlet;
#X msg 389 10 60000;
#X obj 415 39 /;
#X obj 403 -21 t b f;
#X obj 446 68 metro 500;
#X msg 488 -21 stop;
#X msg 446 -21 bang;
#X obj 456 95 int;
#X obj 505 95 + 1;
#X msg 530 30 0;
#X obj 446 123 mod 16;
#X obj 446 149 s count;
#N canvas 223 249 875 341 stepseq 0;
#X obj 125 103 tgl 15 0 empty empty empty 17 7 0 10 -260097 -1 -1 0
1;
#X obj 155 103 tgl 15 0 empty empty empty 17 7 0 10 -262144 -1 -1 0
3;
#X obj 140 103 tgl 15 0 empty empty empty 17 7 0 10 -262144 -1 -1 0
2;
#X obj 170 103 tgl 15 0 empty empty empty 17 7 0 10 -262144 -1 -1 0
4;
#X obj 185 103 tgl 15 0 empty empty empty 17 7 0 10 -260097 -1 -1 0
5;
#X obj 215 103 tgl 15 0 empty empty empty 17 7 0 10 -262144 -1 -1 0
7;
#X obj 200 103 tgl 15 0 empty empty empty 17 7 0 10 -262144 -1 -1 0
6;
#X obj 230 103 tgl 15 0 empty empty empty 17 7 0 10 -262144 -1 -1 0
8;
#X obj 245 103 tgl 15 0 empty empty empty 17 7 0 10 -260097 -1 -1 0
9;
#X obj 275 103 tgl 15 0 empty empty empty 17 7 0 10 -262144 -1 -1 0
11;
#X obj 260 103 tgl 15 0 empty empty empty 17 7 0 10 -262144 -1 -1 0
10;
#X obj 290 103 tgl 15 0 empty empty empty 17 7 0 10 -262144 -1 -1 0
12;
#X obj 305 103 tgl 15 0 empty empty empty 17 7 0 10 -260097 -1 -1 0
13;
#X obj 335 103 tgl 15 0 empty empty empty 17 7 0 10 -262144 -1 -1 0
15;
#X obj 320 103 tgl 15 0 empty empty empty 17 7 0 10 -262144 -1 -1 0
14;
#X obj 350 103 tgl 15 0 empty empty empty 17 7 0 10 -262144 -1 -1 0
16;
#X obj 548 113 + 1;
#X obj 402 203 ==;
#X obj 427 203 ==;
#X obj 452 203 ==;
#X obj 477 203 ==;
#X obj 407 244 spigot;
#X obj 503 203 ==;
#X obj 528 203 ==;
#X obj 553 203 ==;
#X obj 578 203 ==;
#X obj 602 203 ==;
#X obj 627 203 ==;
#X obj 652 203 ==;
#X obj 677 203 ==;
#X obj 703 203 ==;
#X obj 728 203 ==;
#X obj 753 203 ==;
#X obj 778 203 ==;
#X obj 548 87 r count;
#X obj 407 270 s B01;
#X obj 369 103 tgl 15 0 empty empty empty 17 7 0 10 -162280 -1 -1 0
1;
#X msg 127 37 0;
#X msg 159 37 1;
#X obj 127 11 moses 0.5;
#X msg 189 37 2;
#X msg 219 37 3;
#X msg 249 37 4;
#X msg 281 37 5;
#X msg 313 37 6;
#X msg 343 37 7;
#X msg 373 37 8;
#X msg 403 37 9;
#X msg 434 37 10;
#X msg 466 37 11;
#X msg 496 37 12;
#X msg 526 37 13;
#X msg 556 37 14;
#X msg 589 37 15;
#X msg 619 37 16;
#X obj 103 102 cnv 17 17 17 empty empty empty 20 12 0 14 -258113 -1
0;
#X obj 112 179 cnv 15 100 60 empty empty empty 20 12 0 14 -233017 -66577
0;
#X connect 0 0 17 1;
#X connect 1 0 19 1;
#X connect 2 0 18 1;
#X connect 3 0 20 1;
#X connect 4 0 22 1;
#X connect 5 0 24 1;
#X connect 6 0 23 1;
#X connect 7 0 25 1;
#X connect 8 0 26 1;
#X connect 9 0 28 1;
#X connect 10 0 27 1;
#X connect 11 0 29 1;
#X connect 12 0 30 1;
#X connect 13 0 32 1;
#X connect 14 0 31 1;
#X connect 15 0 33 1;
#X connect 16 0 20 0;
#X connect 16 0 19 0;
#X connect 16 0 18 0;
#X connect 16 0 17 0;
#X connect 16 0 22 0;
#X connect 16 0 23 0;
#X connect 16 0 24 0;
#X connect 16 0 25 0;
#X connect 16 0 26 0;
#X connect 16 0 27 0;
#X connect 16 0 28 0;
#X connect 16 0 29 0;
#X connect 16 0 30 0;
#X connect 16 0 31 0;
#X connect 16 0 32 0;
#X connect 16 0 33 0;
#X connect 17 0 21 1;
#X connect 17 0 21 0;
#X connect 18 0 21 1;
#X connect 18 0 21 0;
#X connect 19 0 21 1;
#X connect 19 0 21 0;
#X connect 20 0 21 1;
#X connect 20 0 21 0;
#X connect 21 0 35 0;
#X connect 22 0 21 1;
#X connect 22 0 21 0;
#X connect 23 0 21 1;
#X connect 23 0 21 0;
#X connect 24 0 21 1;
#X connect 24 0 21 0;
#X connect 25 0 21 1;
#X connect 25 0 21 0;
#X connect 26 0 21 1;
#X connect 26 0 21 0;
#X connect 27 0 21 1;
#X connect 27 0 21 0;
#X connect 28 0 21 1;
#X connect 28 0 21 0;
#X connect 29 0 21 1;
#X connect 29 0 21 0;
#X connect 30 0 21 1;
#X connect 30 0 21 0;
#X connect 31 0 21 1;
#X connect 31 0 21 0;
#X connect 32 0 21 1;
#X connect 32 0 21 0;
#X connect 33 0 21 1;
#X connect 33 0 21 0;
#X connect 34 0 16 0;
#X connect 36 0 39 0;
#X connect 37 0 0 0;
#X connect 37 0 2 0;
#X connect 37 0 1 0;
#X connect 37 0 3 0;
#X connect 37 0 4 0;
#X connect 37 0 6 0;
#X connect 37 0 5 0;
#X connect 37 0 7 0;
#X connect 37 0 8 0;
#X connect 37 0 10 0;
#X connect 37 0 9 0;
#X connect 37 0 11 0;
#X connect 37 0 12 0;
#X connect 37 0 14 0;
#X connect 37 0 13 0;
#X connect 37 0 15 0;
#X connect 38 0 0 0;
#X connect 39 0 37 0;
#X connect 39 1 38 0;
#X connect 39 1 40 0;
#X connect 39 1 41 0;
#X connect 39 1 42 0;
#X connect 39 1 43 0;
#X connect 39 1 44 0;
#X connect 39 1 45 0;
#X connect 39 1 46 0;
#X connect 39 1 47 0;
#X connect 39 1 48 0;
#X connect 39 1 49 0;
#X connect 39 1 50 0;
#X connect 39 1 51 0;
#X connect 39 1 52 0;
#X connect 39 1 53 0;
#X connect 39 1 54 0;
#X connect 40 0 2 0;
#X connect 41 0 1 0;
#X connect 42 0 3 0;
#X connect 43 0 4 0;
#X connect 44 0 6 0;
#X connect 45 0 5 0;
#X connect 46 0 7 0;
#X connect 47 0 8 0;
#X connect 48 0 10 0;
#X connect 49 0 9 0;
#X connect 50 0 11 0;
#X connect 51 0 12 0;
#X connect 52 0 14 0;
#X connect 53 0 13 0;
#X connect 54 0 15 0;
#X coords 0 -1 1 1 288 21 2 100 100;
#X restore 6 120 pd stepseq;
#N canvas 219 265 875 341 stepseq 0;
#X obj 125 103 tgl 15 0 empty empty empty 17 7 0 10 -260097 -1 -1 0
1;
#X obj 155 103 tgl 15 0 empty empty empty 17 7 0 10 -262144 -1 -1 0
3;
#X obj 140 103 tgl 15 0 empty empty empty 17 7 0 10 -262144 -1 -1 0
2;
#X obj 170 103 tgl 15 0 empty empty empty 17 7 0 10 -262144 -1 -1 0
4;
#X obj 185 103 tgl 15 0 empty empty empty 17 7 0 10 -260097 -1 -1 0
5;
#X obj 215 103 tgl 15 0 empty empty empty 17 7 0 10 -262144 -1 -1 0
7;
#X obj 200 103 tgl 15 0 empty empty empty 17 7 0 10 -262144 -1 -1 0
6;
#X obj 230 103 tgl 15 0 empty empty empty 17 7 0 10 -262144 -1 -1 0
8;
#X obj 245 103 tgl 15 0 empty empty empty 17 7 0 10 -260097 -1 -1 0
9;
#X obj 275 103 tgl 15 0 empty empty empty 17 7 0 10 -262144 -1 -1 0
11;
#X obj 260 103 tgl 15 0 empty empty empty 17 7 0 10 -262144 -1 -1 0
10;
#X obj 290 103 tgl 15 0 empty empty empty 17 7 0 10 -262144 -1 -1 0
12;
#X obj 305 103 tgl 15 0 empty empty empty 17 7 0 10 -260097 -1 -1 0
13;
#X obj 335 103 tgl 15 0 empty empty empty 17 7 0 10 -262144 -1 -1 0
15;
#X obj 320 103 tgl 15 0 empty empty empty 17 7 0 10 -262144 -1 -1 0
14;
#X obj 350 103 tgl 15 0 empty empty empty 17 7 0 10 -262144 -1 -1 0
16;
#X obj 548 113 + 1;
#X obj 402 203 ==;
#X obj 427 203 ==;
#X obj 452 203 ==;
#X obj 477 203 ==;
#X obj 407 244 spigot;
#X obj 503 203 ==;
#X obj 528 203 ==;
#X obj 553 203 ==;
#X obj 578 203 ==;
#X obj 602 203 ==;
#X obj 627 203 ==;
#X obj 652 203 ==;
#X obj 677 203 ==;
#X obj 703 203 ==;
#X obj 728 203 ==;
#X obj 753 203 ==;
#X obj 778 203 ==;
#X obj 548 87 r count;
#X obj 369 103 tgl 15 0 empty empty empty 17 7 0 10 -162280 -1 -1 0
1;
#X msg 127 37 0;
#X msg 159 37 1;
#X obj 127 11 moses 0.5;
#X msg 189 37 2;
#X msg 219 37 3;
#X msg 249 37 4;
#X msg 281 37 5;
#X msg 313 37 6;
#X msg 343 37 7;
#X msg 373 37 8;
#X msg 403 37 9;
#X msg 434 37 10;
#X msg 466 37 11;
#X msg 496 37 12;
#X msg 526 37 13;
#X msg 556 37 14;
#X msg 589 37 15;
#X msg 619 37 16;
#X obj 103 102 cnv 17 17 17 empty empty empty 20 12 0 14 -4034 -1 0
;
#X obj 112 179 cnv 15 100 60 empty empty empty 20 12 0 14 -233017 -66577
0;
#X obj 407 270 s B02;
#X connect 0 0 17 1;
#X connect 1 0 19 1;
#X connect 2 0 18 1;
#X connect 3 0 20 1;
#X connect 4 0 22 1;
#X connect 5 0 24 1;
#X connect 6 0 23 1;
#X connect 7 0 25 1;
#X connect 8 0 26 1;
#X connect 9 0 28 1;
#X connect 10 0 27 1;
#X connect 11 0 29 1;
#X connect 12 0 30 1;
#X connect 13 0 32 1;
#X connect 14 0 31 1;
#X connect 15 0 33 1;
#X connect 16 0 20 0;
#X connect 16 0 19 0;
#X connect 16 0 18 0;
#X connect 16 0 17 0;
#X connect 16 0 22 0;
#X connect 16 0 23 0;
#X connect 16 0 24 0;
#X connect 16 0 25 0;
#X connect 16 0 26 0;
#X connect 16 0 27 0;
#X connect 16 0 28 0;
#X connect 16 0 29 0;
#X connect 16 0 30 0;
#X connect 16 0 31 0;
#X connect 16 0 32 0;
#X connect 16 0 33 0;
#X connect 17 0 21 1;
#X connect 17 0 21 0;
#X connect 18 0 21 1;
#X connect 18 0 21 0;
#X connect 19 0 21 1;
#X connect 19 0 21 0;
#X connect 20 0 21 1;
#X connect 20 0 21 0;
#X connect 21 0 56 0;
#X connect 22 0 21 1;
#X connect 22 0 21 0;
#X connect 23 0 21 1;
#X connect 23 0 21 0;
#X connect 24 0 21 1;
#X connect 24 0 21 0;
#X connect 25 0 21 1;
#X connect 25 0 21 0;
#X connect 26 0 21 1;
#X connect 26 0 21 0;
#X connect 27 0 21 1;
#X connect 27 0 21 0;
#X connect 28 0 21 1;
#X connect 28 0 21 0;
#X connect 29 0 21 1;
#X connect 29 0 21 0;
#X connect 30 0 21 1;
#X connect 30 0 21 0;
#X connect 31 0 21 1;
#X connect 31 0 21 0;
#X connect 32 0 21 1;
#X connect 32 0 21 0;
#X connect 33 0 21 1;
#X connect 33 0 21 0;
#X connect 34 0 16 0;
#X connect 35 0 38 0;
#X connect 36 0 0 0;
#X connect 36 0 2 0;
#X connect 36 0 1 0;
#X connect 36 0 3 0;
#X connect 36 0 4 0;
#X connect 36 0 6 0;
#X connect 36 0 5 0;
#X connect 36 0 7 0;
#X connect 36 0 8 0;
#X connect 36 0 10 0;
#X connect 36 0 9 0;
#X connect 36 0 11 0;
#X connect 36 0 12 0;
#X connect 36 0 14 0;
#X connect 36 0 13 0;
#X connect 36 0 15 0;
#X connect 37 0 0 0;
#X connect 38 0 36 0;
#X connect 38 1 37 0;
#X connect 38 1 39 0;
#X connect 38 1 40 0;
#X connect 38 1 41 0;
#X connect 38 1 42 0;
#X connect 38 1 43 0;
#X connect 38 1 44 0;
#X connect 38 1 45 0;
#X connect 38 1 46 0;
#X connect 38 1 47 0;
#X connect 38 1 48 0;
#X connect 38 1 49 0;
#X connect 38 1 50 0;
#X connect 38 1 51 0;
#X connect 38 1 52 0;
#X connect 38 1 53 0;
#X connect 39 0 2 0;
#X connect 40 0 1 0;
#X connect 41 0 3 0;
#X connect 42 0 4 0;
#X connect 43 0 6 0;
#X connect 44 0 5 0;
#X connect 45 0 7 0;
#X connect 46 0 8 0;
#X connect 47 0 10 0;
#X connect 48 0 9 0;
#X connect 49 0 11 0;
#X connect 50 0 12 0;
#X connect 51 0 14 0;
#X connect 52 0 13 0;
#X connect 53 0 15 0;
#X coords 0 -1 1 1 288 21 2 100 100;
#X restore 6 141 pd stepseq;
#N canvas 221 257 875 341 stepseq 0;
#X obj 125 103 tgl 15 0 empty empty empty 17 7 0 10 -260097 -1 -1 0
1;
#X obj 155 103 tgl 15 0 empty empty empty 17 7 0 10 -262144 -1 -1 0
3;
#X obj 140 103 tgl 15 0 empty empty empty 17 7 0 10 -262144 -1 -1 0
2;
#X obj 170 103 tgl 15 0 empty empty empty 17 7 0 10 -262144 -1 -1 0
4;
#X obj 185 103 tgl 15 0 empty empty empty 17 7 0 10 -260097 -1 -1 0
5;
#X obj 215 103 tgl 15 0 empty empty empty 17 7 0 10 -262144 -1 -1 0
7;
#X obj 200 103 tgl 15 0 empty empty empty 17 7 0 10 -262144 -1 -1 0
6;
#X obj 230 103 tgl 15 0 empty empty empty 17 7 0 10 -262144 -1 -1 0
8;
#X obj 245 103 tgl 15 0 empty empty empty 17 7 0 10 -260097 -1 -1 0
9;
#X obj 275 103 tgl 15 0 empty empty empty 17 7 0 10 -262144 -1 -1 0
11;
#X obj 260 103 tgl 15 0 empty empty empty 17 7 0 10 -262144 -1 -1 0
10;
#X obj 290 103 tgl 15 0 empty empty empty 17 7 0 10 -262144 -1 -1 0
12;
#X obj 305 103 tgl 15 0 empty empty empty 17 7 0 10 -260097 -1 -1 0
13;
#X obj 335 103 tgl 15 0 empty empty empty 17 7 0 10 -262144 -1 -1 0
15;
#X obj 320 103 tgl 15 0 empty empty empty 17 7 0 10 -262144 -1 -1 0
14;
#X obj 350 103 tgl 15 0 empty empty empty 17 7 0 10 -262144 -1 -1 0
16;
#X obj 548 113 + 1;
#X obj 402 203 ==;
#X obj 427 203 ==;
#X obj 452 203 ==;
#X obj 477 203 ==;
#X obj 407 244 spigot;
#X obj 503 203 ==;
#X obj 528 203 ==;
#X obj 553 203 ==;
#X obj 578 203 ==;
#X obj 602 203 ==;
#X obj 627 203 ==;
#X obj 652 203 ==;
#X obj 677 203 ==;
#X obj 703 203 ==;
#X obj 728 203 ==;
#X obj 753 203 ==;
#X obj 778 203 ==;
#X obj 548 87 r count;
#X obj 369 103 tgl 15 0 empty empty empty 17 7 0 10 -162280 -1 -1 0
1;
#X msg 127 37 0;
#X msg 159 37 1;
#X obj 127 11 moses 0.5;
#X msg 189 37 2;
#X msg 219 37 3;
#X msg 249 37 4;
#X msg 281 37 5;
#X msg 313 37 6;
#X msg 343 37 7;
#X msg 373 37 8;
#X msg 403 37 9;
#X msg 434 37 10;
#X msg 466 37 11;
#X msg 496 37 12;
#X msg 526 37 13;
#X msg 556 37 14;
#X msg 589 37 15;
#X msg 619 37 16;
#X obj 103 102 cnv 17 17 17 empty empty empty 20 12 0 14 -4160 -1 0
;
#X obj 112 179 cnv 15 100 60 empty empty empty 20 12 0 14 -233017 -66577
0;
#X obj 407 270 s B03;
#X connect 0 0 17 1;
#X connect 1 0 19 1;
#X connect 2 0 18 1;
#X connect 3 0 20 1;
#X connect 4 0 22 1;
#X connect 5 0 24 1;
#X connect 6 0 23 1;
#X connect 7 0 25 1;
#X connect 8 0 26 1;
#X connect 9 0 28 1;
#X connect 10 0 27 1;
#X connect 11 0 29 1;
#X connect 12 0 30 1;
#X connect 13 0 32 1;
#X connect 14 0 31 1;
#X connect 15 0 33 1;
#X connect 16 0 20 0;
#X connect 16 0 19 0;
#X connect 16 0 18 0;
#X connect 16 0 17 0;
#X connect 16 0 22 0;
#X connect 16 0 23 0;
#X connect 16 0 24 0;
#X connect 16 0 25 0;
#X connect 16 0 26 0;
#X connect 16 0 27 0;
#X connect 16 0 28 0;
#X connect 16 0 29 0;
#X connect 16 0 30 0;
#X connect 16 0 31 0;
#X connect 16 0 32 0;
#X connect 16 0 33 0;
#X connect 17 0 21 1;
#X connect 17 0 21 0;
#X connect 18 0 21 1;
#X connect 18 0 21 0;
#X connect 19 0 21 1;
#X connect 19 0 21 0;
#X connect 20 0 21 1;
#X connect 20 0 21 0;
#X connect 21 0 56 0;
#X connect 22 0 21 1;
#X connect 22 0 21 0;
#X connect 23 0 21 1;
#X connect 23 0 21 0;
#X connect 24 0 21 1;
#X connect 24 0 21 0;
#X connect 25 0 21 1;
#X connect 25 0 21 0;
#X connect 26 0 21 1;
#X connect 26 0 21 0;
#X connect 27 0 21 1;
#X connect 27 0 21 0;
#X connect 28 0 21 1;
#X connect 28 0 21 0;
#X connect 29 0 21 1;
#X connect 29 0 21 0;
#X connect 30 0 21 1;
#X connect 30 0 21 0;
#X connect 31 0 21 1;
#X connect 31 0 21 0;
#X connect 32 0 21 1;
#X connect 32 0 21 0;
#X connect 33 0 21 1;
#X connect 33 0 21 0;
#X connect 34 0 16 0;
#X connect 35 0 38 0;
#X connect 36 0 0 0;
#X connect 36 0 2 0;
#X connect 36 0 1 0;
#X connect 36 0 3 0;
#X connect 36 0 4 0;
#X connect 36 0 6 0;
#X connect 36 0 5 0;
#X connect 36 0 7 0;
#X connect 36 0 8 0;
#X connect 36 0 10 0;
#X connect 36 0 9 0;
#X connect 36 0 11 0;
#X connect 36 0 12 0;
#X connect 36 0 14 0;
#X connect 36 0 13 0;
#X connect 36 0 15 0;
#X connect 37 0 0 0;
#X connect 38 0 36 0;
#X connect 38 1 37 0;
#X connect 38 1 39 0;
#X connect 38 1 40 0;
#X connect 38 1 41 0;
#X connect 38 1 42 0;
#X connect 38 1 43 0;
#X connect 38 1 44 0;
#X connect 38 1 45 0;
#X connect 38 1 46 0;
#X connect 38 1 47 0;
#X connect 38 1 48 0;
#X connect 38 1 49 0;
#X connect 38 1 50 0;
#X connect 38 1 51 0;
#X connect 38 1 52 0;
#X connect 38 1 53 0;
#X connect 39 0 2 0;
#X connect 40 0 1 0;
#X connect 41 0 3 0;
#X connect 42 0 4 0;
#X connect 43 0 6 0;
#X connect 44 0 5 0;
#X connect 45 0 7 0;
#X connect 46 0 8 0;
#X connect 47 0 10 0;
#X connect 48 0 9 0;
#X connect 49 0 11 0;
#X connect 50 0 12 0;
#X connect 51 0 14 0;
#X connect 52 0 13 0;
#X connect 53 0 15 0;
#X coords 0 -1 1 1 288 21 2 100 100;
#X restore 6 162 pd stepseq;
#N canvas 221 257 875 341 stepseq 0;
#X obj 125 103 tgl 15 0 empty empty empty 17 7 0 10 -260097 -1 -1 0
1;
#X obj 155 103 tgl 15 0 empty empty empty 17 7 0 10 -262144 -1 -1 0
3;
#X obj 140 103 tgl 15 0 empty empty empty 17 7 0 10 -262144 -1 -1 0
2;
#X obj 170 103 tgl 15 0 empty empty empty 17 7 0 10 -262144 -1 -1 0
4;
#X obj 185 103 tgl 15 0 empty empty empty 17 7 0 10 -260097 -1 -1 0
5;
#X obj 215 103 tgl 15 0 empty empty empty 17 7 0 10 -262144 -1 -1 0
7;
#X obj 200 103 tgl 15 0 empty empty empty 17 7 0 10 -262144 -1 -1 0
6;
#X obj 230 103 tgl 15 0 empty empty empty 17 7 0 10 -262144 -1 -1 0
8;
#X obj 245 103 tgl 15 0 empty empty empty 17 7 0 10 -260097 -1 -1 0
9;
#X obj 275 103 tgl 15 0 empty empty empty 17 7 0 10 -262144 -1 -1 0
11;
#X obj 260 103 tgl 15 0 empty empty empty 17 7 0 10 -262144 -1 -1 0
10;
#X obj 290 103 tgl 15 0 empty empty empty 17 7 0 10 -262144 -1 -1 0
12;
#X obj 305 103 tgl 15 0 empty empty empty 17 7 0 10 -260097 -1 -1 0
13;
#X obj 335 103 tgl 15 0 empty empty empty 17 7 0 10 -262144 -1 -1 0
15;
#X obj 320 103 tgl 15 0 empty empty empty 17 7 0 10 -262144 -1 -1 0
14;
#X obj 350 103 tgl 15 0 empty empty empty 17 7 0 10 -262144 -1 -1 0
16;
#X obj 548 113 + 1;
#X obj 402 203 ==;
#X obj 427 203 ==;
#X obj 452 203 ==;
#X obj 477 203 ==;
#X obj 407 244 spigot;
#X obj 503 203 ==;
#X obj 528 203 ==;
#X obj 553 203 ==;
#X obj 578 203 ==;
#X obj 602 203 ==;
#X obj 627 203 ==;
#X obj 652 203 ==;
#X obj 677 203 ==;
#X obj 703 203 ==;
#X obj 728 203 ==;
#X obj 753 203 ==;
#X obj 778 203 ==;
#X obj 548 87 r count;
#X obj 369 103 tgl 15 0 empty empty empty 17 7 0 10 -162280 -1 -1 0
1;
#X msg 127 37 0;
#X msg 159 37 1;
#X obj 127 11 moses 0.5;
#X msg 189 37 2;
#X msg 219 37 3;
#X msg 249 37 4;
#X msg 281 37 5;
#X msg 313 37 6;
#X msg 343 37 7;
#X msg 373 37 8;
#X msg 403 37 9;
#X msg 434 37 10;
#X msg 466 37 11;
#X msg 496 37 12;
#X msg 526 37 13;
#X msg 556 37 14;
#X msg 589 37 15;
#X msg 619 37 16;
#X obj 103 102 cnv 17 17 17 empty empty empty 20 12 0 14 -257985 -1
0;
#X obj 112 179 cnv 15 100 60 empty empty empty 20 12 0 14 -233017 -66577
0;
#X obj 407 270 s B04;
#X connect 0 0 17 1;
#X connect 1 0 19 1;
#X connect 2 0 18 1;
#X connect 3 0 20 1;
#X connect 4 0 22 1;
#X connect 5 0 24 1;
#X connect 6 0 23 1;
#X connect 7 0 25 1;
#X connect 8 0 26 1;
#X connect 9 0 28 1;
#X connect 10 0 27 1;
#X connect 11 0 29 1;
#X connect 12 0 30 1;
#X connect 13 0 32 1;
#X connect 14 0 31 1;
#X connect 15 0 33 1;
#X connect 16 0 20 0;
#X connect 16 0 19 0;
#X connect 16 0 18 0;
#X connect 16 0 17 0;
#X connect 16 0 22 0;
#X connect 16 0 23 0;
#X connect 16 0 24 0;
#X connect 16 0 25 0;
#X connect 16 0 26 0;
#X connect 16 0 27 0;
#X connect 16 0 28 0;
#X connect 16 0 29 0;
#X connect 16 0 30 0;
#X connect 16 0 31 0;
#X connect 16 0 32 0;
#X connect 16 0 33 0;
#X connect 17 0 21 1;
#X connect 17 0 21 0;
#X connect 18 0 21 1;
#X connect 18 0 21 0;
#X connect 19 0 21 1;
#X connect 19 0 21 0;
#X connect 20 0 21 1;
#X connect 20 0 21 0;
#X connect 21 0 56 0;
#X connect 22 0 21 1;
#X connect 22 0 21 0;
#X connect 23 0 21 1;
#X connect 23 0 21 0;
#X connect 24 0 21 1;
#X connect 24 0 21 0;
#X connect 25 0 21 1;
#X connect 25 0 21 0;
#X connect 26 0 21 1;
#X connect 26 0 21 0;
#X connect 27 0 21 1;
#X connect 27 0 21 0;
#X connect 28 0 21 1;
#X connect 28 0 21 0;
#X connect 29 0 21 1;
#X connect 29 0 21 0;
#X connect 30 0 21 1;
#X connect 30 0 21 0;
#X connect 31 0 21 1;
#X connect 31 0 21 0;
#X connect 32 0 21 1;
#X connect 32 0 21 0;
#X connect 33 0 21 1;
#X connect 33 0 21 0;
#X connect 34 0 16 0;
#X connect 35 0 38 0;
#X connect 36 0 0 0;
#X connect 36 0 2 0;
#X connect 36 0 1 0;
#X connect 36 0 3 0;
#X connect 36 0 4 0;
#X connect 36 0 6 0;
#X connect 36 0 5 0;
#X connect 36 0 7 0;
#X connect 36 0 8 0;
#X connect 36 0 10 0;
#X connect 36 0 9 0;
#X connect 36 0 11 0;
#X connect 36 0 12 0;
#X connect 36 0 14 0;
#X connect 36 0 13 0;
#X connect 36 0 15 0;
#X connect 37 0 0 0;
#X connect 38 0 36 0;
#X connect 38 1 37 0;
#X connect 38 1 39 0;
#X connect 38 1 40 0;
#X connect 38 1 41 0;
#X connect 38 1 42 0;
#X connect 38 1 43 0;
#X connect 38 1 44 0;
#X connect 38 1 45 0;
#X connect 38 1 46 0;
#X connect 38 1 47 0;
#X connect 38 1 48 0;
#X connect 38 1 49 0;
#X connect 38 1 50 0;
#X connect 38 1 51 0;
#X connect 38 1 52 0;
#X connect 38 1 53 0;
#X connect 39 0 2 0;
#X connect 40 0 1 0;
#X connect 41 0 3 0;
#X connect 42 0 4 0;
#X connect 43 0 6 0;
#X connect 44 0 5 0;
#X connect 45 0 7 0;
#X connect 46 0 8 0;
#X connect 47 0 10 0;
#X connect 48 0 9 0;
#X connect 49 0 11 0;
#X connect 50 0 12 0;
#X connect 51 0 14 0;
#X connect 52 0 13 0;
#X connect 53 0 15 0;
#X coords 0 -1 1 1 288 21 2 100 100;
#X restore 6 183 pd stepseq;
#X obj 662 44 midirealtimein;
#X obj 703 157 + 1;
#X obj 662 127 t b;
#X obj 662 157 int;
#X obj 662 73 == 248;
#X obj 662 209 sel 0;
#X obj 632 233 bng 15 250 50 0 empty empty empty 17 7 0 10 -262144
-1 -1;
#X obj 662 185 mod 24;
#X obj 703 256 + 1;
#X obj 662 256 int;
#X obj 662 288 mod 16;
#X obj 662 314 s count;
#X obj 662 101 spigot 0;
#X msg 707 -14 0;
#X obj 233 481 int;
#X obj 233 506 moses 0.5;
#X msg 284 530 1;
#X obj 512 428 int;
#X obj 512 453 moses 0.5;
#X msg 563 477 0;
#X msg 513 478 0;
#X obj 63 84 tgl 15 0 empty empty empty 17 7 0 10 -262144 -1 -1 0 1
;
#X msg 103 -11 0;
#X obj 183 418 moses 0.5;
#X obj 210 84 hradio 15 1 0 2 empty empty empty 0 -8 0 10 -262144 -1
-1 0;
#X obj 325 353 t b;
#X msg 326 384 0;
#X obj 179 449 t b;
#X obj 228 450 t b;
#X text 457 450 reset;
#X text 145 426 stop;
#X text 195 477 play;
#X text 356 359 change;
#X text 31 82 step;
#X text 78 82 play;
#X text 126 82 res;
#X text 182 82 bpm;
#X text 241 83 bpm/midi;
#X connect 1 0 0 0;
#X connect 2 0 4 0;
#X connect 2 0 16 0;
#X connect 3 0 5 0;
#X connect 3 0 17 0;
#X connect 8 0 6 0;
#X connect 8 0 18 0;
#X connect 9 0 7 0;
#X connect 9 0 19 0;
#X connect 10 0 22 0;
#X connect 11 0 29 1;
#X connect 11 0 45 1;
#X connect 12 0 52 0;
#X connect 13 0 14 0;
#X connect 13 0 15 0;
#X connect 13 0 57 0;
#X connect 14 0 10 0;
#X connect 15 0 11 0;
#X connect 20 0 21 0;
#X connect 21 0 23 1;
#X connect 22 0 20 0;
#X connect 22 1 21 1;
#X connect 23 0 26 0;
#X connect 24 0 23 0;
#X connect 25 0 23 0;
#X connect 26 0 27 0;
#X connect 26 0 29 0;
#X connect 27 0 26 1;
#X connect 28 0 26 0;
#X connect 29 0 30 0;
#X connect 35 0 39 0;
#X connect 36 0 38 1;
#X connect 37 0 38 0;
#X connect 38 0 36 0;
#X connect 38 0 42 0;
#X connect 39 0 47 0;
#X connect 40 0 41 0;
#X connect 40 0 44 0;
#X connect 42 0 40 0;
#X connect 43 0 44 1;
#X connect 44 0 43 0;
#X connect 44 0 45 0;
#X connect 45 0 46 0;
#X connect 47 0 37 0;
#X connect 48 0 47 1;
#X connect 49 0 50 0;
#X connect 50 0 25 0;
#X connect 50 1 51 0;
#X connect 51 0 47 1;
#X connect 52 0 53 0;
#X connect 53 0 55 0;
#X connect 53 1 54 0;
#X connect 54 0 44 0;
#X connect 55 0 26 0;
#X connect 56 0 58 0;
#X connect 57 0 56 0;
#X connect 57 0 59 0;
#X connect 58 0 62 0;
#X connect 58 1 63 0;
#X connect 59 0 49 1;
#X connect 59 0 52 1;
#X connect 59 0 60 0;
#X connect 60 0 61 0;
#X connect 60 0 52 0;
#X connect 61 0 56 0;
#X connect 62 0 24 0;
#X connect 62 0 48 0;
#X connect 63 0 49 0;
#X coords 0 -1 1 1 288 143 2 6 80;
