#N canvas 122 222 1143 567 10;
#X obj 306 178 gemhead 20;
#X obj 339 418 gemhead;
#X obj 339 443 pix_texture;
#X obj 306 243 color 1 0 0;
#X obj 341 491 outlet;
#X obj 306 220 translateXYZ 0 0 -1.1;
#X obj 836 39 inlet;
#X obj 836 105 min 5;
#X obj 836 81 max 1;
#X obj 937 87 max 1;
#X obj 937 111 min 3;
#X msg 247 417 rectangle 1;
#X msg 879 177 load 0 1;
#X obj 877 153 loadbang;
#X obj 873 131 initbang;
#X obj 878 201 libs/abs/myscale 0 5;
#X obj 307 197 libs/abs/ev_buf \$1;
#X obj 306 334 text3d;
#X obj 836 60 route text size color font;
#X connect 0 0 16 0;
#X connect 1 0 2 0;
#X connect 2 0 4 0;
#X connect 3 0 17 0;
#X connect 5 0 3 0;
#X connect 6 0 18 0;
#X connect 8 0 7 0;
#X connect 9 0 10 0;
#X connect 11 0 2 0;
#X connect 12 0 15 0;
#X connect 13 0 12 0;
#X connect 14 0 12 0;
#X connect 16 0 5 0;
#X connect 16 1 2 1;
#X connect 18 0 8 0;
#X connect 18 1 15 0;
#X connect 18 2 3 1;
#X connect 18 3 9 0;
