#N canvas 0 292 1614 567 10;
#X declare -path libs/abs;
#X obj 306 178 gemhead 20;
#X obj 339 418 gemhead;
#X obj 339 443 pix_texture;
#X obj 306 243 color 1 0 0;
#X obj 341 491 outlet;
#X obj 306 220 translateXYZ 0 0 -1.1;
#X obj 836 39 inlet;
#X msg 247 417 rectangle 1;
#X msg 879 177 load 0 1;
#X obj 877 153 loadbang;
#X obj 754 466 namecanvas \$1;
#X obj 757 497 declare -path libs/abs;
#X obj 307 197 ev_buf \$1;
#X obj 521 222 bng 15 250 50 0 empty empty empty 17 7 0 10 -262144
-1 -1;
#X obj 521 242 openpanel;
#X obj 696 343 list trim;
#X msg 669 420 font /usr/share/fonts/truetype/dejavu/DejaVuSans-Bold.ttf
;
#X obj 669 297 t b a;
#X obj 522 267 route <no_file_specified>;
#X obj 694 321 list prepend set font;
#X msg 418 329 text pantaliQa;
#X obj 420 299 once;
#X obj 827 178 once;
#X obj 308 289 t a b b;
#X obj 878 203 myscale 0 85;
#X obj 306 334 text3d_ml;
#X obj 836 60 route text size color font read;
#X obj 893 237 bng 15 250 50 0 empty empty empty 17 7 0 10 -262144
-1 -1;
#X obj 893 257 openpanel;
#X obj 1068 358 list trim;
#X msg 1041 435 read /home/husk/Downloads/testing.txt;
#X obj 1041 312 t b a;
#X obj 894 282 route <no_file_specified>;
#X obj 1066 336 list prepend set read;
#X obj 406 111 list prepend text;
#X obj 408 135 list trim;
#X connect 0 0 12 0;
#X connect 1 0 2 0;
#X connect 2 0 4 0;
#X connect 3 0 23 0;
#X connect 5 0 3 0;
#X connect 6 0 26 0;
#X connect 7 0 2 0;
#X connect 8 0 24 0;
#X connect 9 0 8 0;
#X connect 12 0 5 0;
#X connect 12 1 2 1;
#X connect 13 0 14 0;
#X connect 14 0 18 0;
#X connect 15 0 16 0;
#X connect 16 0 25 0;
#X connect 17 0 16 0;
#X connect 17 1 19 0;
#X connect 18 1 17 0;
#X connect 19 0 15 0;
#X connect 20 0 25 0;
#X connect 21 0 20 0;
#X connect 22 0 8 0;
#X connect 23 0 25 0;
#X connect 23 1 21 0;
#X connect 23 2 22 0;
#X connect 24 0 25 1;
#X connect 26 0 34 0;
#X connect 26 1 24 0;
#X connect 26 2 3 1;
#X connect 26 3 13 0;
#X connect 26 4 27 0;
#X connect 27 0 28 0;
#X connect 28 0 32 0;
#X connect 29 0 30 0;
#X connect 30 0 25 0;
#X connect 31 0 30 0;
#X connect 31 1 33 0;
#X connect 32 1 31 0;
#X connect 33 0 29 0;
#X connect 34 0 35 0;
#X connect 35 0 25 0;
