#N canvas 166 500 1614 567 10;
#X declare -path libs/abs;
#X obj 306 178 gemhead 20;
#X obj 334 431 gemhead;
#X obj 338 459 pix_texture;
#X obj 341 491 outlet;
#X obj 306 220 translateXYZ 0 0 -1.1;
#X obj 1056 29 inlet;
#X msg 247 417 rectangle 1;
#X msg 800 222 load 0 1;
#X obj 798 198 loadbang;
#X obj 754 466 namecanvas \$1;
#X obj 757 497 declare -path libs/abs;
#X obj 307 197 ev_buf \$1;
#X obj 586 158 bng 15 250 50 0 empty empty empty 17 7 0 10 -262144
-1 -1;
#X obj 586 178 openpanel;
#X obj 696 343 list trim;
#X msg 669 420 font /usr/share/fonts/truetype/dejavu/DejaVuSans-Bold.ttf
;
#X obj 669 297 t b a;
#X obj 587 203 route <no_file_specified>;
#X obj 694 321 list prepend set font;
#X msg 418 329 text pantaliQa;
#X obj 420 299 once;
#X obj 796 174 once;
#X obj 308 289 t a b b;
#X obj 799 248 myscale 0 85;
#X obj 306 334 text3d_ml;
#X obj 893 237 bng 15 250 50 0 empty empty empty 17 7 0 10 -262144
-1 -1;
#X obj 893 257 openpanel;
#X obj 1068 358 list trim;
#X msg 1041 435 read /home/husk/Downloads/testing.txt;
#X obj 1041 312 t b a;
#X obj 894 282 route <no_file_specified>;
#X obj 1066 336 list prepend set read;
#X obj 406 111 list prepend text;
#X obj 408 135 list trim;
#X obj 1059 53 route text size font read r g b;
#X obj 305 255 colorRGB 1 1 1 1;
#X obj 457 160 r /q/text/\$1/r;
#X obj 468 186 r /q/text/\$1/g;
#X obj 478 209 r /q/text/\$1/b;
#X obj 1161 182 s /q/text/\$1/r;
#X obj 1182 209 s /q/text/\$1/g;
#X obj 1211 233 s /q/text/\$1/b;
#X obj 794 152 r /q/text/\$1/size;
#X obj 1085 81 s /q/text/\$1/size;
#X obj 1057 105 s /q/text/\$1/text;
#X obj 405 86 r /q/text/\$1/text;
#X obj 1099 134 s /q/text/\$1/font;
#X obj 587 123 r /q/text/\$1/font;
#X obj 891 214 r /q/text/\$1/read;
#X obj 1133 157 s /q/text/\$1/read;
#X connect 0 0 11 0;
#X connect 1 0 2 0;
#X connect 2 0 3 0;
#X connect 4 0 35 0;
#X connect 5 0 34 0;
#X connect 6 0 2 0;
#X connect 7 0 23 0;
#X connect 8 0 7 0;
#X connect 11 0 4 0;
#X connect 11 1 2 1;
#X connect 12 0 13 0;
#X connect 13 0 17 0;
#X connect 14 0 15 0;
#X connect 15 0 24 0;
#X connect 16 0 15 0;
#X connect 16 1 18 0;
#X connect 17 1 16 0;
#X connect 18 0 14 0;
#X connect 19 0 24 0;
#X connect 20 0 19 0;
#X connect 21 0 7 0;
#X connect 22 0 24 0;
#X connect 22 1 20 0;
#X connect 22 2 21 0;
#X connect 23 0 24 1;
#X connect 25 0 26 0;
#X connect 26 0 30 0;
#X connect 27 0 28 0;
#X connect 28 0 24 0;
#X connect 29 0 28 0;
#X connect 29 1 31 0;
#X connect 30 1 29 0;
#X connect 31 0 27 0;
#X connect 32 0 33 0;
#X connect 33 0 24 0;
#X connect 34 0 44 0;
#X connect 34 1 43 0;
#X connect 34 2 46 0;
#X connect 34 3 49 0;
#X connect 34 4 39 0;
#X connect 34 5 40 0;
#X connect 34 6 41 0;
#X connect 35 0 22 0;
#X connect 36 0 35 1;
#X connect 37 0 35 2;
#X connect 38 0 35 3;
#X connect 42 0 23 0;
#X connect 45 0 32 0;
#X connect 47 0 12 0;
#X connect 48 0 25 0;
