#N canvas 517 298 830 300 10;
#X obj 129 101 qvideoplayer;
#X obj 42 45 openpanel;
#X obj 42 18 bng 15 250 50 0 empty empty empty 17 7 0 10 -262144 -1
-1;
#X msg 42 69 video \$1;
#N canvas 1 104 450 300 gemwin 0;
#X obj 132 136 gemwin;
#X obj 67 89 outlet;
#X obj 67 10 inlet;
#X msg 67 70 set destroy;
#X msg 132 112 create \, 1;
#X msg 198 112 destroy;
#X msg 156 71 set create;
#X obj 67 41 route create;
#X connect 2 0 7 0;
#X connect 3 0 1 0;
#X connect 4 0 0 0;
#X connect 5 0 0 0;
#X connect 6 0 1 0;
#X connect 7 0 3 0;
#X connect 7 0 4 0;
#X connect 7 1 6 0;
#X connect 7 1 5 0;
#X restore 484 136 pd gemwin;
#X msg 484 117 destroy;
#X text 480 96 Create window:;
#X obj 129 158 pix_texture;
#X obj 129 184 rectangle 4 3;
#X msg 132 14 play;
#X msg 172 15 stop;
#X obj 230 157 route end totalframe progress;
#X obj 230 204 bng 15 250 50 0 empty empty empty 17 7 0 10 -262144
-1 -1;
#X floatatom 270 206 5 0 0 0 - - -, f 5;
#X obj 462 222 hsl 128 15 0 1 0 0 empty empty empty -2 -8 0 10 -262144
-1 -1 0 1;
#X msg 228 15 begin;
#X msg 413 42 fps 25;
#X obj 462 178 hsl 128 15 0 1 0 0 empty empty empty -2 -8 0 10 -262144
-1 -1 0 1;
#X obj 462 200 hsl 128 15 0 1 0 0 empty empty empty -2 -8 0 10 -262144
-1 -1 0 1;
#X msg 490 15 loopin \$1;
#X msg 499 45 loopout \$1;
#X obj 462 253 hsl 128 15 0 1 0 0 empty empty empty -2 -8 0 10 -262144
-1 -1 0 1;
#X msg 310 14 scratch \$1;
#X msg 413 15 fps 50;
#X msg 355 93 ms 3000;
#X connect 0 0 7 0;
#X connect 0 1 11 0;
#X connect 1 0 3 0;
#X connect 2 0 1 0;
#X connect 3 0 0 0;
#X connect 4 0 5 0;
#X connect 5 0 4 0;
#X connect 7 0 8 0;
#X connect 9 0 0 0;
#X connect 10 0 0 0;
#X connect 11 0 12 0;
#X connect 11 1 13 0;
#X connect 11 2 14 0;
#X connect 15 0 0 0;
#X connect 16 0 0 0;
#X connect 17 0 19 0;
#X connect 18 0 20 0;
#X connect 19 0 0 0;
#X connect 20 0 0 0;
#X connect 21 0 22 0;
#X connect 22 0 0 0;
#X connect 23 0 0 0;
#X connect 24 0 0 0;
