#N canvas 0 81 1366 687 10;
#X obj 102 121 cnv 15 250 137 empty empty empty 20 12 0 14 -1 -66577
0;
#X obj 101 101 cnv 15 250 20 empty \$0-name VIDEOBUFFER_tttt 20 12
0 14 -128992 -262144 0;
#X obj 102 102 cnv 15 15 15 empty empty empty 20 12 0 14 -260097 -66577
0;
#X obj 336 100 cnv 15 15 15 empty empty empty 20 12 0 14 -4034 -66577
0;
#N canvas 708 163 594 505 player 0;
#X floatatom 312 255 3 0 9 2 index - -;
#X obj 249 117 tgl 15 0 empty empty empty 17 7 0 10 -262144 -1 -1 0
1;
#X obj 247 136 t f f;
#X obj 300 174 metro 70;
#X obj 214 258 inlet;
#X obj 180 52 loadbang;
#X msg 184 101 0;
#X msg 215 130 1;
#X obj 301 196 counter 1 100;
#X msg 214 283 set \$1;
#N canvas 185 167 463 402 frame4bank 0;
#X obj -539 269 list-fifo;
#X obj -478 149 hradio 15 1 0 8 empty empty empty 0 -6 0 8 -262144
-1 -1 1;
#X obj -518 211 list-replace 2;
#X msg -435 189 0 0 0 0 0 0 0 0;
#X obj -397 216 t l;
#X obj -514 92 unpack;
#X obj -434 168 loadbang;
#X obj -587 298 list-seek;
#X obj -593 175 t f b;
#X obj -588 328 outlet;
#X obj -493 362 s sequencer-total-frame;
#X obj -515 71 r \$0-recorded_frames;
#X obj -517 241 t a b;
#X obj -593 142 r \$0-readbank;
#X msg -563 113 1;
#X obj -466 316 print readbank;
#X obj -352 284 print replace;
#X connect 0 0 7 1;
#X connect 0 0 16 0;
#X connect 1 0 2 1;
#X connect 2 0 4 0;
#X connect 2 0 12 0;
#X connect 3 0 2 2;
#X connect 4 0 2 2;
#X connect 5 0 2 0;
#X connect 5 1 1 0;
#X connect 6 0 3 0;
#X connect 7 0 9 0;
#X connect 7 0 10 0;
#X connect 8 0 7 0;
#X connect 8 1 0 0;
#X connect 11 0 5 0;
#X connect 12 0 0 1;
#X connect 12 1 0 2;
#X connect 13 0 8 0;
#X connect 13 0 15 0;
#X connect 14 0 8 0;
#X restore 367 156 pd frame4bank;
#N canvas 9 267 750 392 reciver 0;
#X msg 145 80 stop;
#X obj 73 294 outlet;
#X floatatom 339 115 5 0 0 0 - - -;
#X obj 305 134 random;
#X floatatom 63 85 5 0 0 0 - - -;
#X obj 219 170 outlet;
#X msg 557 92 jam 1;
#X msg 61 128 jam 0;
#X msg 315 194 jam \$1;
#X msg 62 104 set jam \$1;
#X msg 184 190 1;
#X obj 49 35 r \$0-play;
#X obj 144 32 r \$0-stop;
#X obj 309 26 r \$0-random;
#X obj 558 44 r \$0-rewind;
#X obj 20 60 r \$0-sequencer-current-frame;
#X obj 339 92 r sequencer-total-frame;
#X obj 315 76 metro 1000;
#X msg 312 49 1;
#X msg 237 74 0;
#X obj 554 119 t a b;
#X obj 571 198 outlet;
#X obj 611 147 bng 15 250 50 0 empty empty empty 17 7 0 10 -262144
-1 -1;
#X msg 572 143 1;
#X msg 446 238 0;
#X connect 0 0 5 0;
#X connect 0 0 19 0;
#X connect 0 0 24 0;
#X connect 2 0 3 1;
#X connect 3 0 8 0;
#X connect 4 0 9 0;
#X connect 6 0 20 0;
#X connect 7 0 1 0;
#X connect 8 0 1 0;
#X connect 9 0 7 0;
#X connect 10 0 5 0;
#X connect 11 0 7 0;
#X connect 11 0 10 0;
#X connect 11 0 19 0;
#X connect 11 0 24 0;
#X connect 12 0 0 0;
#X connect 13 0 10 0;
#X connect 13 0 18 0;
#X connect 13 0 24 0;
#X connect 14 0 6 0;
#X connect 14 0 19 0;
#X connect 15 0 4 0;
#X connect 16 0 2 0;
#X connect 17 0 3 0;
#X connect 18 0 17 0;
#X connect 19 0 17 0;
#X connect 20 0 1 0;
#X connect 20 1 23 0;
#X connect 22 0 21 0;
#X connect 23 0 21 0;
#X connect 24 0 21 0;
#X restore 265 87 pd reciver;
#X obj 201 313 pix_buffer_read;
#X obj 201 199 gemhead 104;
#X obj 201 349 outlet;
#X obj 306 216 - 1;
#X obj 245 33 r \$0-sequencer-play;
#X obj 336 271 s \$0-sequencer-current-frame;
#X connect 0 0 12 1;
#X connect 0 0 17 0;
#X connect 1 0 2 0;
#X connect 2 0 3 0;
#X connect 2 1 13 0;
#X connect 3 0 8 0;
#X connect 4 0 9 0;
#X connect 5 0 6 0;
#X connect 6 0 13 0;
#X connect 7 0 13 0;
#X connect 8 0 15 0;
#X connect 9 0 12 0;
#X connect 10 0 8 4;
#X connect 11 0 8 0;
#X connect 11 1 3 0;
#X connect 11 2 8 1;
#X connect 12 0 14 0;
#X connect 13 0 12 0;
#X connect 15 0 0 0;
#X connect 16 0 1 0;
#X restore -55 -60 pd player;
#N canvas 251 248 769 516 memory_buffer 0;
#X floatatom -256 -70 5 0 0 0 - - -;
#X text -340 -90 dimension;
#X msg -227 -111 allocate 640 480 4;
#X obj -226 -131 loadbang;
#X floatatom -259 53 5 0 0 0 - - -;
#X text -343 33 dimension;
#X msg -223 9 allocate 640 480 4;
#X floatatom -275 189 5 0 0 0 - - -;
#X text -359 169 dimension;
#X msg -226 145 allocate 640 480 4;
#X obj -225 125 loadbang;
#X floatatom -278 312 5 0 0 0 - - -;
#X text -362 292 dimension;
#X msg -249 267 allocate 640 480 4;
#X obj -248 247 loadbang;
#X obj -253 -156 r seq0;
#X obj -253 -36 r seq1;
#X obj -272 120 r seq2;
#X floatatom -41 -72 5 0 0 0 - - -;
#X text -125 -92 dimension;
#X msg -12 -113 allocate 640 480 4;
#X obj -11 -133 loadbang;
#X floatatom -44 51 5 0 0 0 - - -;
#X text -128 31 dimension;
#X msg -8 7 allocate 640 480 4;
#X obj -7 -13 loadbang;
#X floatatom -60 187 5 0 0 0 - - -;
#X text -144 167 dimension;
#X msg -11 144 allocate 640 480 4;
#X obj -10 123 loadbang;
#X floatatom -63 310 5 0 0 0 - - -;
#X text -147 290 dimension;
#X msg -34 265 allocate 640 480 4;
#X obj -33 245 loadbang;
#X obj -38 -38 r seq5;
#X obj -57 118 r seq6;
#X obj -278 221 r seq3;
#X obj -38 -158 r seq4;
#X obj -63 219 r seq7;
#X obj -189 -32 print;
#X obj -261 -92 pix_buffer \$0-seq0 1;
#X obj -259 30 pix_buffer \$0-seq1 10;
#X obj -273 167 pix_buffer \$0-seq2 10;
#X obj -277 290 pix_buffer \$0-seq3 10;
#X obj -44 -90 pix_buffer \$0-seq4 1;
#X obj -44 28 pix_buffer \$0-seq5 10;
#X obj -60 164 pix_buffer \$0-seq6 10;
#X obj -62 288 pix_buffer \$0-seq7 10;
#X connect 2 0 40 0;
#X connect 3 0 2 0;
#X connect 6 0 41 0;
#X connect 9 0 42 0;
#X connect 10 0 9 0;
#X connect 13 0 43 0;
#X connect 14 0 13 0;
#X connect 15 0 40 0;
#X connect 16 0 39 0;
#X connect 16 0 41 0;
#X connect 17 0 42 0;
#X connect 20 0 44 0;
#X connect 21 0 20 0;
#X connect 24 0 45 0;
#X connect 25 0 24 0;
#X connect 28 0 46 0;
#X connect 29 0 28 0;
#X connect 32 0 47 0;
#X connect 33 0 32 0;
#X connect 34 0 45 0;
#X connect 35 0 46 0;
#X connect 36 0 43 0;
#X connect 37 0 44 0;
#X connect 38 0 47 0;
#X connect 40 0 0 0;
#X connect 41 0 4 0;
#X connect 42 0 7 0;
#X connect 43 0 11 0;
#X connect 44 0 18 0;
#X connect 45 0 22 0;
#X connect 46 0 26 0;
#X connect 47 0 30 0;
#X restore 507 -199 pd memory_buffer;
#X obj 252 268 sel 0 1;
#X obj 157 189 hradio 16 1 0 4 empty empty ACTIONS:P/S/R/RW -17 -6
0 8 -99865 -262144 -258113 0;
#X obj 135 237 hradio 14 1 0 8 \$0-bank keybank empty 20 -6 0 10 -99865
-262144 -1 1;
#X obj 9 218 loadbang;
#X text 472 262 by Luca Carrubba - for gemq.info project - free to
share/modify/cannibalize as you want - www.estereotips.net // luca@estereotips.net
;
#X obj 129 211 cnv 1 1 1 empty empty record_sample 20 12 0 14 -1 -258113
0;
#X obj 272 231 tgl 14 0 empty empty Record 17 7 0 10 -258113 -1 -258113
0 1;
#X obj 269 159 tgl 15 0 empty empty Play 17 7 0 10 -4034 -258113 -4034
0 1;
#X obj 372 -99 inlet;
#X obj -78 -130 inlet;
#X obj 536 19 unpack f f f;
#X obj 521 130 gate 8;
#X obj 549 82 pack f f f;
#X obj 534 50 t b f;
#X obj 521 150 unpack 0 0 0;
#X obj 555 171 - 1;
#X obj 591 170 - 1;
#N canvas 8 94 693 300 readme 0;
#X msg 172 144 status \$1;
#X msg 172 124 record \$1;
#X msg 172 185 aPreset \$1;
#X msg 171 206 mBank \$1;
#X text 180 89 Methods;
#X text 241 123 0 | 1 start and stop video sample recording;
#X text 239 143 0 | 1 start and stop video sequencer;
#X text 248 182 1...4 action preset for all steps;
#X text 244 205 1...8 set the memory where record;
#X text 248 166 1...8 set memory for play_sample;
#X msg 172 165 mSample \$1;
#X restore 512 -335 pd readme;
#X obj 466 39 - 1;
#X obj -96 72 outlet;
#N canvas 524 190 356 255 read 0;
#X obj 130 179 outlet;
#X obj 133 108 r \$0-readbank;
#X obj 130 144 makefilename \$0-seq%d;
#X connect 1 0 2 0;
#X connect 2 0 0 0;
#X restore -55 -80 pd read;
#X obj -100 18 switch 2;
#X msg -205 67 1;
#X obj -100 -143 + 1;
#X obj 245 306 s \$0-record-stop;
#X obj 269 322 s \$0-record-start;
#X obj -207 38 loadbang;
#X obj -208 16 initbang;
#X obj 507 -276 r \$0-bank;
#X obj 128 -36 t b;
#X obj 230 371 s \$0-sequencer-play;
#X obj 131 -61 r \$0-sequencer-play;
#X obj 509 -236 s \$0-buffer_name;
#X obj 127 158 hradio 14 1 0 8 \$0-readbank empty empty 20 -6 0 10
-99865 -262144 -1 2;
#X obj -101 -163 r \$0-sequencer-play;
#N canvas 4 100 997 616 record 0;
#X obj 363 -608 t b b;
#X floatatom 507 -175 3 0 9 2 index - -;
#X obj 402 -348 tgl 15 1 empty empty texture_on/off 20 7 0 8 -262144
-1 -1 1 1;
#X obj 419 -398 spigot;
#X obj 466 -400 t b f;
#X obj 452 -419 tgl 15 0 empty empty empty 0 -6 0 8 -262144 -1 -1 0
1;
#X obj 392 -459 t a b;
#X obj 361 -685 tgl 15 0 empty empty empty 17 7 0 10 -262144 -1 -1
0 1;
#X obj 340 -553 gemhead 101;
#X obj 396 -312 pix_snap;
#X obj 412 -515 t b f;
#X obj 364 -626 metro 70;
#X msg 411 -179 set \$1;
#X obj 413 -578 i;
#X obj 439 -579 + 1;
#X msg 435 -601 0;
#X msg 502 -321 set \$1;
#X msg 501 -296 28;
#X obj 509 -269 i;
#X obj 506 -244 pack 0 0;
#X msg 460 -510 resize \$1;
#X obj 326 -627 bng 15 250 50 0 empty empty empty 17 7 0 10 -262144
-1 -1;
#X obj 398 -149 pix_buffer_write seq0;
#X obj 363 -659 t f f b;
#X obj 455 -533 + 1;
#X obj 413 -554 t f f f;
#X obj 468 -445 s;
#X floatatom 130 -445 5 0 0 0 - - -;
#X obj 130 -473 flow.value.changes gems.win/width;
#X floatatom 130 -390 5 0 0 0 - - -;
#X obj 130 -418 flow.value.changes gems.win/height;
#X obj 115 -358 pack 800 600;
#X msg 115 -332 \$1 \$2;
#X obj 131 -533 bng 15 250 50 0 empty empty empty 17 7 0 10 -262144
-1 -1;
#X obj 130 -507 t b b;
#X obj 177 -540 initbang;
#X obj 235 -530 loadbang;
#X obj 369 -736 r \$0-record-start;
#X obj 572 -326 r \$0-record-stop;
#X obj 403 -701 r \$0-record-stop;
#X obj 551 -271 r \$0-bank;
#X obj 511 -217 s \$0-recorded_frames;
#X obj 480 -478 r \$0-buffer_name;
#X obj 410 -212 r \$0-buffer_name;
#X connect 0 0 13 0;
#X connect 1 0 22 1;
#X connect 2 0 9 0;
#X connect 3 0 4 0;
#X connect 4 0 9 0;
#X connect 4 1 5 0;
#X connect 5 0 3 1;
#X connect 6 0 9 0;
#X connect 6 1 3 0;
#X connect 7 0 23 0;
#X connect 8 0 6 0;
#X connect 9 0 22 0;
#X connect 10 0 5 0;
#X connect 10 1 1 0;
#X connect 11 0 0 0;
#X connect 12 0 22 0;
#X connect 13 0 14 0;
#X connect 13 0 25 0;
#X connect 14 0 13 1;
#X connect 15 0 13 1;
#X connect 16 0 17 0;
#X connect 17 0 18 0;
#X connect 18 0 19 0;
#X connect 19 0 41 0;
#X connect 20 0 26 0;
#X connect 21 0 0 0;
#X connect 23 0 11 0;
#X connect 23 1 8 0;
#X connect 23 2 15 0;
#X connect 24 0 20 0;
#X connect 25 0 10 0;
#X connect 25 1 16 0;
#X connect 25 2 24 0;
#X connect 27 0 31 0;
#X connect 28 0 27 0;
#X connect 28 1 27 0;
#X connect 29 0 31 1;
#X connect 30 0 29 0;
#X connect 30 1 29 0;
#X connect 31 0 32 0;
#X connect 32 0 9 2;
#X connect 33 0 34 0;
#X connect 34 0 28 0;
#X connect 34 1 30 0;
#X connect 35 0 33 0;
#X connect 36 0 33 0;
#X connect 37 0 7 0;
#X connect 38 0 17 0;
#X connect 39 0 7 0;
#X connect 40 0 19 1;
#X connect 42 0 26 1;
#X connect 43 0 12 0;
#X restore 509 -181 pd record;
#X obj 508 -258 makefilename \$0-seq%d;
#X obj 392 180 tgl 15 0 empty empty View 17 7 0 10 -262144 -1 -258113
1 1;
#X obj 397 216 == 0;
#X obj -200 251 sel 0 1 2 3;
#X obj -196 295 s \$0-play;
#X obj -126 296 s \$0-stop;
#X obj -35 298 s \$0-random;
#X obj 53 343 s \$0-rewind;
#X obj 396 111 startbang;
#X obj 101 244 cnv 15 15 15 empty empty empty 20 12 0 14 -260097 -66577
0;
#N canvas 838 272 450 300 visualize 0;
#X obj 68 103 tgl 15 0 empty empty empty 17 7 0 10 -262144 -1 -1 0
1;
#X obj 57 132 list prepend \$1;
#X obj 28 37 r /global/vis;
#X obj 36 65 r /\$1/vis;
#X msg 63 168 \; \$1 donecanvasdialog 1 -1 \$2 0 -1 1 1 252 160 100
100;
#X connect 0 0 1 0;
#X connect 1 0 4 0;
#X connect 2 0 1 0;
#X connect 3 0 1 0;
#X restore 510 -314 pd visualize;
#X obj 742 -60 prepend \$0;
#X obj 737 -113 startbang;
#X obj 743 -88 symbol \$1;
#X msg 742 -38 \; \$1-name label VIDEOBUFFER_\$2;
#X obj 812 -116 bng 15 250 50 0 empty empty empty 17 7 0 10 -262144
-1 -1;
#X obj 124 132 cnv 1 1 1 empty empty play_sample 20 12 0 14 -1 -258113
0;
#X obj 344 -257 namecanvas \$1;
#X obj 370 257 sel 1;
#X msg 378 288 0;
#X msg 705 108;
#X obj 376 -35 route status record mSample aPreset mBank step;
#X obj 440 16 - 1;
#X connect 4 0 27 2;
#X connect 6 0 30 0;
#X connect 6 1 31 0;
#X connect 7 0 45 0;
#X connect 9 0 8 0;
#X connect 12 0 6 0;
#X connect 12 0 60 0;
#X connect 13 0 36 0;
#X connect 14 0 63 0;
#X connect 15 0 27 1;
#X connect 16 0 19 0;
#X connect 16 1 18 1;
#X connect 16 2 18 2;
#X connect 17 0 20 0;
#X connect 18 0 17 1;
#X connect 19 0 18 0;
#X connect 19 1 17 0;
#X connect 20 1 21 0;
#X connect 20 2 22 0;
#X connect 21 0 39 0;
#X connect 22 0 7 0;
#X connect 24 0 8 0;
#X connect 26 0 4 0;
#X connect 27 0 25 0;
#X connect 28 0 27 0;
#X connect 29 0 27 0;
#X connect 32 0 28 0;
#X connect 33 0 28 0;
#X connect 34 0 42 0;
#X connect 35 0 39 0;
#X connect 37 0 35 0;
#X connect 40 0 29 0;
#X connect 42 0 38 0;
#X connect 43 0 44 0;
#X connect 44 0 13 0;
#X connect 45 0 46 0;
#X connect 45 1 47 0;
#X connect 45 2 48 0;
#X connect 45 3 49 0;
#X connect 50 0 43 0;
#X connect 53 0 56 0;
#X connect 54 0 55 0;
#X connect 55 0 53 0;
#X connect 57 0 55 0;
#X connect 60 0 61 0;
#X connect 61 0 13 0;
#X connect 63 0 13 0;
#X connect 63 1 12 0;
#X connect 63 2 64 0;
#X connect 63 4 24 0;
#X connect 63 5 16 0;
#X connect 64 0 39 0;
#X coords 0 -1 1 1 252 160 1 100 100;
