#N canvas 0 92 1905 998 10;
#N canvas 218 303 1466 700 memory_buffer 0;
#X obj 371 101 r seq0;
#X obj 370 168 pix_buffer \$0-seq0 1;
#X obj 403 126 pack 800 600;
#X obj 404 75 r Qwin.width;
#X obj 472 101 r Qwin.height;
#X msg 404 149 allocate \$1 \$2 4;
#X connect 0 0 1 0;
#X connect 2 0 5 0;
#X connect 3 0 2 0;
#X connect 4 0 2 1;
#X connect 5 0 1 0;
#X restore 193 341 pd memory_buffer;
#X obj 1275 223 inlet;
#X obj 166 183 inlet;
#X obj 210 580 outlet;
#N canvas 0 204 997 876 record 0;
#X floatatom 576 475 3 0 9 2 index - -, f 3;
#X obj 566 88 tgl 15 0 empty empty empty 17 7 0 10 -262144 -1 -1 0
1;
#X obj 572 143 metro 70;
#X obj 576 197 i;
#X obj 602 196 + 1;
#X msg 598 174 0;
#X msg 598 616 set \$1;
#X msg 597 641 32;
#X obj 597 665 i;
#X obj 597 683 pack 0 0;
#X msg 623 265 resize \$1;
#X obj 618 242 + 1;
#X obj 576 221 t f f f;
#X obj 642 656 r \$0-bank;
#X obj 598 709 s \$0-recorded_frames;
#X obj 565 64 inlet;
#X obj 467 463 inlet;
#X obj 467 540 outlet;
#X obj 621 285 s seq0;
#X obj 626 380 sel 0;
#X obj 567 109 t f b f;
#X obj 467 501 pix_buffer_write \$0-seq0;
#X connect 0 0 21 1;
#X connect 1 0 20 0;
#X connect 2 0 3 0;
#X connect 3 0 4 0;
#X connect 3 0 12 0;
#X connect 4 0 3 1;
#X connect 5 0 3 1;
#X connect 6 0 7 0;
#X connect 7 0 8 0;
#X connect 8 0 9 0;
#X connect 9 0 14 0;
#X connect 10 0 18 0;
#X connect 11 0 10 0;
#X connect 12 0 0 0;
#X connect 12 1 6 0;
#X connect 12 2 11 0;
#X connect 13 0 9 1;
#X connect 15 0 1 0;
#X connect 16 0 21 0;
#X connect 19 0 7 0;
#X connect 20 0 2 0;
#X connect 20 1 5 0;
#X connect 20 2 19 0;
#X connect 21 0 17 0;
#X restore 166 416 pd record;
#X obj 811 196 namecanvas \$1;
#X obj 193 231 once;
#X obj 192 254 list prepend \$1;
#X obj 166 205 t a b;
#X obj 216 511 expr 1-$f1;
#X obj 216 490 t f f;
#X obj 174 533 spigot 1;
#X obj 248 537 spigot 0;
#N canvas 172 221 594 505 play 0;
#X floatatom 312 255 3 0 9 2 index - -, f 3;
#X obj 249 117 tgl 15 0 empty empty empty 17 7 0 10 -262144 -1 -1 0
1;
#X obj 247 136 t f f;
#X obj 201 349 outlet;
#X obj 306 216 - 1;
#X obj 315 276 s \$0-sequencer-current-frame;
#X obj 199 199 inlet;
#X obj 245 33 r /q/videobuffer/\$1/play;
#X obj 301 196 cyclone/counter 1 100;
#X obj 423 115 r \$0-recorded_frames;
#X obj 201 314 pix_buffer_read \$0-seq0;
#X obj 299 164 metro 60;
#X obj 423 137 t b f;
#X msg 454 173 set \$1;
#X msg 454 195 32;
#N canvas 640 356 1281 300 playtype 0;
#X obj 582 50 r \$0-sequencer-current-frame;
#X text 77 22 normal;
#X text 322 27 rewind;
#X obj 325 269 outlet;
#X obj 60 56 r /q/videobuffer/\$1/playtype/normal;
#X obj 60 78 t b b;
#X obj 289 53 r /q/videobuffer/\$1/playtype/rewind;
#X msg 627 103 1;
#X obj 583 134 spigot 0;
#X msg 60 100 0;
#X obj 59 123 s \$0-stop-palindrome;
#X obj 660 104 r \$0-stop-palindrome;
#X obj 880 52 r /q/videobuffer/\$1/playtype/random;
#X msg 881 102 0;
#X obj 880 125 s \$0-stop-palindrome;
#X obj 1059 186 random;
#X obj 1092 138 r \$0-recorded_frames;
#X msg 94 100 up;
#X obj 585 265 outlet;
#X obj 290 83 t b b;
#X msg 290 105 0;
#X obj 289 128 s \$0-stop-palindrome;
#X msg 324 105 down;
#X msg 1059 209 jam \$1;
#X obj 1108 54 r /q/videobuffer/\$1/playtype/random/velocity;
#X obj 880 74 t b b b;
#X msg 922 99 up;
#X obj 1059 117 metro 300;
#X obj 1092 160 - 1;
#X obj 627 81 r /q/videobuffer/\$1/playtype/plaindrome;
#X obj 583 106 sel 0;
#X obj 655 180 sel;
#X obj 669 132 r \$0-recorded_frames;
#X obj 669 154 - 1;
#X obj 583 79 t f f;
#X msg 698 191 1;
#X obj 654 222 spigot 0;
#X obj 731 192 r \$0-stop-palindrome;
#X obj 698 169 r /q/videobuffer/\$1/playtype/plaindrome;
#X connect 0 0 34 0;
#X connect 4 0 5 0;
#X connect 5 0 9 0;
#X connect 5 1 17 0;
#X connect 6 0 19 0;
#X connect 7 0 8 1;
#X connect 8 0 18 0;
#X connect 9 0 10 0;
#X connect 11 0 8 1;
#X connect 12 0 25 0;
#X connect 13 0 14 0;
#X connect 15 0 23 0;
#X connect 16 0 28 0;
#X connect 17 0 3 0;
#X connect 19 0 20 0;
#X connect 19 1 22 0;
#X connect 20 0 21 0;
#X connect 22 0 3 0;
#X connect 23 0 3 0;
#X connect 24 0 27 1;
#X connect 25 0 13 0;
#X connect 25 1 27 0;
#X connect 25 2 26 0;
#X connect 26 0 3 0;
#X connect 27 0 15 0;
#X connect 28 0 15 1;
#X connect 29 0 7 0;
#X connect 30 0 8 0;
#X connect 31 0 36 0;
#X connect 32 0 33 0;
#X connect 33 0 31 1;
#X connect 34 0 30 0;
#X connect 34 1 31 0;
#X connect 35 0 36 1;
#X connect 36 0 18 0;
#X connect 37 0 36 1;
#X connect 38 0 35 0;
#X restore 352 61 pd playtype;
#X floatatom 362 162 5 0 0 0 - - -, f 5;
#X connect 0 0 5 0;
#X connect 0 0 10 1;
#X connect 1 0 2 0;
#X connect 2 0 11 0;
#X connect 4 0 0 0;
#X connect 6 0 10 0;
#X connect 7 0 1 0;
#X connect 8 0 4 0;
#X connect 9 0 12 0;
#X connect 10 0 3 0;
#X connect 11 0 8 0;
#X connect 12 0 14 0;
#X connect 12 1 13 0;
#X connect 13 0 14 0;
#X connect 14 0 8 4;
#X connect 15 0 8 0;
#X connect 15 1 8 1;
#X connect 16 0 11 1;
#X restore 249 462 pd play;
#X obj 215 391 r /q/videobuffer/\$1/record;
#X obj 1278 470 s /q/videobuffer/\$1/record;
#X obj 1324 542 s /q/videobuffer/\$1/play;
#X obj 215 439 r /q/videobuffer/\$1/play;
#X obj 1368 437 sel normal rewind palindrome random;
#X obj 1369 642 s /q/videobuffer/\$1/playtype/normal;
#X obj 1369 614 t b;
#X obj 1419 584 t b;
#X obj 1419 612 s /q/videobuffer/\$1/playtype/rewind;
#X obj 1472 673 t b;
#X obj 1472 701 s /q/videobuffer/\$1/playtype/plaindrome;
#X obj 1531 723 t b;
#X obj 1531 751 s /q/videobuffer/\$1/playtype/random;
#X obj 1444 365 s /q/videobuffer/\$1/playtype/random/velocity;
#X obj 1447 338 myscale 5000 70;
#X msg 1485 312 load 0 1;
#X msg 191 273 \; Qwin.getdim bang \;;
#X obj 188 322 s \$0-init;
#X obj 1483 293 r \$0-init;
#X obj 1276 254 route record play playtype randomVelocity;
#X obj 1385 327 symbol;
#X connect 1 0 33 0;
#X connect 2 0 8 0;
#X connect 4 0 11 0;
#X connect 4 0 13 0;
#X connect 6 0 7 0;
#X connect 6 0 31 0;
#X connect 7 0 30 0;
#X connect 8 0 4 0;
#X connect 8 1 6 0;
#X connect 9 0 11 1;
#X connect 10 0 9 0;
#X connect 10 1 12 1;
#X connect 11 0 3 0;
#X connect 12 0 3 0;
#X connect 13 0 12 0;
#X connect 14 0 4 1;
#X connect 17 0 10 0;
#X connect 18 0 20 0;
#X connect 18 1 21 0;
#X connect 18 2 23 0;
#X connect 18 3 25 0;
#X connect 20 0 19 0;
#X connect 21 0 22 0;
#X connect 23 0 24 0;
#X connect 25 0 26 0;
#X connect 28 0 27 0;
#X connect 29 0 28 0;
#X connect 32 0 29 0;
#X connect 33 0 15 0;
#X connect 33 1 16 0;
#X connect 33 2 34 0;
#X connect 33 3 28 0;
#X connect 34 0 18 0;
#X coords 0 998 1 997 252 160 0;
