#N canvas 15 394 1905 686 10;
#X obj 194 346 pix_film;
#X obj 890 68 inlet;
#X obj 194 577 outlet;
#X msg 512 242 stop;
#X msg 446 242 bang;
#X msg 138 219 open \$1;
#X obj 138 197 symbol;
#X obj 510 148 t b;
#X msg 245 594 totalframe \$1;
#X obj 216 441 s \$0-totalframe;
#X obj 241 546 r \$0-totalframe;
#X obj 611 585 /;
#X obj 542 148 t b;
#X msg 491 607 end;
#X obj 216 394 unpack 0 0 0 0;
#X obj 343 621 outlet;
#X obj 342 553 pack f f;
#X obj 341 573 list prepend video.dim;
#X obj 342 591 list trim;
#X obj 887 49 namecanvas \$1;
#X obj 138 176 r /q/videoplayer/\$1/video;
#X obj 191 284 alpha 1;
#X obj 510 95 r /q/videoplayer/\$1/stop;
#X obj 446 66 r /q/videoplayer/\$1/play;
#X obj 544 122 r /q/videoplayer/\$1/begin;
#N canvas 0 507 940 422 play-counter 0;
#X obj 89 166 inlet;
#X obj 188 359 outlet;
#X obj 187 196 metro 33.33;
#X obj 187 112 1;
#N canvas 1082 82 670 998 speed 0;
#X obj 323 319 * 100;
#X obj 323 341 moses 50;
#X floatatom 371 363 5 0 0 0 - - -, f 5;
#X obj 318 460 libs/abs/myscale;
#X obj 446 426 unpack f f, f 14;
#X obj 391 582 loadbang;
#X obj 367 630 libs/abs/myscale;
#X obj 454 586 unpack f f, f 14;
#X msg 391 604 load 50 100;
#X obj 323 250 r /q/videoplayer/\$1/speed;
#X obj 323 272 min 1;
#X obj 330 723 outlet;
#X obj 446 404 list trim;
#X msg 347 439 load 0 50;
#X obj 347 413 loadbang;
#X obj 346 389 once;
#X obj 323 363 t f b;
#X obj 370 537 t f b;
#X obj 393 559 once;
#X obj 454 563 list trim;
#X obj 454 541 list append;
#X obj 454 489 t f f;
#X obj 445 310 t f f;
#X obj 472 332 * 10;
#X obj 446 382 list prepend;
#X obj 478 513 / 10;
#X msg 305 71 1000;
#X obj 308 92 /;
#X obj 307 141 i;
#X obj 305 115 t b f;
#X obj 345 115 r /q/videoplayer/\$1/resetSpeed;
#X obj 307 190 t f f f, f 25;
#X obj 305 49 t b f, f 7;
#X obj 299 20 r \$0-clip-fps-new;
#X text 412 18 from duration;
#X connect 0 0 1 0;
#X connect 1 0 16 0;
#X connect 1 1 2 0;
#X connect 2 0 17 0;
#X connect 3 0 11 0;
#X connect 4 0 3 1;
#X connect 4 1 3 2;
#X connect 5 0 8 0;
#X connect 6 0 11 0;
#X connect 7 0 6 1;
#X connect 7 1 6 2;
#X connect 8 0 6 0;
#X connect 9 0 10 0;
#X connect 10 0 0 0;
#X connect 12 0 4 0;
#X connect 13 0 3 0;
#X connect 14 0 13 0;
#X connect 15 0 13 0;
#X connect 16 0 3 0;
#X connect 16 1 15 0;
#X connect 17 0 6 0;
#X connect 17 1 18 0;
#X connect 18 0 8 0;
#X connect 19 0 7 0;
#X connect 20 0 19 0;
#X connect 21 0 20 0;
#X connect 21 1 25 0;
#X connect 22 0 24 0;
#X connect 22 1 23 0;
#X connect 23 0 24 1;
#X connect 24 0 12 0;
#X connect 25 0 20 1;
#X connect 26 0 27 0;
#X connect 27 0 29 0;
#X connect 28 0 31 0;
#X connect 29 0 28 0;
#X connect 29 1 28 1;
#X connect 30 0 28 0;
#X connect 31 0 11 0;
#X connect 31 1 22 0;
#X connect 31 2 21 0;
#X connect 32 0 26 0;
#X connect 32 1 27 1;
#X connect 33 0 32 0;
#X restore 254 151 pd speed;
#X obj 222 113 inlet;
#X obj 188 227 cyclone/counter, f 28;
#X obj 336 310 sel, f 10;
#X obj 337 349 s \$0-end-of-video;
#X obj 188 249 t f f;
#X obj 190 67 r \$0-play-counter-max;
#N canvas 763 318 625 550 min 0;
#X obj 157 329 *;
#X obj 157 298 int;
#X msg 157 194 0;
#X obj 157 258 t b f;
#X obj 339 143 r \$0-totalframe;
#X obj 343 242 t b f;
#X obj 343 328 *;
#X obj 343 283 int;
#X obj 155 232 r /q/videoplayer/\$1/loopin;
#X obj 342 222 r /q/videoplayer/\$1/loopout;
#X obj 161 364 s \$0-play-counter-min;
#X obj 343 354 s \$0-play-counter-max;
#X msg 340 194 1;
#X obj 339 165 t b f;
#X obj 156 143 r \$0-totalframe;
#X obj 156 165 t b f;
#X obj 344 467 outlet;
#X obj 164 446 i;
#X obj 155 382 t b f;
#X obj 195 425 r \$0-begin;
#X obj 161 516 outlet;
#X obj 347 413 i, f 4;
#X msg 164 478 min \$1;
#X connect 0 0 10 0;
#X connect 0 0 18 0;
#X connect 1 0 0 0;
#X connect 2 0 3 0;
#X connect 3 0 1 0;
#X connect 3 1 0 1;
#X connect 4 0 13 0;
#X connect 5 0 7 0;
#X connect 5 1 6 1;
#X connect 6 0 11 0;
#X connect 6 0 21 0;
#X connect 7 0 6 0;
#X connect 8 0 3 0;
#X connect 9 0 5 0;
#X connect 12 0 5 0;
#X connect 13 0 12 0;
#X connect 13 1 7 1;
#X connect 14 0 15 0;
#X connect 15 0 2 0;
#X connect 15 1 1 1;
#X connect 17 0 22 0;
#X connect 18 0 17 0;
#X connect 18 1 17 1;
#X connect 19 0 17 0;
#X connect 21 0 16 0;
#X connect 22 0 20 0;
#X restore 253 128 pd min max;
#X obj 354 151 t f f, f 7;
#X obj 386 220 i;
#X obj 190 89 t b, f 10;
#X obj 354 173 i;
#X obj 183 37 inlet;
#X obj 269 195 r /q/videoplayer/\$1/resetDuration;
#X connect 0 0 2 0;
#X connect 2 0 6 0;
#X connect 3 0 2 0;
#X connect 4 0 2 1;
#X connect 5 0 6 0;
#X connect 6 0 9 0;
#X connect 7 0 8 0;
#X connect 9 0 1 0;
#X connect 9 1 7 0;
#X connect 10 0 14 0;
#X connect 11 0 6 0;
#X connect 11 1 12 0;
#X connect 12 0 15 0;
#X connect 12 1 13 0;
#X connect 13 0 7 1;
#X connect 14 0 3 0;
#X connect 15 0 6 4;
#X connect 16 0 6 0;
#X connect 17 0 6 2;
#X restore 614 382 pd play-counter;
#X obj 191 202 gemhead;
#X obj 897 123 s /q/videoplayer/\$1/video;
#X obj 947 147 s /q/videoplayer/\$1/open;
#X obj -18 180 r /q/videoplayer/\$1/open;
#X msg -18 224 open \$1;
#X obj -18 202 openpanel;
#X obj 491 572 r \$0-end-of-video;
#X obj 297 527 s \$0-clip-fps;
#X obj 1002 174 s /q/videoplayer/\$1/resetSpeed;
#X obj 1051 200 s /q/videoplayer/\$1/speed;
#X obj 191 224 t a b;
#X obj 217 243 once;
#X obj 217 265 s init;
#N canvas 229 284 1044 435 scratch 0;
#X obj 335 69 inlet;
#X obj 384 305 outlet;
#X obj 378 73 r \$0-play-counter-min;
#X obj 424 100 r \$0-play-counter-max;
#X obj 378 95 i;
#X obj 424 122 i;
#X msg 384 276 set \$1;
#X obj 383 225 myscale;
#X msg 349 182 load 0 1;
#X obj 345 163 loadbang;
#X obj 383 247 i;
#X connect 0 0 7 0;
#X connect 2 0 4 0;
#X connect 3 0 5 0;
#X connect 4 0 7 1;
#X connect 5 0 7 2;
#X connect 6 0 1 0;
#X connect 7 0 10 0;
#X connect 8 0 7 0;
#X connect 9 0 8 0;
#X connect 10 0 6 0;
#X restore 701 324 pd scratch;
#X obj 701 303 r /q/videoplayer/\$1/scratch;
#X obj 216 416 - 1;
#X obj 1102 230 s /q/videoplayer/\$1/scratch;
#X obj 1152 270 s /q/videoplayer/\$1/loopin;
#X obj 1216 300 s /q/videoplayer/\$1/loopout;
#X obj 628 537 r \$0-totalframe;
#X msg 611 613 progressloop \$1;
#X obj 239 283 r \$0-film-inlet;
#X obj 642 437 s \$0-film-inlet;
#X obj 1263 342 s /q/videoplayer/\$1/play;
#X obj 1305 372 s /q/videoplayer/\$1/stop;
#X obj 1358 404 s /q/videoplayer/\$1/begin;
#X obj 541 176 s \$0-begin;
#X obj 628 559 + 1;
#X obj 241 568 + 1;
#X obj 613 408 t f f f;
#X obj 1422 452 s /q/videoplayer/\$1/duration;
#X obj 1469 482 s /q/videoplayer/\$1/resetDuration;
#N canvas 439 302 1466 706 set 0;
#X obj 140 154 /;
#X obj 140 -12 r \$0-totalframe;
#X obj 140 32 r \$0-clip-fps;
#X text 147 -38 get duration;
#X obj 140 10 + 1;
#X obj 140 54 t b f;
#X obj 140 76 del 10;
#X text 205 155 total frames / clips-fps = duration;
#X obj 152 461 r \$0-totalframe;
#X obj 126 370 t b f;
#X obj 135 519 /;
#X obj 124 318 r /q/videoplayer/\$1/duration;
#X obj 124 340 max 1;
#X obj 123 268 f;
#X obj 124 239 r /q/videoplayer/\$1/resetDuration;
#X text 348 237 reset duration;
#X text 329 324 set duration;
#X obj 180 210 outlet;
#X obj 142 120 f;
#X obj 135 492 f;
#X obj 135 549 s \$0-clip-fps-new;
#X obj 172 358 r \$0-play-counter-max;
#X obj 187 380 r \$0-play-counter-min;
#X obj 172 404 -;
#X obj 173 429 t b f;
#X obj 140 181 t f f f;
#X connect 0 0 25 0;
#X connect 1 0 4 0;
#X connect 2 0 5 0;
#X connect 4 0 18 1;
#X connect 5 0 6 0;
#X connect 5 1 0 1;
#X connect 6 0 18 0;
#X connect 8 0 19 1;
#X connect 9 0 19 0;
#X connect 9 1 10 1;
#X connect 10 0 20 0;
#X connect 11 0 12 0;
#X connect 12 0 9 0;
#X connect 13 0 12 0;
#X connect 14 0 13 0;
#X connect 18 0 0 0;
#X connect 19 0 10 0;
#X connect 21 0 23 0;
#X connect 22 0 23 1;
#X connect 23 0 24 0;
#X connect 24 0 19 0;
#X connect 24 1 19 1;
#X connect 25 0 13 1;
#X connect 25 1 12 0;
#X connect 25 2 17 0;
#X restore 1138 558 pd set and get duration;
#X msg 1140 586 originalDuration \$1;
#N canvas 0 355 1251 574 progress 0;
#X obj 343 105 inlet;
#X obj 368 341 outlet;
#X obj 375 293 myscale 0 1;
#X obj 368 134 r \$0-play-counter-min;
#X obj 414 161 r \$0-play-counter-max;
#X obj 368 156 i;
#X obj 414 183 i;
#X msg 373 258 load \$1 \$2;
#X obj 371 231 pack f f;
#X obj 414 205 t b f;
#X connect 0 0 2 0;
#X connect 2 0 1 0;
#X connect 3 0 5 0;
#X connect 4 0 6 0;
#X connect 5 0 8 0;
#X connect 6 0 9 0;
#X connect 7 0 2 0;
#X connect 8 0 7 0;
#X connect 9 0 5 0;
#X connect 9 1 8 1;
#X restore 866 564 pd progress;
#X msg 865 592 progress \$1;
#X msg 1019 585 timeline \$1;
#N canvas 0 147 1217 602 timeline 0;
#X obj 91 206 counter, f 12;
#X obj 90 229 / 10;
#X obj 134 120 r /q/videoplayer/\$1/stop;
#X obj 98 34 r /q/videoplayer/\$1/play;
#X msg 104 120 1;
#X msg 134 142 0;
#X obj 114 59 r \$0-totalframe;
#X obj 164 175 bng 15 250 50 0 empty empty empty 17 7 0 10 -262144
-1 -1;
#X obj 167 149 r \$0-end-of-video;
#X obj 114 81 t b b;
#X obj 90 251 outlet;
#X obj 89 175 metro 99;
#X obj 418 145 r \$0-begin;
#X obj 295 150 b;
#X obj 295 128 r \$0-play-counter-min;
#X connect 0 0 1 0;
#X connect 1 0 10 0;
#X connect 2 0 5 0;
#X connect 3 0 4 0;
#X connect 4 0 11 0;
#X connect 5 0 11 0;
#X connect 6 0 9 0;
#X connect 7 0 0 2;
#X connect 8 0 7 0;
#X connect 9 0 4 0;
#X connect 9 1 7 0;
#X connect 11 0 0 0;
#X connect 12 0 7 0;
#X connect 13 0 7 0;
#X connect 14 0 13 0;
#X restore 1020 563 pd timeline;
#X obj 701 123 r /q/videoplayer/\$1/duration;
#X obj 700 147 t b;
#X obj 702 175 s \$0-begin;
#X obj 1522 507 s /q/videoplayer/\$1/forward;
#X obj 1569 537 s /q/videoplayer/\$1/rewind;
#X obj 614 244 r /q/videoplayer/\$1/forward;
#X obj 665 266 r /q/videoplayer/\$1/rewind;
#X msg 665 291 down;
#X msg 614 266 up;
#X obj 889 88 route video open resetSpeed speed scratch loopin loopout
play stop begin duration resetDuration forward rewind, f 120;
#X obj 444 140 t b;
#X connect 0 0 2 0;
#X connect 0 1 14 0;
#X connect 1 0 73 0;
#X connect 3 0 25 0;
#X connect 4 0 25 0;
#X connect 5 0 0 0;
#X connect 6 0 5 0;
#X connect 7 0 3 0;
#X connect 8 0 15 0;
#X connect 10 0 54 0;
#X connect 11 0 46 0;
#X connect 12 0 52 0;
#X connect 13 0 15 0;
#X connect 14 0 41 0;
#X connect 14 1 16 0;
#X connect 14 2 16 1;
#X connect 14 3 33 0;
#X connect 16 0 17 0;
#X connect 17 0 18 0;
#X connect 18 0 15 0;
#X connect 20 0 6 0;
#X connect 21 0 0 0;
#X connect 22 0 7 0;
#X connect 23 0 74 0;
#X connect 24 0 12 0;
#X connect 25 0 55 0;
#X connect 26 0 36 0;
#X connect 29 0 31 0;
#X connect 30 0 0 0;
#X connect 31 0 30 0;
#X connect 32 0 13 0;
#X connect 36 0 21 0;
#X connect 36 1 37 0;
#X connect 37 0 38 0;
#X connect 39 0 25 2;
#X connect 40 0 39 0;
#X connect 41 0 9 0;
#X connect 45 0 53 0;
#X connect 46 0 15 0;
#X connect 47 0 0 1;
#X connect 53 0 11 1;
#X connect 54 0 8 0;
#X connect 55 0 11 0;
#X connect 55 1 48 0;
#X connect 55 2 60 0;
#X connect 58 0 59 0;
#X connect 59 0 15 0;
#X connect 60 0 61 0;
#X connect 61 0 15 0;
#X connect 62 0 15 0;
#X connect 63 0 62 0;
#X connect 64 0 65 0;
#X connect 65 0 66 0;
#X connect 69 0 72 0;
#X connect 70 0 71 0;
#X connect 71 0 25 1;
#X connect 72 0 25 1;
#X connect 73 0 27 0;
#X connect 73 1 28 0;
#X connect 73 2 34 0;
#X connect 73 3 35 0;
#X connect 73 4 42 0;
#X connect 73 5 43 0;
#X connect 73 6 44 0;
#X connect 73 7 49 0;
#X connect 73 8 50 0;
#X connect 73 9 51 0;
#X connect 73 10 56 0;
#X connect 73 11 57 0;
#X connect 73 12 67 0;
#X connect 73 13 68 0;
#X connect 74 0 4 0;
