#N canvas 281 321 1619 827 10;
#X obj 194 346 pix_film;
#X obj 899 80 inlet;
#X obj 194 524 outlet;
#X msg 470 210 stop;
#X msg 432 210 bang;
#X msg 138 219 open \$1;
#X obj 138 197 symbol;
#X obj 476 141 t b;
#X obj 446 141 t b;
#X msg 241 526 totalframe \$1;
#X obj 217 441 s \$0-totalframe;
#X obj 241 501 r \$0-totalframe;
#X obj 611 541 /;
#X obj 511 141 t b;
#X msg 491 554 end;
#X obj 216 394 unpack 0 0 0 0;
#X obj 343 568 outlet;
#X obj 342 500 pack f f;
#X obj 341 520 list prepend video.dim;
#X obj 342 538 list trim;
#X obj 887 49 namecanvas \$1;
#X obj 138 176 r /q/videoplayer/\$1/video;
#X obj 191 284 alpha 1;
#X obj 476 88 r /q/videoplayer/\$1/stop;
#X obj 446 66 r /q/videoplayer/\$1/play;
#X obj 513 115 r /q/videoplayer/\$1/begin;
#N canvas 980 607 940 422 play-counter 1;
#X obj 89 166 inlet;
#X obj 188 359 outlet;
#X obj 187 196 metro 33.33;
#X obj 177 81 r /q/videoplayer/\$1/open;
#X obj 113 61 r /q/videoplayer/\$1/video;
#X obj 187 112 1;
#X obj 188 227 counter;
#N canvas 835 198 625 550 counter 0;
#X obj 157 329 *;
#X obj 157 298 int;
#X msg 157 194 0;
#X obj 157 258 t b f;
#X obj 339 143 r \$0-totalframe;
#X obj 343 242 t b f;
#X obj 343 328 *;
#X obj 343 283 int;
#X obj 155 232 r /q/videoplayer/\$1/loopin;
#X obj 342 222 r /q/videoplayer/\$1/loopout;
#X obj 161 364 s \$0-play-counter-min;
#X obj 343 354 s \$0-play-counter-max;
#X msg 340 194 1;
#X obj 339 165 t b f;
#X obj 156 143 r \$0-totalframe;
#X obj 156 165 t b f;
#X msg 239 450 min \$1;
#X msg 302 449 max \$1;
#X obj 279 481 outlet;
#X obj 164 446 i;
#X obj 155 382 t b f;
#X obj 195 425 r \$0-begin;
#X connect 0 0 10 0;
#X connect 0 0 20 0;
#X connect 1 0 0 0;
#X connect 2 0 3 0;
#X connect 3 0 1 0;
#X connect 3 1 0 1;
#X connect 4 0 13 0;
#X connect 5 0 7 0;
#X connect 5 1 6 1;
#X connect 6 0 11 0;
#X connect 6 0 17 0;
#X connect 7 0 6 0;
#X connect 8 0 3 0;
#X connect 9 0 5 0;
#X connect 12 0 5 0;
#X connect 13 0 12 0;
#X connect 13 1 7 1;
#X connect 14 0 15 0;
#X connect 15 0 2 0;
#X connect 15 1 1 1;
#X connect 16 0 18 0;
#X connect 17 0 18 0;
#X connect 19 0 16 0;
#X connect 20 0 19 0;
#X connect 20 1 19 1;
#X connect 21 0 19 0;
#X restore 276 180 pd counter min max;
#N canvas 951 122 670 838 speed 0;
#X obj 323 319 * 100;
#X obj 323 341 moses 50;
#X floatatom 371 363 5 0 0 0 - - -, f 5;
#X obj 318 460 libs/abs/myscale;
#X obj 446 426 unpack f f, f 14;
#X obj 391 582 loadbang;
#X obj 367 630 libs/abs/myscale;
#X obj 454 586 unpack f f, f 14;
#X msg 391 604 load 50 100;
#X obj 323 250 r /q/videoplayer/\$1/speed;
#X obj 323 272 min 1;
#X obj 330 723 outlet;
#X obj 446 404 list trim;
#X msg 347 439 load 0 50;
#X obj 347 413 loadbang;
#X obj 346 389 once;
#X obj 323 363 t f b;
#X obj 370 537 t f b;
#X obj 393 559 once;
#X obj 454 563 list trim;
#X obj 454 541 list append;
#X obj 454 489 t f f;
#X obj 445 310 t f f;
#X obj 472 332 * 10;
#X obj 446 382 list prepend;
#X obj 478 513 / 10;
#X obj 305 54 r \$0-clip-fps;
#X obj 305 76 t b f;
#X msg 305 98 1000;
#X obj 308 119 /;
#X obj 307 168 i;
#X obj 305 142 t b f;
#X obj 345 143 r /q/videoplayer/\$1/resetSpeed;
#X obj 307 190 t f f f, f 25;
#X connect 0 0 1 0;
#X connect 1 0 16 0;
#X connect 1 1 2 0;
#X connect 2 0 17 0;
#X connect 3 0 11 0;
#X connect 4 0 3 1;
#X connect 4 1 3 2;
#X connect 5 0 8 0;
#X connect 6 0 11 0;
#X connect 7 0 6 1;
#X connect 7 1 6 2;
#X connect 8 0 6 0;
#X connect 9 0 10 0;
#X connect 10 0 0 0;
#X connect 12 0 4 0;
#X connect 13 0 3 0;
#X connect 14 0 13 0;
#X connect 15 0 13 0;
#X connect 16 0 3 0;
#X connect 16 1 15 0;
#X connect 17 0 6 0;
#X connect 17 1 18 0;
#X connect 18 0 8 0;
#X connect 19 0 7 0;
#X connect 20 0 19 0;
#X connect 21 0 20 0;
#X connect 21 1 25 0;
#X connect 22 0 24 0;
#X connect 22 1 23 0;
#X connect 23 0 24 1;
#X connect 24 0 12 0;
#X connect 25 0 20 1;
#X connect 26 0 27 0;
#X connect 27 0 28 0;
#X connect 27 1 29 1;
#X connect 28 0 29 0;
#X connect 29 0 31 0;
#X connect 30 0 33 0;
#X connect 31 0 30 0;
#X connect 31 1 30 1;
#X connect 32 0 30 0;
#X connect 33 0 11 0;
#X connect 33 1 22 0;
#X connect 33 2 21 0;
#X restore 254 151 pd speed;
#X obj 401 206 inlet;
#X connect 0 0 2 0;
#X connect 2 0 6 0;
#X connect 3 0 5 0;
#X connect 4 0 5 0;
#X connect 5 0 2 0;
#X connect 6 0 1 0;
#X connect 7 0 6 0;
#X connect 8 0 2 1;
#X connect 9 0 6 0;
#X restore 614 382 pd play-counter;
#X obj 239 368 s \$0-end-of-video;
#X obj 191 202 gemhead;
#X obj 897 123 s /q/videoplayer/\$1/video;
#X obj 947 147 s /q/videoplayer/\$1/open;
#X obj -18 180 r /q/videoplayer/\$1/open;
#X msg -18 224 open \$1;
#X obj -18 202 openpanel;
#X obj 491 519 r \$0-end-of-video;
#X obj 297 473 s \$0-clip-fps;
#X obj 900 97 route video open resetSpeed speed scratch loopin loopout
play stop begin, f 85;
#X obj 1002 174 s /q/videoplayer/\$1/resetSpeed;
#X obj 1051 200 s /q/videoplayer/\$1/speed;
#X obj 191 224 t a b;
#X obj 217 243 once;
#X obj 217 265 s init;
#N canvas 259 234 1044 300 scratch 0;
#X obj 98 27 inlet;
#X obj 98 58 t b f;
#X obj 98 144 *;
#X obj 98 99 f;
#X obj 98 192 outlet;
#X msg 98 166 set \$1;
#X obj 145 72 r \$0-play-counter-max;
#X connect 0 0 1 0;
#X connect 1 0 3 0;
#X connect 1 1 2 1;
#X connect 2 0 5 0;
#X connect 3 0 2 0;
#X connect 5 0 4 0;
#X connect 6 0 3 1;
#X restore 701 357 pd scratch;
#X obj 701 336 r /q/videoplayer/\$1/scratch;
#X obj 216 416 - 1;
#X obj 1102 230 s /q/videoplayer/\$1/scratch;
#X obj 1152 270 s /q/videoplayer/\$1/loopin;
#X obj 1216 300 s /q/videoplayer/\$1/loopout;
#X obj 628 520 r \$0-totalframe;
#X msg 611 569 progressloop \$1;
#X msg 736 549 progress \$1;
#X obj 239 283 r \$0-film-inlet;
#X obj 642 437 s \$0-film-inlet;
#X obj 1263 342 s /q/videoplayer/\$1/play;
#X obj 1305 372 s /q/videoplayer/\$1/stop;
#X obj 1358 404 s /q/videoplayer/\$1/begin;
#N canvas 859 289 869 574 proportional 0;
#X obj 371 105 inlet;
#X obj 368 341 outlet;
#X obj 444 102 r \$0-play-counter-min;
#X obj 370 317 libs/abs/myscale 0 1;
#X obj 369 249 list trim;
#X floatatom 417 365 5 0 0 0 - - -, f 5;
#X obj 171 277 print lllllllll;
#X obj 369 227 list prepend;
#X obj 369 271 list prepend load;
#X obj 369 293 list trim;
#X obj 444 124 t b f;
#X obj 377 198 i;
#X obj 405 168 r \$0-play-counter-max;
#X obj 405 190 t b f;
#X connect 0 0 3 0;
#X connect 2 0 10 0;
#X connect 3 0 1 0;
#X connect 3 0 5 0;
#X connect 4 0 8 0;
#X connect 7 0 4 0;
#X connect 8 0 9 0;
#X connect 9 0 3 0;
#X connect 9 0 6 0;
#X connect 10 0 11 0;
#X connect 10 1 7 1;
#X connect 11 0 7 0;
#X connect 12 0 13 0;
#X connect 13 0 11 0;
#X connect 13 1 11 1;
#X restore 737 521 pd proportional progress;
#X obj 613 408 t f f f;
#X obj 510 169 s \$0-begin;
#X connect 0 0 2 0;
#X connect 0 1 15 0;
#X connect 0 2 27 0;
#X connect 1 0 36 0;
#X connect 3 0 26 0;
#X connect 4 0 26 0;
#X connect 5 0 0 0;
#X connect 6 0 5 0;
#X connect 7 0 3 0;
#X connect 8 0 4 0;
#X connect 9 0 16 0;
#X connect 11 0 9 0;
#X connect 12 0 49 0;
#X connect 13 0 58 0;
#X connect 14 0 16 0;
#X connect 15 0 44 0;
#X connect 15 1 17 0;
#X connect 15 2 17 1;
#X connect 15 3 35 0;
#X connect 17 0 18 0;
#X connect 18 0 19 0;
#X connect 19 0 16 0;
#X connect 21 0 6 0;
#X connect 22 0 0 0;
#X connect 23 0 7 0;
#X connect 24 0 8 0;
#X connect 25 0 13 0;
#X connect 26 0 57 0;
#X connect 28 0 39 0;
#X connect 31 0 33 0;
#X connect 32 0 0 0;
#X connect 33 0 32 0;
#X connect 34 0 14 0;
#X connect 36 0 29 0;
#X connect 36 1 30 0;
#X connect 36 2 37 0;
#X connect 36 3 38 0;
#X connect 36 4 45 0;
#X connect 36 5 46 0;
#X connect 36 6 47 0;
#X connect 36 7 53 0;
#X connect 36 8 54 0;
#X connect 36 9 55 0;
#X connect 39 0 22 0;
#X connect 39 1 40 0;
#X connect 40 0 41 0;
#X connect 42 0 26 1;
#X connect 43 0 42 0;
#X connect 44 0 10 0;
#X connect 48 0 12 1;
#X connect 49 0 16 0;
#X connect 50 0 16 0;
#X connect 51 0 0 1;
#X connect 56 0 50 0;
#X connect 57 0 12 0;
#X connect 57 1 52 0;
#X connect 57 2 56 0;
