#N canvas 259 143 956 560 10;
#X obj 74 258 pix_film;
#X obj 29 -18 inlet;
#X obj 74 436 outlet;
#X obj 372 274 f;
#X obj 418 275 + 1;
#X msg 388 218 0;
#X obj 372 248 metro 50;
#X obj 96 384 t b b;
#X obj 119 281 bng 15 250 50 0 empty empty empty 17 7 0 10 -262144
-1 -1;
#X msg 302 122 stop;
#X msg 302 145 bang;
#X msg 18 131 open \$1;
#X obj 18 108 symbol;
#X obj 356 53 t b;
#X obj 326 53 t b;
#X obj 193 488 outlet;
#X msg 193 447 totalframe \$1;
#X obj -24 343 s \$0-totalframe;
#X obj 488 432 r \$0-totalframe;
#X obj 193 422 r \$0-totalframe;
#N canvas 304 160 450 300 scratch 0;
#X obj 98 27 inlet;
#X obj 145 72 r \$0-totalframe;
#X obj 98 58 t b f;
#X obj 98 144 *;
#X obj 38 213 s \$0-metro;
#X obj 135 213 s \$0-film-inlet2;
#X obj 98 99 f;
#X obj 98 174 f;
#X connect 0 0 2 0;
#X connect 1 0 6 1;
#X connect 2 0 6 0;
#X connect 2 1 3 1;
#X connect 3 0 7 0;
#X connect 6 0 3 0;
#X connect 7 0 4 0;
#X connect 7 0 5 0;
#X restore -25 42 pd scratch;
#X obj 119 196 r \$0-film-inlet2;
#X obj 229 203 r \$0-metro;
#X obj 425 223 r \$0-metro-inlet2;
#N canvas 706 391 450 300 fps 0;
#X obj 58 21 inlet;
#X obj 58 83 /;
#X msg 58 51 1000 \$1;
#X obj 117 114 s \$0-metro-inlet2;
#X connect 0 0 2 0;
#X connect 1 0 3 0;
#X connect 2 0 1 0;
#X restore 142 42 pd fps;
#X obj 471 453 /;
#X msg 471 481 progress \$1;
#X msg 687 112 0;
#X obj 653 171 s \$0-film-inlet2;
#X obj 700 40 r \$0-totalframe;
#X obj 653 41 t b f;
#X obj 653 112 *;
#X obj 653 142 int;
#X obj 653 77 int;
#X obj 29 8 route scratch video ms fps loopin loopout play stop begin
;
#X obj 391 53 t b;
#X obj 671 342 moses;
#X obj 780 272 r \$0-totalframe;
#X obj 733 258 t b f;
#X obj 733 344 *;
#X obj 733 299 int;
#X obj 698 367 t b;
#X obj 222 139 loadbang;
#X obj 222 115 initbang;
#N canvas 722 201 450 300 ms 0;
#X obj 58 7 inlet;
#X obj 128 45 r \$0-totalframe;
#X obj 51 162 outlet;
#X obj 58 53 / 1000;
#X obj 125 120 /;
#X obj 114 77 int;
#X obj 12 26 t b a;
#X connect 0 0 6 0;
#X connect 1 0 5 1;
#X connect 3 0 4 1;
#X connect 4 0 2 0;
#X connect 5 0 4 0;
#X connect 6 0 5 0;
#X connect 6 1 3 0;
#X restore 81 42 pd ms;
#X msg 309 444 end;
#X msg 405 184 50;
#X obj -19 181 inlet;
#X obj 96 306 unpack 0 0 0 0;
#X obj 303 398 outlet;
#X obj 278 330 pack f f;
#X obj 277 350 list prepend video.dim;
#X obj 278 368 list trim;
#X connect 0 0 2 0;
#X connect 0 1 48 0;
#X connect 0 2 8 0;
#X connect 1 0 34 0;
#X connect 3 0 4 0;
#X connect 3 0 36 0;
#X connect 3 0 25 0;
#X connect 3 0 0 1;
#X connect 4 0 3 1;
#X connect 5 0 3 0;
#X connect 6 0 3 0;
#X connect 7 0 5 0;
#X connect 7 0 27 0;
#X connect 7 0 46 0;
#X connect 7 1 6 0;
#X connect 8 0 45 0;
#X connect 8 0 32 0;
#X connect 9 0 6 0;
#X connect 10 0 6 0;
#X connect 11 0 0 0;
#X connect 12 0 11 0;
#X connect 13 0 9 0;
#X connect 14 0 10 0;
#X connect 16 0 15 0;
#X connect 18 0 25 1;
#X connect 19 0 16 0;
#X connect 21 0 0 1;
#X connect 22 0 3 0;
#X connect 23 0 6 1;
#X connect 25 0 26 0;
#X connect 26 0 15 0;
#X connect 27 0 32 1;
#X connect 29 0 33 1;
#X connect 30 0 33 0;
#X connect 30 1 31 1;
#X connect 31 0 32 1;
#X connect 32 0 3 0;
#X connect 32 0 28 0;
#X connect 33 0 31 0;
#X connect 34 0 20 0;
#X connect 34 1 12 0;
#X connect 34 2 44 0;
#X connect 34 3 24 0;
#X connect 34 4 30 0;
#X connect 34 5 38 0;
#X connect 34 6 14 0;
#X connect 34 7 13 0;
#X connect 34 8 35 0;
#X connect 35 0 32 0;
#X connect 36 1 41 0;
#X connect 37 0 40 1;
#X connect 37 0 36 1;
#X connect 38 0 40 0;
#X connect 38 1 39 1;
#X connect 39 0 36 1;
#X connect 40 0 39 0;
#X connect 41 0 32 0;
#X connect 41 0 45 0;
#X connect 42 0 9 0;
#X connect 43 0 9 0;
#X connect 44 0 24 0;
#X connect 45 0 15 0;
#X connect 46 0 6 1;
#X connect 47 0 0 0;
#X connect 48 0 7 0;
#X connect 48 0 17 0;
#X connect 48 1 50 0;
#X connect 48 2 50 1;
#X connect 50 0 51 0;
#X connect 51 0 52 0;
#X connect 52 0 49 0;
