#N canvas 124 228 1453 827 10;
#X obj 194 346 pix_film;
#X obj 149 70 inlet;
#X obj 194 524 outlet;
#X obj 212 468 t b b;
#X obj 239 369 bng 15 250 50 0 empty empty empty 17 7 0 10 -262144
-1 -1;
#X msg 470 210 stop;
#X msg 422 233 bang;
#X msg 138 219 open \$1;
#X obj 138 197 symbol;
#X obj 476 141 t b;
#X obj 446 141 t b;
#X obj 313 576 outlet;
#X msg 313 535 totalframe \$1;
#X obj 211 425 s \$0-totalframe;
#X obj 628 520 r \$0-totalframe;
#X obj 313 510 r \$0-totalframe;
#N canvas 298 169 450 300 scratch 0;
#X obj 98 27 inlet;
#X obj 145 72 r \$0-totalframe;
#X obj 98 58 t b f;
#X obj 98 144 *;
#X obj 38 213 s \$0-metro;
#X obj 135 213 s \$0-film-inlet2;
#X obj 98 99 f;
#X obj 98 174 f;
#X connect 0 0 2 0;
#X connect 1 0 6 1;
#X connect 2 0 6 0;
#X connect 2 1 3 1;
#X connect 3 0 7 0;
#X connect 6 0 3 0;
#X connect 7 0 4 0;
#X connect 7 0 5 0;
#X restore 95 130 pd scratch;
#X obj 239 284 r \$0-film-inlet2;
#X obj 611 541 /;
#X msg 611 569 progress \$1;
#X obj 773 294 s \$0-film-inlet2;
#X obj 820 128 r \$0-totalframe;
#X obj 773 129 t b f;
#X obj 773 200 *;
#X obj 773 165 int;
#X obj 511 141 t b;
#X obj 791 430 moses;
#X obj 900 360 r \$0-totalframe;
#X obj 853 346 t b f;
#X obj 853 432 *;
#X obj 853 387 int;
#X obj 817 458 t b;
#X msg 491 554 end;
#X obj 216 394 unpack 0 0 0 0;
#X obj 477 694 outlet;
#X obj 452 626 pack f f;
#X obj 451 646 list prepend video.dim;
#X obj 452 664 list trim;
#X obj 101 269 gemhead;
#X obj 1066 236 namecanvas \$1;
#X obj 236 164 r /q/videoplayer/\$1/video;
#X obj 121 304 alpha 1;
#X obj -83 39 r /q/videoplayer/\$1/scratch;
#X obj 776 64 r /q/videoplayer/\$1/loopin;
#X obj 852 326 r /q/videoplayer/\$1/loopout;
#X obj 561 81 r /q/videoplayer/\$1/stop;
#X obj 399 59 r /q/videoplayer/\$1/play;
#X obj 556 130 r /q/videoplayer/\$1/begin;
#N canvas 0 122 450 300 play-counter 0;
#X obj 187 222 f;
#X obj 233 223 + 1;
#X obj 187 196 metro 50;
#X obj 89 166 inlet;
#X obj 151 215 inlet;
#X obj 190 116 r \$0-metro;
#X obj 187 244 t f f;
#X obj 187 266 outlet;
#X obj 356 124 inlet;
#X connect 0 0 1 0;
#X connect 0 0 6 0;
#X connect 1 0 0 1;
#X connect 2 0 0 0;
#X connect 3 0 2 0;
#X connect 4 0 0 0;
#X connect 5 0 2 0;
#X connect 6 0 7 0;
#X connect 8 0 2 1;
#X restore 595 383 pd play-counter;
#X obj 273 367 s \$0-end-of-video;
#X obj 771 235 r \$0-end-of-video;
#X obj 773 265 f 0;
#X floatatom 924 404 5 0 0 0 - - -, f 5;
#X obj 595 408 t f f f;
#N canvas 0 87 943 300 speed 0;
#X obj 449 93 * 100;
#X obj 449 115 moses 50;
#X floatatom 449 137 5 0 0 0 - - -, f 5;
#X floatatom 496 139 5 0 0 0 - - -, f 5;
#X obj 447 160 loadbang;
#X obj 448 211 libs/abs/myscale;
#X obj 510 189 unpack f f, f 14;
#X floatatom 447 235 5 0 0 0 - - -, f 5;
#X msg 513 165 400 50;
#X msg 447 182 load 0 50;
#X obj 604 137 loadbang;
#X obj 605 188 libs/abs/myscale;
#X obj 667 166 unpack f f, f 14;
#X floatatom 604 218 5 0 0 0 - - -, f 5;
#X msg 670 142 50 6.25;
#X msg 604 159 load 50 100;
#X obj 449 24 r /q/videoplayer/\$1/speed;
#X obj 449 46 min 1;
#X obj 516 268 outlet;
#X connect 0 0 1 0;
#X connect 1 0 2 0;
#X connect 1 1 3 0;
#X connect 2 0 5 0;
#X connect 3 0 11 0;
#X connect 4 0 9 0;
#X connect 4 0 8 0;
#X connect 5 0 7 0;
#X connect 6 0 5 1;
#X connect 6 1 5 2;
#X connect 7 0 18 0;
#X connect 8 0 6 0;
#X connect 9 0 5 0;
#X connect 10 0 15 0;
#X connect 10 0 14 0;
#X connect 11 0 13 0;
#X connect 12 0 11 1;
#X connect 12 1 11 2;
#X connect 13 0 18 0;
#X connect 14 0 12 0;
#X connect 15 0 11 0;
#X connect 16 0 17 0;
#X connect 17 0 0 0;
#X restore 686 360 pd speed;
#X obj 149 97 route scratch video ms fps loopin loopout play stop begin
;
#X obj 295 201 t b;
#X obj 346 255 bng 15 250 50 0 empty empty empty 17 7 0 10 -262144
-1 -1;
#X obj 335 216 del 10;
#X connect 0 0 2 0;
#X connect 0 1 33 0;
#X connect 0 2 4 0;
#X connect 1 0 55 0;
#X connect 4 0 32 0;
#X connect 4 0 49 0;
#X connect 5 0 48 0;
#X connect 6 0 48 0;
#X connect 7 0 0 0;
#X connect 8 0 7 0;
#X connect 9 0 5 0;
#X connect 10 0 6 0;
#X connect 12 0 11 0;
#X connect 14 0 18 1;
#X connect 15 0 12 0;
#X connect 17 0 0 1;
#X connect 18 0 19 0;
#X connect 19 0 11 0;
#X connect 21 0 24 1;
#X connect 22 0 24 0;
#X connect 22 1 23 1;
#X connect 23 0 51 1;
#X connect 24 0 23 0;
#X connect 25 0 51 0;
#X connect 26 1 31 0;
#X connect 27 0 30 1;
#X connect 27 0 26 1;
#X connect 27 0 52 0;
#X connect 28 0 30 0;
#X connect 28 1 29 1;
#X connect 29 0 26 1;
#X connect 30 0 29 0;
#X connect 31 0 32 0;
#X connect 31 0 51 0;
#X connect 32 0 11 0;
#X connect 33 0 3 0;
#X connect 33 0 13 0;
#X connect 33 1 35 0;
#X connect 33 2 35 1;
#X connect 35 0 36 0;
#X connect 36 0 37 0;
#X connect 37 0 34 0;
#X connect 38 0 41 0;
#X connect 40 0 8 0;
#X connect 40 0 56 0;
#X connect 41 0 0 0;
#X connect 42 0 16 0;
#X connect 43 0 22 0;
#X connect 44 0 28 0;
#X connect 45 0 9 0;
#X connect 46 0 10 0;
#X connect 47 0 25 0;
#X connect 48 0 53 0;
#X connect 50 0 51 0;
#X connect 51 0 20 0;
#X connect 51 0 48 1;
#X connect 53 0 0 1;
#X connect 53 1 18 0;
#X connect 53 2 26 0;
#X connect 54 0 48 2;
#X connect 55 0 16 0;
#X connect 55 1 8 0;
#X connect 55 1 56 0;
#X connect 55 4 22 0;
#X connect 55 5 28 0;
#X connect 55 6 10 0;
#X connect 55 7 9 0;
#X connect 55 8 25 0;
#X connect 56 0 58 0;
#X connect 58 0 6 0;
#X connect 58 0 57 0;
