#N canvas 190 110 656 502 10;
#X obj 129 333 qvideoplayer;
#X msg 42 316 video \$1;
#X msg 132 270 play;
#X msg 172 271 stop;
#X obj 230 389 route end totalframe progress;
#X obj 230 436 bng 15 250 50 0 empty empty empty 17 7 0 10 -262144
-1 -1;
#X floatatom 270 438 5 0 0 0 - - -;
#X obj 110 146 hsl 110 10 0 1 0 0 empty empty empty -2 -8 0 10 -262144
-1 -1 0 1;
#X msg 228 271 begin;
#X obj 111 159 hsl 110 10 0 1 0 0 empty empty empty -2 -8 0 10 -262144
-1 -1 0 1;
#X obj 111 170 hsl 110 10 0 1 0 0 empty empty empty -2 -8 0 10 -262144
-1 -1 0 1;
#X msg 490 271 loopin \$1;
#X msg 499 292 loopout \$1;
#X obj 111 181 hsl 110 10 0 1 0 0 empty empty empty -2 -8 0 10 -262144
-1 -1 0 1;
#X msg 310 270 scratch \$1;
#X obj 26 250 inlet;
#X obj 25 441 outlet;
#X obj 132 238 select 0;
#X obj 104 104 tgl 15 0 empty empty empty 17 7 0 10 -262144 -1 -1 0
1;
#X obj 105 124 bng 15 250 50 0 empty empty empty 17 7 0 10 -262144
-1 -1;
#X obj 351 102 random 2000;
#X obj 156 123 bng 15 250 50 0 empty empty empty 17 7 0 10 -262144
-1 -1;
#X obj 351 123 / 2000;
#X obj 351 61 spigot 0;
#X obj 155 103 tgl 15 0 empty empty empty 17 7 0 10 -262144 -1 -1 0
1;
#X obj 168 54 inlet;
#X msg 351 82 bang;
#X msg 492 238 fps \$1;
#X floatatom 190 105 5 0 0 0 - - -;
#X msg 499 211 ms \$1;
#X floatatom 190 128 5 0 0 0 - - -;
#X obj 499 187 * 1000;
#X obj 228 470 outlet;
#X text 175 105 f;
#X text 176 125 s;
#X connect 0 0 16 0;
#X connect 0 1 4 0;
#X connect 1 0 0 0;
#X connect 2 0 0 0;
#X connect 3 0 0 0;
#X connect 4 0 5 0;
#X connect 4 1 6 0;
#X connect 4 2 7 0;
#X connect 5 0 32 0;
#X connect 8 0 0 0;
#X connect 9 0 11 0;
#X connect 10 0 12 0;
#X connect 11 0 0 0;
#X connect 12 0 0 0;
#X connect 13 0 14 0;
#X connect 14 0 0 0;
#X connect 15 0 1 0;
#X connect 17 0 3 0;
#X connect 17 1 2 0;
#X connect 18 0 17 0;
#X connect 19 0 8 0;
#X connect 20 0 22 0;
#X connect 21 0 23 0;
#X connect 22 0 13 0;
#X connect 23 0 26 0;
#X connect 24 0 23 1;
#X connect 25 0 21 0;
#X connect 26 0 20 0;
#X connect 27 0 0 0;
#X connect 28 0 27 0;
#X connect 29 0 0 0;
#X connect 30 0 31 0;
#X connect 31 0 29 0;
#X coords 0 -1 1 1 130 95 2 100 100;
