#N canvas 4 155 956 560 10;
#X obj 74 258 pix_film;
#X obj 74 183 gemhead;
#X obj 96 306 unpack 0 0 0;
#X obj 29 -18 inlet;
#X obj 74 436 outlet;
#X obj 372 274 f;
#X obj 372 300 + 1;
#X msg 388 218 0;
#X obj 96 384 t b b;
#X obj 119 281 bng 15 250 50 0 empty empty empty 17 7 0 10 -262144
-1 -1;
#X msg 302 122 stop;
#X msg 352 125 bang;
#X msg 18 131 open \$1;
#X obj 18 108 symbol;
#X obj 356 53 t b;
#X obj 326 53 t b;
#X obj 193 495 outlet;
#X msg 193 447 totalframe \$1;
#X obj -24 343 s \$0-totalframe;
#X obj 193 422 r \$0-totalframe;
#N canvas 131 141 780 504 scratch 0;
#X obj -566 26 inlet;
#X obj -497 252 *;
#X obj -497 276 int;
#X obj -592 297 s \$0-metro;
#X obj -592 328 s \$0-film-inlet2;
#X obj -483 221 int;
#X floatatom -446 200 5 0 0 0 - - -;
#X floatatom -188 223 5 0 0 0 - - -;
#X floatatom -452 299 5 0 0 0 - - -;
#X obj -566 56 t b f;
#X obj -483 180 t b f;
#X obj -546 257 +;
#X obj -232 201 t b f;
#X obj -233 234 int;
#X obj -248 262 *;
#X obj -248 286 int;
#X floatatom -225 311 5 0 0 0 - - -;
#X obj -325 297 int;
#X obj -315 327 -;
#X obj -292 292 t b f;
#X obj -315 354 moses 0;
#X obj -199 384 +;
#X obj -160 416 s \$0-metro;
#X obj -160 447 s \$0-film-inlet2;
#X obj -193 344 int;
#X obj -161 356 r \$0-loop-in;
#X floatatom -158 390 5 0 0 0 - - -;
#X text -410 204 frammento;
#X text -152 223 frammento;
#X obj -227 372 t b;
#X floatatom -393 416 5 0 0 0 - - -;
#X obj -393 352 * -1;
#X obj -381 439 s \$0-metro;
#X obj -393 458 s \$0-film-inlet2;
#X obj -450 392 int;
#X obj -348 376 t b;
#X text -789 476 scratch che tiene conto del frammento loop;
#X floatatom -255 114 5 0 0 0 - - -;
#X floatatom -453 108 5 0 0 0 - - -;
#X obj -609 222 r \$0-loop-in;
#X floatatom -371 324 5 0 0 0 - - -;
#N canvas 224 178 865 436 fragmentcalc 0;
#X obj 193 33 r \$0-loop-in;
#X obj 303 32 r \$0-loop-out;
#X obj 278 63 int;
#X obj 217 76 int;
#X obj 236 99 moses;
#X obj 60 43 t b b;
#X obj 189 170 r \$0-loop-in;
#X obj 260 187 r \$0-loop-out;
#X obj 253 210 int;
#X obj 219 210 int;
#X obj 232 249 -;
#X obj 175 144 t b b;
#X obj 400 131 r \$0-loop-in;
#X obj 464 171 int;
#X obj 430 171 int;
#X obj 439 202 -;
#X floatatom 439 227 5 0 0 0 - - -;
#X obj 386 105 t b b;
#X obj 471 148 r \$0-totalframe;
#X obj 499 214 t b f;
#X obj 553 225 r \$0-loop-out;
#X obj 546 248 int;
#X obj 483 267 +;
#X floatatom 416 60 5 0 0 0 - - -;
#X floatatom 341 65 5 0 0 0 - - -;
#X floatatom 592 112 5 0 0 0 - - -;
#X floatatom 232 285 5 0 0 0 - - -;
#X floatatom 483 299 5 0 0 0 - - -;
#X obj 201 340 outlet;
#X obj 43 4 inlet;
#X obj 420 344 outlet;
#X obj 324 346 outlet;
#X connect 0 0 3 1;
#X connect 0 0 24 0;
#X connect 1 0 2 1;
#X connect 1 0 23 0;
#X connect 2 0 4 1;
#X connect 3 0 4 0;
#X connect 4 0 11 0;
#X connect 4 1 17 0;
#X connect 5 0 3 0;
#X connect 5 1 2 0;
#X connect 6 0 9 1;
#X connect 7 0 8 1;
#X connect 8 0 10 0;
#X connect 9 0 10 1;
#X connect 10 0 26 0;
#X connect 11 0 8 0;
#X connect 11 1 9 0;
#X connect 12 0 14 1;
#X connect 13 0 15 0;
#X connect 14 0 15 1;
#X connect 15 0 16 0;
#X connect 15 0 19 0;
#X connect 16 0 31 0;
#X connect 17 0 13 0;
#X connect 17 1 14 0;
#X connect 18 0 13 1;
#X connect 18 0 25 0;
#X connect 19 0 21 0;
#X connect 19 1 22 1;
#X connect 20 0 21 1;
#X connect 21 0 22 0;
#X connect 22 0 27 0;
#X connect 26 0 28 0;
#X connect 27 0 30 0;
#X connect 29 0 5 0;
#X restore -471 23 pd fragmentcalc;
#X obj -467 421 moses 0;
#X connect 0 0 9 0;
#X connect 1 0 2 0;
#X connect 2 0 8 0;
#X connect 2 0 11 0;
#X connect 5 0 1 0;
#X connect 6 0 5 1;
#X connect 7 0 13 1;
#X connect 9 0 41 0;
#X connect 9 1 1 1;
#X connect 9 1 14 1;
#X connect 10 0 5 0;
#X connect 10 1 6 0;
#X connect 11 0 3 0;
#X connect 11 0 4 0;
#X connect 12 0 13 0;
#X connect 12 1 7 0;
#X connect 13 0 14 0;
#X connect 14 0 15 0;
#X connect 15 0 16 0;
#X connect 15 0 19 0;
#X connect 16 0 24 1;
#X connect 17 0 18 0;
#X connect 18 0 20 0;
#X connect 18 0 31 0;
#X connect 18 0 40 0;
#X connect 19 0 17 0;
#X connect 19 1 18 1;
#X connect 20 0 35 0;
#X connect 20 1 29 0;
#X connect 21 0 26 0;
#X connect 21 0 22 0;
#X connect 21 0 23 0;
#X connect 24 0 21 0;
#X connect 25 0 21 1;
#X connect 29 0 24 0;
#X connect 30 0 32 0;
#X connect 30 0 33 0;
#X connect 31 0 34 1;
#X connect 34 0 42 0;
#X connect 35 0 34 0;
#X connect 37 0 12 0;
#X connect 38 0 10 0;
#X connect 39 0 11 1;
#X connect 41 0 38 0;
#X connect 41 1 17 1;
#X connect 41 2 37 0;
#X connect 42 1 30 0;
#X restore -25 42 pd scratch;
#X obj 119 233 r \$0-film-inlet2;
#X obj 452 249 r \$0-metro;
#X obj 425 223 r \$0-metro-inlet2;
#N canvas 0 344 450 300 fps 0;
#X obj 58 21 inlet;
#X obj 58 83 /;
#X msg 58 51 1000 \$1;
#X obj 58 119 s \$0-metro-inlet2;
#X connect 0 0 2 0;
#X connect 1 0 3 0;
#X connect 2 0 1 0;
#X restore 142 42 pd fps;
#X msg 685 123 0;
#X obj 653 171 s \$0-film-inlet2;
#X obj 700 40 r \$0-totalframe;
#X obj 653 41 t b f;
#X obj 653 112 *;
#X obj 653 147 int;
#X obj 29 8 route scratch video ms fps loopin loopout play stop begin
;
#X obj 391 53 t b;
#X obj 780 272 r \$0-totalframe;
#X obj 733 258 t b f;
#X obj 733 344 *;
#X obj 530 361 t b;
#X obj 222 139 loadbang;
#X obj 222 115 initbang;
#N canvas 443 262 450 300 ms 0;
#X obj 58 7 inlet;
#X obj 97 177 outlet;
#X obj 104 68 / 1000;
#X obj 171 135 /;
#X obj 160 92 int;
#N canvas 224 178 865 436 fragmentcalc 0;
#X obj 193 33 r \$0-loop-in;
#X obj 303 32 r \$0-loop-out;
#X obj 278 63 int;
#X obj 217 76 int;
#X obj 236 99 moses;
#X obj 60 43 t b b;
#X obj 189 170 r \$0-loop-in;
#X obj 260 187 r \$0-loop-out;
#X obj 253 210 int;
#X obj 219 210 int;
#X obj 232 249 -;
#X obj 175 144 t b b;
#X obj 400 131 r \$0-loop-in;
#X obj 464 171 int;
#X obj 430 171 int;
#X obj 439 202 -;
#X floatatom 439 227 5 0 0 0 - - -;
#X obj 386 105 t b b;
#X obj 471 148 r \$0-totalframe;
#X obj 499 214 t b f;
#X obj 553 225 r \$0-loop-out;
#X obj 546 248 int;
#X obj 483 267 +;
#X floatatom 416 60 5 0 0 0 - - -;
#X floatatom 341 65 5 0 0 0 - - -;
#X floatatom 592 112 5 0 0 0 - - -;
#X floatatom 232 285 5 0 0 0 - - -;
#X floatatom 483 299 5 0 0 0 - - -;
#X obj 201 340 outlet;
#X obj 43 4 inlet;
#X obj 420 344 outlet;
#X obj 324 346 outlet;
#X connect 0 0 3 1;
#X connect 0 0 24 0;
#X connect 1 0 2 1;
#X connect 1 0 23 0;
#X connect 2 0 4 1;
#X connect 3 0 4 0;
#X connect 4 0 11 0;
#X connect 4 1 17 0;
#X connect 5 0 3 0;
#X connect 5 1 2 0;
#X connect 6 0 9 1;
#X connect 7 0 8 1;
#X connect 8 0 10 0;
#X connect 9 0 10 1;
#X connect 10 0 26 0;
#X connect 11 0 8 0;
#X connect 11 1 9 0;
#X connect 12 0 14 1;
#X connect 13 0 15 0;
#X connect 14 0 15 1;
#X connect 15 0 16 0;
#X connect 15 0 19 0;
#X connect 16 0 31 0;
#X connect 17 0 13 0;
#X connect 17 1 14 0;
#X connect 18 0 13 1;
#X connect 18 0 25 0;
#X connect 19 0 21 0;
#X connect 19 1 22 1;
#X connect 20 0 21 1;
#X connect 21 0 22 0;
#X connect 22 0 27 0;
#X connect 26 0 28 0;
#X connect 27 0 30 0;
#X connect 29 0 5 0;
#X restore 184 27 pd fragmentcalc;
#X obj 58 41 t b a b;
#X connect 0 0 6 0;
#X connect 2 0 3 1;
#X connect 3 0 1 0;
#X connect 4 0 3 0;
#X connect 5 0 4 1;
#X connect 5 2 4 1;
#X connect 6 0 4 0;
#X connect 6 1 2 0;
#X connect 6 2 5 0;
#X restore 81 42 pd ms;
#X msg 309 444 end;
#X floatatom 319 337 5 0 0 0 - - -;
#X floatatom 745 115 5 0 0 0 - - -;
#X obj 715 388 select;
#X obj 715 411 bng 15 250 50 0 empty empty empty 17 7 0 10 -262144
-1 -1;
#X floatatom 822 397 5 0 0 0 - - -;
#X obj 822 369 int;
#X text 821 420 loop out;
#X text 809 120 loop in;
#X obj 763 137 s \$0-loop-in;
#X obj 804 443 s \$0-loop-out;
#X obj 745 93 int;
#X obj -24 409 s \$0-loop-in;
#X msg -24 388 0;
#X obj -24 367 s \$0-loop-out;
#N canvas 271 115 869 574 realprogress 0;
#X obj 28 -244 inlet;
#X text 29 283 scratch che tiene conto del frammento loop;
#X obj 180 121 r \$0-loop-in;
#X obj 165 149 -;
#X obj 219 167 /;
#X floatatom 219 207 5 0 0 0 - - -;
#X obj 236 -208 r \$0-loop-in;
#X obj 346 -209 r \$0-loop-out;
#X obj 279 -142 moses;
#X obj 144 -200 t b b;
#X obj 232 -71 r \$0-loop-in;
#X obj 303 -54 r \$0-loop-out;
#X obj 296 -31 int;
#X obj 262 -31 int;
#X obj 275 8 -;
#X obj 218 -97 t b b;
#X obj 443 -110 r \$0-loop-in;
#X obj 507 -70 int;
#X obj 473 -70 int;
#X obj 482 -39 -;
#X floatatom 482 -14 5 0 0 0 - - -;
#X obj 429 -136 t b b;
#X obj 514 -93 r \$0-totalframe;
#X obj 542 -27 t b f;
#X obj 596 -16 r \$0-loop-out;
#X obj 589 7 int;
#X obj 526 26 +;
#X floatatom 459 -181 5 0 0 0 - - -;
#X floatatom 384 -176 5 0 0 0 - - -;
#X floatatom 635 -129 5 0 0 0 - - -;
#X floatatom 275 44 5 0 0 0 - - -;
#X floatatom 526 58 5 0 0 0 - - -;
#X obj 50 -196 t b f;
#X obj 147 120 int;
#X obj 275 70 t b f;
#X obj 413 129 moses;
#X obj 443 99 r \$0-loop-out;
#X obj 406 82 int;
#X obj 438 49 bng 15 250 50 0 empty empty empty 17 7 0 10 -262144 -1
-1;
#X obj 192 -24 bng 15 250 50 0 empty empty empty 17 7 0 10 -262144
-1 -1;
#X obj 471 42 t b;
#X obj 517 170 -;
#X obj 537 138 r \$0-loop-in;
#X obj 420 187 +;
#X obj 522 210 /;
#X floatatom 522 239 5 0 0 0 - - -;
#X obj 377 264 outlet;
#X obj 260 -165 int;
#X obj 321 -178 int;
#X connect 0 0 32 0;
#X connect 2 0 3 1;
#X connect 3 0 4 0;
#X connect 4 0 5 0;
#X connect 5 0 46 0;
#X connect 6 0 28 0;
#X connect 6 0 47 1;
#X connect 7 0 27 0;
#X connect 7 0 48 1;
#X connect 8 0 15 0;
#X connect 8 1 21 0;
#X connect 9 0 47 0;
#X connect 9 1 48 0;
#X connect 10 0 13 1;
#X connect 11 0 12 1;
#X connect 12 0 14 0;
#X connect 13 0 14 1;
#X connect 14 0 30 0;
#X connect 15 0 12 0;
#X connect 15 0 39 0;
#X connect 15 1 13 0;
#X connect 16 0 18 1;
#X connect 17 0 19 0;
#X connect 18 0 19 1;
#X connect 19 0 20 0;
#X connect 19 0 23 0;
#X connect 20 0 43 1;
#X connect 21 0 17 0;
#X connect 21 1 18 0;
#X connect 22 0 17 1;
#X connect 22 0 29 0;
#X connect 23 0 25 0;
#X connect 23 1 26 1;
#X connect 24 0 25 1;
#X connect 25 0 26 0;
#X connect 26 0 31 0;
#X connect 26 0 40 0;
#X connect 30 0 34 0;
#X connect 31 0 44 1;
#X connect 32 0 9 0;
#X connect 32 1 33 1;
#X connect 32 1 37 1;
#X connect 33 0 3 0;
#X connect 34 0 33 0;
#X connect 34 1 4 1;
#X connect 35 0 43 0;
#X connect 35 1 41 0;
#X connect 36 0 35 1;
#X connect 37 0 35 0;
#X connect 40 0 37 0;
#X connect 41 0 44 0;
#X connect 42 0 41 1;
#X connect 43 0 44 0;
#X connect 44 0 45 0;
#X connect 45 0 46 0;
#X connect 47 0 8 0;
#X connect 48 0 8 1;
#X restore 392 436 pd realprogress;
#X obj 544 443 /;
#X obj 559 418 r \$0-totalframe;
#X msg 672 486 fps \$1;
#N canvas 0 82 1366 686 fpsout 0;
#X obj 68 31 inlet;
#X obj 68 93 /;
#X msg 68 61 1000 \$1;
#X obj 68 126 outlet;
#X connect 0 0 2 0;
#X connect 1 0 3 0;
#X connect 2 0 1 0;
#X restore 672 467 pd fpsout;
#X obj 672 441 r \$0-metro-inlet2;
#X msg 319 367 frame \$1;
#X msg 544 469 progress \$1;
#X msg 392 464 progressloop \$1;
#X obj 653 79 int;
#X obj 733 299 int;
#X obj 372 248 metro 40;
#X msg 405 184 40;
#X connect 0 0 4 0;
#X connect 0 1 2 0;
#X connect 0 2 9 0;
#X connect 1 0 0 0;
#X connect 2 0 8 0;
#X connect 2 0 18 0;
#X connect 2 0 54 0;
#X connect 3 0 31 0;
#X connect 5 0 6 0;
#X connect 5 0 0 1;
#X connect 5 0 41 0;
#X connect 5 0 43 0;
#X connect 5 0 55 0;
#X connect 5 0 56 0;
#X connect 6 0 5 1;
#X connect 7 0 5 0;
#X connect 8 0 7 0;
#X connect 8 0 25 0;
#X connect 8 0 67 0;
#X connect 8 0 53 0;
#X connect 8 1 66 0;
#X connect 9 0 7 0;
#X connect 10 0 66 0;
#X connect 11 0 66 0;
#X connect 12 0 0 0;
#X connect 13 0 12 0;
#X connect 14 0 10 0;
#X connect 15 0 11 0;
#X connect 17 0 16 0;
#X connect 19 0 17 0;
#X connect 21 0 0 1;
#X connect 22 0 5 0;
#X connect 23 0 66 1;
#X connect 25 0 30 1;
#X connect 27 0 64 1;
#X connect 28 0 64 0;
#X connect 28 1 29 1;
#X connect 29 0 30 1;
#X connect 29 0 51 0;
#X connect 30 0 5 0;
#X connect 30 0 26 0;
#X connect 31 0 20 0;
#X connect 31 1 13 0;
#X connect 31 2 39 0;
#X connect 31 3 24 0;
#X connect 31 4 28 0;
#X connect 31 5 34 0;
#X connect 31 6 15 0;
#X connect 31 7 14 0;
#X connect 31 8 32 0;
#X connect 32 0 30 0;
#X connect 33 0 43 1;
#X connect 33 0 65 1;
#X connect 34 0 65 0;
#X connect 34 1 35 1;
#X connect 35 0 46 0;
#X connect 36 0 30 0;
#X connect 36 0 40 0;
#X connect 37 0 10 0;
#X connect 38 0 10 0;
#X connect 39 0 24 0;
#X connect 40 0 16 0;
#X connect 41 0 61 0;
#X connect 42 0 49 0;
#X connect 43 0 44 0;
#X connect 43 0 36 0;
#X connect 45 0 50 0;
#X connect 46 0 45 0;
#X connect 46 0 43 1;
#X connect 51 0 42 0;
#X connect 53 0 52 0;
#X connect 55 0 63 0;
#X connect 56 0 62 0;
#X connect 57 0 56 1;
#X connect 58 0 16 0;
#X connect 59 0 58 0;
#X connect 60 0 59 0;
#X connect 61 0 16 0;
#X connect 62 0 16 0;
#X connect 63 0 16 0;
#X connect 64 0 29 0;
#X connect 65 0 35 0;
#X connect 66 0 5 0;
#X connect 67 0 59 0;
#X connect 67 0 66 1;
