#N canvas 748 367 1137 683 10;
#X obj -17 44 cnv 15 800 16 empty empty QWIN_is_copied_from_EXTENDED_VIEW_GEM_WINDOW_MODULE
20 8 0 14 -233017 -66577 0;
#N canvas 897 148 377 353 init 0;
#X obj 91 24 loadbang;
#X msg 91 54 \; /q/qwin/dimen/x 320 \; /q/qwin/dimen/y 240 \; /q/qwin/offset/x
0 \; /q/qwin/offset/y 0 \; /q/qwin/frame 25 \; /q/qwin/border 1 \;
/q/qwin/lighting 0 \;;
#X connect 0 0 1 0;
#X restore 672 145 pd init;
#X obj 546 172 gemwin 25;
#X msg 119 264 frame \$1;
#X obj 358 604 unpack f f;
#X msg 119 364 border \$1;
#X obj 119 446 t b b;
#X msg 119 468 1;
#X msg 146 488 create;
#X obj 119 543 t b b;
#X msg 146 585 0;
#X msg 119 565 destroy;
#X msg 98 635 dimen \$1 \$2;
#X obj 126 831 pack 0 0;
#X msg 98 689 offset \$1 \$2;
#X obj 318 823 pack 800 600;
#X obj 360 800 t b f;
#X obj 144 808 t b f;
#X msg 119 314 lighting \$1;
#X obj 594 454 t b;
#N canvas 461 308 435 410 mouseover 0;
#X obj 148 92 r /ev/gemwin/dimen;
#X obj 148 136 s /ev/mouse/in;
#X obj 148 114 libs/gil/gil_gemmouse 800 600;
#X connect 0 0 2 0;
#X connect 2 0 1 0;
#X restore 667 210 pd mouseover;
#X obj 802 152 gemkeyboard;
#X obj 319 332 inlet settings;
#X text 769 636 (c)2011-2012 Marian Weger /part of EXTENDED VIEW toolkit/
gpl v3;
#X obj 802 174 sel 53 9 27;
#X text 914 254 9 (Linux);
#X text 914 240 53 (OSX);
#X text 914 267 27 (Windows);
#X text 794 240 KeyCodes for "Esc":;
#X obj 119 293 r /q/qwin/lighting;
#X obj 119 243 r /q/qwin/frame;
#X obj 119 393 r /q/qwin/rendering;
#X obj 119 423 r /q/qwin/create;
#X obj 119 522 r /q/qwin/destroy;
#X obj 98 612 r /q/qwin/dimen;
#X obj 98 666 r /q/qwin/offset;
#X obj -6 741 s /q/qwin;
#X obj 546 142 r /q/qwin;
#X obj 802 206 s /q/qwin/destroy;
#X obj 594 480 s /q/qwin/destroy;
#X obj 553 495 s /q/qwin/create;
#X obj 515 520 s /q/qwin/frame;
#X obj 476 540 s /q/qwin/lighting;
#X obj 413 560 s /q/qwin/border;
#X obj 415 626 s /q/qwin/offset/y;
#X obj 358 646 s /q/qwin/offset/x;
#X obj 318 758 r /q/qwin/dimen/x;
#X obj 360 778 r /q/qwin/dimen/y;
#X obj 126 766 r /q/qwin/offset/x;
#X obj 144 786 r /q/qwin/offset/y;
#X obj 126 853 s /q/qwin/offset;
#X text 328 171 dimen;
#X text 330 181 offset;
#X text 333 193 border;
#X text 333 204 lighting;
#X text 333 218 frame;
#X text 335 229 create;
#X text 332 238 destroy;
#X text 334 252 info;
#X text 768 665 (c)2014 Luca carrubba modified for pantaliQa-core gpl
v3;
#X obj 786 409 t b;
#X obj 555 454 t b;
#X obj 772 811 pack 800 600;
#X obj 814 788 t b f;
#X obj 772 833 s /q/qwin/dimen;
#X obj 317 555 t b a b;
#X obj 441 436 t b f b;
#X obj 491 413 t b f b;
#X obj 380 462 t b f b;
#X obj 119 342 r /q/qwin/border;
#X obj 315 867 outlet info;
#X obj 784 430 s Qwin.getdim;
#X obj 789 709 loadbang;
#X obj 877 442 namecanvas qwin;
#X obj 400 101 loadbang;
#X obj 781 757 \$1;
#X obj 818 755 \$2;
#X obj 319 368 route dimen offset border lighting frame create destroy
title info;
#X obj 683 429 symbol;
#X obj 686 451 s /q/qwin/title;
#X obj 225 637 r /q/qwin/title;
#X msg 223 660 title \$1;
#X obj 623 617 r /q/qwin/dimen;
#X obj 621 641 unpack f f;
#X obj 612 673 f;
#X obj 658 671 f;
#X obj 609 556 r Qwin.getdim;
#X obj 609 578 t b b;
#X obj 621 711 pack f f;
#X obj 614 737 unpack f f;
#X obj 614 771 s Qwin.width;
#X obj 665 782 s Qwin.height;
#X floatatom 565 805 5 0 0 0 - - -, f 5;
#X msg 408 133 title pantaliQa-output;
#X obj 319 669 s /q/qwin/dimen;
#X connect 3 0 36 0;
#X connect 4 0 45 0;
#X connect 4 1 44 0;
#X connect 5 0 36 0;
#X connect 6 0 7 0;
#X connect 6 1 8 0;
#X connect 7 0 36 0;
#X connect 8 0 36 0;
#X connect 9 0 11 0;
#X connect 9 1 10 0;
#X connect 10 0 36 0;
#X connect 11 0 36 0;
#X connect 12 0 36 0;
#X connect 13 0 50 0;
#X connect 14 0 36 0;
#X connect 15 0 70 0;
#X connect 16 0 15 0;
#X connect 16 1 15 1;
#X connect 17 0 13 0;
#X connect 17 1 13 1;
#X connect 18 0 36 0;
#X connect 19 0 39 0;
#X connect 21 0 24 0;
#X connect 22 0 77 0;
#X connect 24 0 38 0;
#X connect 24 1 38 0;
#X connect 24 2 38 0;
#X connect 29 0 18 0;
#X connect 30 0 3 0;
#X connect 31 0 36 0;
#X connect 32 0 6 0;
#X connect 33 0 9 0;
#X connect 34 0 12 0;
#X connect 35 0 14 0;
#X connect 37 0 2 0;
#X connect 46 0 15 0;
#X connect 47 0 16 0;
#X connect 48 0 13 0;
#X connect 49 0 17 0;
#X connect 60 0 71 0;
#X connect 61 0 40 0;
#X connect 62 0 64 0;
#X connect 63 0 62 0;
#X connect 63 1 62 1;
#X connect 65 0 61 0;
#X connect 65 1 94 0;
#X connect 65 2 19 0;
#X connect 66 0 40 0;
#X connect 66 1 42 0;
#X connect 66 2 19 0;
#X connect 67 0 40 0;
#X connect 67 1 41 0;
#X connect 67 2 19 0;
#X connect 68 0 40 0;
#X connect 68 1 43 0;
#X connect 68 2 19 0;
#X connect 69 0 5 0;
#X connect 72 0 75 0;
#X connect 72 0 76 0;
#X connect 74 0 93 0;
#X connect 75 0 62 0;
#X connect 76 0 63 0;
#X connect 77 0 65 0;
#X connect 77 1 4 0;
#X connect 77 2 68 0;
#X connect 77 3 66 0;
#X connect 77 4 67 0;
#X connect 77 5 61 0;
#X connect 77 6 19 0;
#X connect 77 7 78 0;
#X connect 77 8 60 0;
#X connect 78 0 79 0;
#X connect 80 0 81 0;
#X connect 81 0 36 0;
#X connect 82 0 83 0;
#X connect 83 0 84 1;
#X connect 83 1 85 1;
#X connect 84 0 88 0;
#X connect 85 0 88 1;
#X connect 86 0 87 0;
#X connect 87 0 84 0;
#X connect 87 1 85 0;
#X connect 88 0 89 0;
#X connect 89 0 90 0;
#X connect 89 0 92 0;
#X connect 89 1 91 0;
#X connect 93 0 2 0;
#X coords 0 683 1 682 360 79 0;
