#N canvas 1 28 1278 736 10;
#X declare -path abs;
#X declare -path utils/pdmtl;
#X declare -path utils/OSCizer;
#X floatatom 344 324 5 0 0 0 - - -;
#X obj 134 299 gems.mixmode;
#N canvas 4 109 450 300 readme 0;
#X msg 61 120 transition \$1;
#X msg 73 166 mix \$1;
#X text 176 122 between 0 and 7;
#X text 172 165 between 0 and 1;
#X text 62 77 Methods;
#X restore 576 32 pd readme;
#N canvas 8 217 450 300 init 0;
#X obj 259 114 declare -path abs;
#X obj 260 134 declare -path utils/pdmtl;
#X obj 261 154 declare -path utils/OSCizer;
#X restore 573 57 pd init;
#N canvas 12 325 450 300 osc 0;
#X obj 145 16 loadbang;
#X msg 209 115 parse \$1;
#X obj 120 186 s outcoming;
#X obj 226 52 getdir;
#X obj 235 27 bng 15 250 50 0 empty empty empty 17 7 0 10 -262144 -1
-1;
#X obj 121 121 r incoming;
#X obj 307 -93 r osc-status;
#X obj 307 -70 sel 1;
#X obj 308 -31 once;
#X obj 221 77 makefilename %s/transitions.pd;
#X obj 121 148 OSCize transitions\$0;
#X connect 1 0 10 0;
#X connect 3 0 9 0;
#X connect 4 0 3 0;
#X connect 5 0 10 0;
#X connect 6 0 7 0;
#X connect 7 0 8 0;
#X connect 8 0 4 0;
#X connect 9 0 1 0;
#X connect 10 0 2 0;
#X restore 574 78 pd osc;
#X obj 111 228 inlet;
#X obj 219 215 inlet;
#X obj 149 345 outlet;
#X text 517 610 by Luca Carrubba - for gemq.info project - free to
share/modify/cannibalize as you want - www.estereotips.net // luca@estereotips.net
// hardly based on the work of Alexandre Quessy for PDMTL abstraction
library;
#X obj 101 121 cnv 15 160 90 empty empty empty 20 12 0 14 -1 -66577
0;
#X obj 120 142 popup 124 25 #ffffff transition none mix mask add subtract
multiply composite takealpha;
#X msg 684 176 name transition;
#X msg 714 219 options none mix mask add subtract multiply composite
takealpha;
#X obj 101 101 cnv 15 160 20 empty empty Transitions 20 12 0 14 -128992
-262144 0;
#X obj 101 101 cnv 15 15 15 empty empty empty 20 12 0 14 -260097 -66577
0;
#X obj 246 101 cnv 15 15 15 empty empty empty 20 12 0 14 -4034 -66577
0;
#X obj 171 100 cnv 15 15 15 empty empty empty 20 12 0 14 -260097 -66577
0;
#X obj 100 101 cnv 15 1 1 empty empty Transitions 20 12 0 14 -128992
-262144 0;
#X obj 100 195 cnv 15 15 15 empty empty empty 20 12 0 14 -260097 -66577
0;
#X obj 367 62 inlet;
#X obj 140 182 hsl 80 15 0 1 0 0 \$0-mix \$0-mix.rcv MIX 20 8 0 10
-128992 -262144 -258113 7900 1;
#X obj 371 91 route transition mix;
#X obj 133 65 hradio 15 1 0 8 empty \$0-transition.rcv empty 0 -8 0
10 -262144 -1 -1 0;
#X obj 298 233 hradio 15 1 0 8 \$0-transition empty empty 0 -8 0 10
-262144 -1 -1 2;
#X connect 0 0 1 2;
#X connect 1 0 7 0;
#X connect 5 0 1 0;
#X connect 6 0 1 1;
#X connect 10 0 0 0;
#X connect 10 0 23 0;
#X connect 11 0 10 0;
#X connect 12 0 10 0;
#X connect 19 0 21 0;
#X connect 20 0 1 3;
#X connect 21 0 10 0;
#X connect 21 1 20 0;
#X connect 22 0 10 0;
#X coords 0 -1 1 1 161 111 1 100 100;
