#N canvas 29 325 1455 732 10;
#X obj 406 -101 pix_record;
#X msg 431 -127 codec v4l2 \, file /dev/video1 \, record 1;
#X obj 431 -168 loadbang;
#X obj 413 -269 tgl 15 1 empty empty texture_on/off 20 7 0 8 -262144
-1 -1 1 1;
#X obj 430 -319 spigot;
#X obj 477 -321 t b f;
#X obj 463 -340 tgl 15 0 empty empty empty 0 -6 0 8 -262144 -1 -1 0
1;
#X obj 403 -380 t a b;
#X obj 372 -606 tgl 15 0 empty empty empty 17 7 0 10 -262144 -1 -1
1 1;
#X obj 351 -474 gemhead 101;
#X obj 375 -547 metro 70;
#X msg 647 -360 \$1 \$2;
#X msg 703 -291 500 500;
#X obj 424 -475 t b;
#X obj 374 -580 t f f b;
#X obj 721 -504 r Qwin.height;
#X obj 640 -503 r Qwin.width;
#X obj 643 -479 pack f f;
#X obj 371 -640 loadbang;
#X obj 724 -334 print;
#X obj 407 -233 pix_snap 0 0 320 240;
#X obj 947 -504 namecanvas \$1;
#X obj 406 -195 pix_resize;
#X obj 678 -215 loadbang;
#X msg 680 -197 dimen 400 320;
#X connect 1 0 0 0;
#X connect 3 0 20 0;
#X connect 4 0 5 0;
#X connect 5 0 20 0;
#X connect 5 1 6 0;
#X connect 6 0 4 1;
#X connect 7 0 20 0;
#X connect 7 1 4 0;
#X connect 8 0 14 0;
#X connect 9 0 7 0;
#X connect 10 0 13 0;
#X connect 11 0 19 0;
#X connect 11 0 20 2;
#X connect 12 0 20 2;
#X connect 13 0 6 0;
#X connect 14 0 10 0;
#X connect 14 1 9 0;
#X connect 14 2 1 0;
#X connect 15 0 17 1;
#X connect 16 0 17 0;
#X connect 17 0 11 0;
#X connect 18 0 8 0;
#X connect 20 0 22 0;
#X connect 22 0 0 0;
#X connect 23 0 24 0;
#X connect 24 0 22 0;
