#N canvas 172 128 1524 651 10;
#X obj 590 276 gemframebuffer;
#X obj 101 115 cnv 15 268 56 empty empty empty 20 12 0 14 -228856 -66577
0;
#X obj 245 132 nbx 5 14 -1e+37 1e+37 0 0 /ev/buf/\$1/scale/x /ev/buf/\$1/scale/x
x -8 8 0 10 -261682 -1 -1 1 256;
#X obj 310 132 nbx 5 14 -1e+37 1e+37 0 0 /ev/buf/\$1/dimen/x /ev/buf/\$1/dimen/x
x -8 8 0 10 -204800 -1 -1 1024 256;
#X obj 310 150 nbx 5 14 -1e+37 1e+37 0 0 /ev/buf/\$1/dimen/y /ev/buf/\$1/dimen/y
y -8 8 0 10 -204800 -1 -1 1024 256;
#X obj 669 194 pack;
#X obj 685 167 t b f;
#X msg 669 217 dimen \$1 \$2;
#X obj 245 150 nbx 5 14 -1e+37 1e+37 0 0 /ev/buf/\$1/scale/y /ev/buf/\$1/scale/y
y -8 8 0 10 -261682 -1 -1 1 256;
#X obj 180 132 nbx 5 14 -1e+37 1e+37 0 0 /ev/buf/\$1/shift/x /ev/buf/\$1/shift/x
x -8 8 0 10 -262130 -1 -1 0 256;
#X obj 180 149 nbx 5 14 -1e+37 1e+37 0 0 /ev/buf/\$1/shift/y /ev/buf/\$1/shift/y
y -8 8 0 10 -262130 -1 -1 0 256;
#X obj 104 132 tgl 15 1 /ev/buf/\$1/state /ev/buf/\$1/state on/off
17 7 0 10 -4034 -1 -1 1 1;
#X obj 590 549 scaleXYZ 1 1 1;
#X obj 536 125 r /ev/buf/\$1/state;
#X obj 627 356 r /ev/buf/\$1/shift/x;
#X obj 664 377 r /ev/buf/\$1/shift/y;
#X obj 701 401 r /ev/buf/\$1/shift/z;
#X text 178 116 shift;
#X text 243 116 scale;
#X text 308 115 dimen;
#X obj 671 303 s /ev/buf/\$1/texture_id;
#X obj 100 10 cnv 15 850 16 empty empty EXTENDED_VIEW_FRAMEBUFFER 20
8 0 14 -233017 -66577 0;
#X obj 99 318 cnv 15 360 60 empty empty creation_arguments: 5 12 0
12 -162280 -1 0;
#X obj 99 381 cnv 15 360 90 empty empty inlets/outlets 5 12 0 12 -233017
-66577 0;
#X text 231 441 other content;
#X text 102 334 1st: module ID;
#X obj 102 200 cnv 15 200 100 empty empty gui_controls 5 8 0 12 -204800
-66577 0;
#X text 102 239 scale x/y: scales the buffers;
#X text 168 228 content;
#X text 102 217 shift x/y: translates the buffers;
#X text 168 248 content;
#X text 102 261 dimen x/y: dimension of the FB;
#X text 102 273 on/off: toggles state;
#N canvas 351 209 247 337 init 0;
#X obj 11 13 loadbang;
#X obj 11 37 list append \$1;
#X msg 11 64 \; /ev/buf/\$1/color 0 0 0 0 \; /ev/buf/\$1/format RGBA
\; /ev/buf/\$1/rectangle 1 \; /ev/buf/\$1/type BYTE \; /ev/buf/\$1/shift/x
0 \; /ev/buf/\$1/shift/y 0 \; /ev/buf/\$1/shift/z 0 \; /ev/buf/\$1/scale/x
1 \; /ev/buf/\$1/scale/y 1 \; /ev/buf/\$1/scale/z 1 \; /ev/buf/\$1/dimen/x
1024 \; /ev/buf/\$1/dimen/y 1024 \; /ev/buf/\$1/state 1 \;;
#X connect 0 0 1 0;
#X connect 1 0 2 0;
#X coords 0 337 1 336 85 60 0;
#X restore 111 61 pd init;
#X obj 996 98 r /ev/buf/\$1/type;
#X obj 977 53 r /ev/buf/\$1/rectangle;
#X obj 850 52 r /ev/buf/\$1/format;
#X obj 1015 153 r /ev/buf/\$1/color;
#X obj 788 222 list trim;
#X obj 617 478 r /ev/buf/\$1/scale/x;
#X obj 644 498 r /ev/buf/\$1/scale/y;
#X text 682 591 outlet 1: gemlist outlet;
#X text 895 568 outlet 2: texture id;
#X obj 850 77 list prepend format;
#X obj 977 76 list prepend rectangle;
#X obj 996 123 list prepend type;
#X obj 1015 175 list prepend color;
#X text 104 429 Outlet 1: gemlist \, to be connectet to input \, group
or;
#X text 104 455 Outlet 2: texture id of the framebuffer;
#X obj 590 591 outlet gemlist;
#X obj 894 596 outlet texture_id;
#X text 104 413 Inlet 2: gemframebuffer settings (see gemframebuffer-help)
;
#X text 105 400 Inlet 1: gemlist to be connected to gemhead;
#X obj 503 174 spigot;
#X obj 492 60 cnv 15 200 40 empty empty inlets 1 8 0 12 -260097 -66577
0;
#X obj 503 78 inlet gemlist;
#X obj 590 78 inlet settings;
#X text 932 451 [gemframebuffer] viewpoint: 0/0/0 \; [gemwin] viewpoint:
0/0/4;
#X text 716 451 "-4" because of viewpoint mismatch:;
#X text 102 286 rotate: rotate content;
#X text 102 346 2nd: storage domain;
#X obj 671 518 r /ev/buf/\$1/scale/z;
#X obj 701 423 - 4;
#X obj 590 450 translateXYZ 0 0 -4;
#X text 103 492 (c)2011 Peter Venus & Marian Weger \; /part of EXTENDED
VIEW toolkit/ gpl v3;
#X obj 374 212 once;
#X obj 376 235 list prepend \$1;
#X msg 375 254 \; Qwin.getdim bang \; /q/screen/\$1/fullscreen bang
;
#X obj 500 123 t a b;
#X obj 668 122 r Qwin.width;
#X obj 685 145 r Qwin.height;
#X connect 0 0 63 0;
#X connect 0 1 20 0;
#X connect 0 1 50 0;
#X connect 5 0 7 0;
#X connect 6 0 5 0;
#X connect 6 1 5 1;
#X connect 7 0 0 0;
#X connect 12 0 49 0;
#X connect 13 0 53 1;
#X connect 14 0 63 1;
#X connect 15 0 63 2;
#X connect 16 0 62 0;
#X connect 34 0 45 0;
#X connect 35 0 44 0;
#X connect 36 0 43 0;
#X connect 37 0 46 0;
#X connect 38 0 0 0;
#X connect 39 0 12 1;
#X connect 40 0 12 2;
#X connect 43 0 38 0;
#X connect 44 0 38 0;
#X connect 45 0 38 0;
#X connect 46 0 38 0;
#X connect 53 0 0 0;
#X connect 55 0 68 0;
#X connect 56 0 0 0;
#X connect 61 0 12 3;
#X connect 62 0 63 3;
#X connect 63 0 12 0;
#X connect 65 0 66 0;
#X connect 66 0 67 0;
#X connect 68 0 53 0;
#X connect 68 1 65 0;
#X connect 69 0 5 0;
#X connect 70 0 6 0;
#X coords 0 651 1 650 270 75 0;
